<ttFont>
    <TTGlyph name=".notdef" xMin="193" yMin="0" xMax="1034" yMax="1462">
      <contour>
        <pt x="193" y="1462" on="1"/>
        <pt x="1034" y="1462" on="1"/>
        <pt x="1034" y="0" on="1"/>
        <pt x="193" y="0" on="1"/>
      </contour>
      <contour>
        <pt x="297" y="104" on="1"/>
        <pt x="930" y="104" on="1"/>
        <pt x="930" y="1358" on="1"/>
        <pt x="297" y="1358" on="1"/>
      </contour>
    </TTGlyph>
    <TTGlyph name="acutecomb" xMin="-762" yMin="1241" xMax="-350" yMax="1569">
      <contour>
        <pt x="-762" y="1266" on="1"/>
        <pt x="-740" y="1294" on="0"/>
        <pt x="-687" y="1370" on="0"/>
        <pt x="-633" y="1452" on="0"/>
        <pt x="-585" y="1534" on="0"/>
        <pt x="-567" y="1569" on="1"/>
        <pt x="-350" y="1569" on="1"/>
        <pt x="-350" y="1548" on="1"/>
        <pt x="-369" y="1520" on="0"/>
        <pt x="-438" y="1438" on="0"/>
        <pt x="-521" y="1351" on="0"/>
        <pt x="-607" y="1269" on="0"/>
        <pt x="-643" y="1241" on="1"/>
        <pt x="-762" y="1241" on="1"/>
      </contour>
    </TTGlyph>
    <TTGlyph name="breve" xMin="287" yMin="1241" xMax="924" yMax="1516">
      <contour>
        <pt x="600" y="1241" on="1"/>
        <pt x="459" y="1241" on="0"/>
        <pt x="296" y="1379" on="0"/>
        <pt x="287" y="1516" on="1"/>
        <pt x="397" y="1516" on="1"/>
        <pt x="405" y="1445" on="0"/>
        <pt x="489" y="1386" on="0"/>
        <pt x="604" y="1386" on="1"/>
        <pt x="705" y="1386" on="0"/>
        <pt x="803" y="1449" on="0"/>
        <pt x="811" y="1516" on="1"/>
        <pt x="924" y="1516" on="1"/>
        <pt x="911" y="1385" on="0"/>
        <pt x="739" y="1241" on="0"/>
      </contour>
    </TTGlyph>
    <TTGlyph name="caron" xMin="260" yMin="1241" xMax="952" yMax="1569">
      <contour>
        <pt x="260" y="1569" on="1"/>
        <pt x="383" y="1569" on="1"/>
        <pt x="497" y="1495" on="0"/>
        <pt x="602" y="1380" on="1"/>
        <pt x="728" y="1506" on="0"/>
        <pt x="825" y="1569" on="1"/>
        <pt x="952" y="1569" on="1"/>
        <pt x="952" y="1542" on="1"/>
        <pt x="747" y="1337" on="0"/>
        <pt x="696" y="1241" on="1"/>
        <pt x="512" y="1241" on="1"/>
        <pt x="452" y="1343" on="0"/>
        <pt x="260" y="1542" on="1"/>
      </contour>
    </TTGlyph>
    <TTGlyph name="dotaccent" xMin="160" yMin="1280" xMax="371" yMax="1509">
      <contour>
        <pt x="160" y="1395" on="1"/>
        <pt x="160" y="1455" on="0"/>
        <pt x="221" y="1509" on="0"/>
        <pt x="266" y="1509" on="1"/>
        <pt x="308" y="1509" on="0"/>
        <pt x="371" y="1455" on="0"/>
        <pt x="371" y="1395" on="1"/>
        <pt x="371" y="1336" on="0"/>
        <pt x="308" y="1280" on="0"/>
        <pt x="266" y="1280" on="1"/>
        <pt x="221" y="1280" on="0"/>
        <pt x="160" y="1336" on="0"/>
      </contour>
    </TTGlyph>
    <TTGlyph name="dotbelowcomb" xMin="0" yMin="-329" xMax="211" yMax="-100">
      <contour>
        <pt x="0" y="-214" on="1"/>
        <pt x="0" y="-154" on="0"/>
        <pt x="61" y="-100" on="0"/>
        <pt x="106" y="-100" on="1"/>
        <pt x="148" y="-100" on="0"/>
        <pt x="211" y="-154" on="0"/>
        <pt x="211" y="-214" on="1"/>
        <pt x="211" y="-273" on="0"/>
        <pt x="148" y="-329" on="0"/>
        <pt x="106" y="-329" on="1"/>
        <pt x="61" y="-329" on="0"/>
        <pt x="0" y="-273" on="0"/>
      </contour>
    </TTGlyph>
    <TTGlyph name="eng" xMin="174" yMin="-492" xMax="1102" yMax="1118">
      <contour>
        <pt x="807" y="-492" on="1"/>
        <pt x="721" y="-492" on="0"/>
        <pt x="662" y="-467" on="1"/>
        <pt x="662" y="-322" on="1"/>
        <pt x="722" y="-342" on="0"/>
        <pt x="784" y="-342" on="1"/>
        <pt x="922" y="-342" on="0"/>
        <pt x="922" y="-170" on="1"/>
        <pt x="922" y="705" on="1"/>
        <pt x="922" y="838" on="0"/>
        <pt x="803" y="967" on="0"/>
        <pt x="678" y="967" on="1"/>
        <pt x="508" y="967" on="0"/>
        <pt x="354" y="780" on="0"/>
        <pt x="354" y="571" on="1"/>
        <pt x="354" y="0" on="1"/>
        <pt x="174" y="0" on="1"/>
        <pt x="174" y="1098" on="1"/>
        <pt x="319" y="1098" on="1"/>
        <pt x="348" y="948" on="1"/>
        <pt x="358" y="948" on="1"/>
        <pt x="410" y="1030" on="0"/>
        <pt x="590" y="1118" on="0"/>
        <pt x="700" y="1118" on="1"/>
        <pt x="902" y="1118" on="0"/>
        <pt x="1102" y="927" on="0"/>
        <pt x="1102" y="717" on="1"/>
        <pt x="1102" y="-164" on="1"/>
        <pt x="1102" y="-318" on="0"/>
        <pt x="959" y="-492" on="0"/>
      </contour>
    </TTGlyph>
    <TTGlyph name="glyph00173" xMin="-340" yMin="1702" xMax="340" yMax="1797">
      <contour>
        <pt x="-340" y="1797" on="1"/>
        <pt x="340" y="1797" on="1"/>
        <pt x="340" y="1702" on="1"/>
        <pt x="-340" y="1702" on="1"/>
      </contour>
    </TTGlyph>
    <TTGlyph name="glyph00174" xMin="-540" yMin="1702" xMax="540" yMax="1797">
      <contour>
        <pt x="-540" y="1797" on="1"/>
        <pt x="540" y="1797" on="1"/>
        <pt x="540" y="1702" on="1"/>
        <pt x="-540" y="1702" on="1"/>
      </contour>
    </TTGlyph>
    <TTGlyph name="glyph00175" xMin="-770" yMin="1702" xMax="770" yMax="1797">
      <contour>
        <pt x="-770" y="1797" on="1"/>
        <pt x="770" y="1797" on="1"/>
        <pt x="770" y="1702" on="1"/>
        <pt x="-770" y="1702" on="1"/>
      </contour>
    </TTGlyph>
    <TTGlyph name="glyph00176" xMin="-870" yMin="1702" xMax="870" yMax="1797">
      <contour>
        <pt x="-870" y="1797" on="1"/>
        <pt x="870" y="1797" on="1"/>
        <pt x="870" y="1702" on="1"/>
        <pt x="-870" y="1702" on="1"/>
      </contour>
    </TTGlyph>
    <TTGlyph name="glyph00177" xMin="-1100" yMin="1702" xMax="1100" yMax="1797">
      <contour>
        <pt x="-1100" y="1797" on="1"/>
        <pt x="1100" y="1797" on="1"/>
        <pt x="1100" y="1702" on="1"/>
        <pt x="-1100" y="1702" on="1"/>
      </contour>
    </TTGlyph>
    <TTGlyph name="glyph00180" xMin="-340" yMin="1241" xMax="340" yMax="1386">
      <contour>
        <pt x="-340" y="1386" on="1"/>
        <pt x="340" y="1386" on="1"/>
        <pt x="340" y="1241" on="1"/>
        <pt x="-340" y="1241" on="1"/>
      </contour>
    </TTGlyph>
    <TTGlyph name="glyph00181" xMin="-540" yMin="1241" xMax="540" yMax="1386">
      <contour>
        <pt x="-540" y="1386" on="1"/>
        <pt x="540" y="1386" on="1"/>
        <pt x="540" y="1241" on="1"/>
        <pt x="-540" y="1241" on="1"/>
      </contour>
    </TTGlyph>
    <TTGlyph name="glyph00182" xMin="-770" yMin="1241" xMax="770" yMax="1387">
      <contour>
        <pt x="-770" y="1387" on="1"/>
        <pt x="770" y="1387" on="1"/>
        <pt x="770" y="1241" on="1"/>
        <pt x="-770" y="1241" on="1"/>
      </contour>
    </TTGlyph>
    <TTGlyph name="glyph00183" xMin="-870" yMin="1241" xMax="870" yMax="1387">
      <contour>
        <pt x="-870" y="1387" on="1"/>
        <pt x="870" y="1387" on="1"/>
        <pt x="870" y="1241" on="1"/>
        <pt x="-870" y="1241" on="1"/>
      </contour>
    </TTGlyph>
    <TTGlyph name="glyph00184" xMin="-1100" yMin="1241" xMax="1100" yMax="1387">
      <contour>
        <pt x="-1100" y="1387" on="1"/>
        <pt x="1100" y="1387" on="1"/>
        <pt x="1100" y="1241" on="1"/>
        <pt x="-1100" y="1241" on="1"/>
      </contour>
    </TTGlyph>
    <TTGlyph name="glyph00185" xMin="-340" yMin="1241" xMax="340" yMax="1486">
      <contour>
        <pt x="-340" y="1316" on="1"/>
        <pt x="340" y="1316" on="1"/>
        <pt x="340" y="1241" on="1"/>
        <pt x="-340" y="1241" on="1"/>
      </contour>
      <contour>
        <pt x="-340" y="1486" on="1"/>
        <pt x="340" y="1486" on="1"/>
        <pt x="340" y="1411" on="1"/>
        <pt x="-340" y="1411" on="1"/>
      </contour>
    </TTGlyph>
    <TTGlyph name="glyph00186" xMin="-540" yMin="1241" xMax="540" yMax="1486">
      <contour>
        <pt x="-540" y="1316" on="1"/>
        <pt x="540" y="1316" on="1"/>
        <pt x="540" y="1241" on="1"/>
        <pt x="-540" y="1241" on="1"/>
      </contour>
      <contour>
        <pt x="-540" y="1486" on="1"/>
        <pt x="540" y="1486" on="1"/>
        <pt x="540" y="1411" on="1"/>
        <pt x="-540" y="1411" on="1"/>
      </contour>
    </TTGlyph>
    <TTGlyph name="glyph00187" xMin="-770" yMin="1241" xMax="770" yMax="1486">
      <contour>
        <pt x="-770" y="1316" on="1"/>
        <pt x="770" y="1316" on="1"/>
        <pt x="770" y="1241" on="1"/>
        <pt x="-770" y="1241" on="1"/>
      </contour>
      <contour>
        <pt x="-770" y="1486" on="1"/>
        <pt x="770" y="1486" on="1"/>
        <pt x="770" y="1411" on="1"/>
        <pt x="-770" y="1411" on="1"/>
      </contour>
    </TTGlyph>
    <TTGlyph name="glyph00188" xMin="-870" yMin="1241" xMax="870" yMax="1486">
      <contour>
        <pt x="-870" y="1316" on="1"/>
        <pt x="870" y="1316" on="1"/>
        <pt x="870" y="1241" on="1"/>
        <pt x="-870" y="1241" on="1"/>
      </contour>
      <contour>
        <pt x="-870" y="1486" on="1"/>
        <pt x="870" y="1486" on="1"/>
        <pt x="870" y="1411" on="1"/>
        <pt x="-870" y="1411" on="1"/>
      </contour>
    </TTGlyph>
    <TTGlyph name="glyph00189" xMin="-1100" yMin="1241" xMax="1100" yMax="1486">
      <contour>
        <pt x="-1100" y="1316" on="1"/>
        <pt x="1100" y="1316" on="1"/>
        <pt x="1100" y="1241" on="1"/>
        <pt x="-1100" y="1241" on="1"/>
      </contour>
      <contour>
        <pt x="-1100" y="1486" on="1"/>
        <pt x="1100" y="1486" on="1"/>
        <pt x="1100" y="1411" on="1"/>
        <pt x="-1100" y="1411" on="1"/>
      </contour>
    </TTGlyph>
    <TTGlyph name="gravecomb" xMin="-948" yMin="1241" xMax="-536" yMax="1569">
      <contour>
        <pt x="-536" y="1241" on="1"/>
        <pt x="-657" y="1241" on="1"/>
        <pt x="-692" y="1269" on="0"/>
        <pt x="-779" y="1351" on="0"/>
        <pt x="-861" y="1438" on="0"/>
        <pt x="-930" y="1520" on="0"/>
        <pt x="-948" y="1548" on="1"/>
        <pt x="-948" y="1569" on="1"/>
        <pt x="-733" y="1569" on="1"/>
        <pt x="-716" y="1534" on="0"/>
        <pt x="-668" y="1452" on="0"/>
        <pt x="-615" y="1370" on="0"/>
        <pt x="-560" y="1294" on="0"/>
        <pt x="-536" y="1266" on="1"/>
      </contour>
    </TTGlyph>
    <TTGlyph name="hungarumlaut" xMin="223" yMin="1241" xMax="958" yMax="1569">
      <contour>
        <pt x="223" y="1266" on="1"/>
        <pt x="258" y="1312" on="0"/>
        <pt x="362" y="1489" on="0"/>
        <pt x="401" y="1569" on="1"/>
        <pt x="598" y="1569" on="1"/>
        <pt x="598" y="1548" on="1"/>
        <pt x="565" y="1492" on="0"/>
        <pt x="392" y="1296" on="0"/>
        <pt x="326" y="1241" on="1"/>
        <pt x="223" y="1241" on="1"/>
      </contour>
      <contour>
        <pt x="584" y="1266" on="1"/>
        <pt x="631" y="1331" on="0"/>
        <pt x="737" y="1513" on="0"/>
        <pt x="762" y="1569" on="1"/>
        <pt x="958" y="1569" on="1"/>
        <pt x="958" y="1548" on="1"/>
        <pt x="925" y="1492" on="0"/>
        <pt x="752" y="1296" on="0"/>
        <pt x="686" y="1241" on="1"/>
        <pt x="584" y="1241" on="1"/>
      </contour>
    </TTGlyph>
    <TTGlyph name="ogonek" xMin="35" yMin="-451" xMax="373" yMax="0">
      <contour>
        <pt x="182" y="-238" on="1"/>
        <pt x="182" y="-284" on="0"/>
        <pt x="231" y="-330" on="0"/>
        <pt x="274" y="-330" on="1"/>
        <pt x="318" y="-330" on="0"/>
        <pt x="373" y="-317" on="1"/>
        <pt x="373" y="-432" on="1"/>
        <pt x="304" y="-451" on="0"/>
        <pt x="246" y="-451" on="1"/>
        <pt x="35" y="-451" on="0"/>
        <pt x="35" y="-258" on="1"/>
        <pt x="35" y="-119" on="0"/>
        <pt x="195" y="0" on="1"/>
        <pt x="322" y="0" on="1"/>
        <pt x="252" y="-66" on="0"/>
        <pt x="182" y="-175" on="0"/>
      </contour>
    </TTGlyph>
    <TTGlyph name="ring" xMin="365" yMin="1241" xMax="815" yMax="1673">
      <contour>
        <pt x="815" y="1460" on="1"/>
        <pt x="815" y="1359" on="0"/>
        <pt x="690" y="1241" on="0"/>
        <pt x="588" y="1241" on="1"/>
        <pt x="485" y="1241" on="0"/>
        <pt x="365" y="1358" on="0"/>
        <pt x="365" y="1458" on="1"/>
        <pt x="365" y="1556" on="0"/>
        <pt x="485" y="1673" on="0"/>
        <pt x="588" y="1673" on="1"/>
        <pt x="689" y="1673" on="0"/>
        <pt x="815" y="1555" on="0"/>
      </contour>
      <contour>
        <pt x="702" y="1458" on="1"/>
        <pt x="702" y="1512" on="0"/>
        <pt x="637" y="1573" on="0"/>
        <pt x="588" y="1573" on="1"/>
        <pt x="538" y="1573" on="0"/>
        <pt x="473" y="1512" on="0"/>
        <pt x="473" y="1458" on="1"/>
        <pt x="473" y="1404" on="0"/>
        <pt x="532" y="1343" on="0"/>
        <pt x="588" y="1343" on="1"/>
        <pt x="639" y="1343" on="0"/>
        <pt x="702" y="1404" on="0"/>
      </contour>
    </TTGlyph>
    <TTGlyph name="uni01C1" xMin="185" yMin="-492" xMax="872" yMax="1556">
      <contour>
        <pt x="344" y="-492" on="1"/>
        <pt x="185" y="-492" on="1"/>
        <pt x="185" y="1556" on="1"/>
        <pt x="344" y="1556" on="1"/>
      </contour>
      <contour>
        <pt x="872" y="-492" on="1"/>
        <pt x="713" y="-492" on="1"/>
        <pt x="713" y="1556" on="1"/>
        <pt x="872" y="1556" on="1"/>
      </contour>
    </TTGlyph>
    <TTGlyph name="uni0251" xMin="113" yMin="-20" xMax="1085" yMax="1118">
      <contour>
        <pt x="563" y="-20" on="1"/>
        <pt x="349" y="-20" on="0"/>
        <pt x="113" y="276" on="0"/>
        <pt x="113" y="547" on="1"/>
        <pt x="113" y="816" on="0"/>
        <pt x="350" y="1118" on="0"/>
        <pt x="565" y="1118" on="1"/>
        <pt x="786" y="1118" on="0"/>
        <pt x="905" y="956" on="1"/>
        <pt x="913" y="956" on="1"/>
        <pt x="942" y="1098" on="1"/>
        <pt x="1085" y="1098" on="1"/>
        <pt x="1085" y="0" on="1"/>
        <pt x="940" y="0" on="1"/>
        <pt x="913" y="147" on="1"/>
        <pt x="905" y="147" on="1"/>
        <pt x="790" y="-20" on="0"/>
      </contour>
      <contour>
        <pt x="592" y="129" on="1"/>
        <pt x="756" y="129" on="0"/>
        <pt x="907" y="308" on="0"/>
        <pt x="907" y="512" on="1"/>
        <pt x="907" y="545" on="1"/>
        <pt x="907" y="774" on="0"/>
        <pt x="754" y="969" on="0"/>
        <pt x="590" y="969" on="1"/>
        <pt x="451" y="969" on="0"/>
        <pt x="299" y="748" on="0"/>
        <pt x="299" y="543" on="1"/>
        <pt x="299" y="339" on="0"/>
        <pt x="450" y="129" on="0"/>
      </contour>
    </TTGlyph>
    <TTGlyph name="uni0254" xMin="68" yMin="-20" xMax="870" yMax="1118">
      <contour>
        <pt x="86" y="199" on="1"/>
        <pt x="226" y="135" on="0"/>
        <pt x="365" y="135" on="1"/>
        <pt x="530" y="135" on="0"/>
        <pt x="684" y="346" on="0"/>
        <pt x="684" y="553" on="1"/>
        <pt x="684" y="751" on="0"/>
        <pt x="524" y="963" on="0"/>
        <pt x="362" y="963" on="1"/>
        <pt x="307" y="963" on="0"/>
        <pt x="173" y="934" on="0"/>
        <pt x="123" y="909" on="1"/>
        <pt x="68" y="1059" on="1"/>
        <pt x="117" y="1084" on="0"/>
        <pt x="277" y="1118" on="0"/>
        <pt x="371" y="1118" on="1"/>
        <pt x="608" y="1118" on="0"/>
        <pt x="870" y="825" on="0"/>
        <pt x="870" y="555" on="1"/>
        <pt x="870" y="276" on="0"/>
        <pt x="603" y="-20" on="0"/>
        <pt x="362" y="-20" on="1"/>
        <pt x="200" y="-20" on="0"/>
        <pt x="86" y="39" on="1"/>
      </contour>
    </TTGlyph>
    <TTGlyph name="uni0259" xMin="104" yMin="-20" xMax="1042" yMax="1118">
      <contour>
        <pt x="514" y="1118" on="1"/>
        <pt x="762" y="1118" on="0"/>
        <pt x="1042" y="819" on="0"/>
        <pt x="1042" y="557" on="1"/>
        <pt x="1042" y="293" on="0"/>
        <pt x="780" y="-20" on="0"/>
        <pt x="557" y="-20" on="1"/>
        <pt x="350" y="-20" on="0"/>
        <pt x="104" y="247" on="0"/>
        <pt x="104" y="475" on="1"/>
        <pt x="104" y="584" on="1"/>
        <pt x="856" y="584" on="1"/>
        <pt x="851" y="770" on="0"/>
        <pt x="671" y="965" on="0"/>
        <pt x="506" y="965" on="1"/>
        <pt x="418" y="965" on="0"/>
        <pt x="260" y="934" on="0"/>
        <pt x="154" y="889" on="1"/>
        <pt x="154" y="1047" on="1"/>
        <pt x="245" y="1086" on="0"/>
        <pt x="405" y="1118" on="0"/>
      </contour>
      <contour>
        <pt x="559" y="127" on="1"/>
        <pt x="688" y="127" on="0"/>
        <pt x="838" y="293" on="0"/>
        <pt x="852" y="440" on="1"/>
        <pt x="293" y="440" on="1"/>
        <pt x="295" y="289" on="0"/>
        <pt x="431" y="127" on="0"/>
      </contour>
    </TTGlyph>
    <TTGlyph name="uni025B" xMin="88" yMin="-20" xMax="920" yMax="1118">
      <contour>
        <pt x="727" y="645" on="1"/>
        <pt x="727" y="498" on="1"/>
        <pt x="578" y="498" on="1"/>
        <pt x="268" y="498" on="0"/>
        <pt x="268" y="309" on="1"/>
        <pt x="268" y="220" on="0"/>
        <pt x="416" y="127" on="0"/>
        <pt x="559" y="127" on="1"/>
        <pt x="644" y="127" on="0"/>
        <pt x="815" y="166" on="0"/>
        <pt x="915" y="213" on="1"/>
        <pt x="915" y="55" on="1"/>
        <pt x="776" y="-20" on="0"/>
        <pt x="549" y="-20" on="1"/>
        <pt x="329" y="-20" on="0"/>
        <pt x="88" y="151" on="0"/>
        <pt x="88" y="299" on="1"/>
        <pt x="88" y="398" on="0"/>
        <pt x="201" y="529" on="0"/>
        <pt x="332" y="567" on="1"/>
        <pt x="332" y="578" on="1"/>
        <pt x="233" y="606" on="0"/>
        <pt x="127" y="734" on="0"/>
        <pt x="127" y="827" on="1"/>
        <pt x="127" y="962" on="0"/>
        <pt x="358" y="1118" on="0"/>
        <pt x="549" y="1118" on="1"/>
        <pt x="660" y="1118" on="0"/>
        <pt x="833" y="1081" on="0"/>
        <pt x="920" y="1040" on="1"/>
        <pt x="852" y="897" on="1"/>
        <pt x="753" y="941" on="0"/>
        <pt x="621" y="969" on="0"/>
        <pt x="547" y="969" on="1"/>
        <pt x="299" y="969" on="0"/>
        <pt x="299" y="813" on="1"/>
        <pt x="299" y="645" on="0"/>
        <pt x="612" y="645" on="1"/>
      </contour>
    </TTGlyph>
    <TTGlyph name="uni025F" xMin="-113" yMin="-492" xMax="508" yMax="1098">
      <contour>
        <pt x="20" y="653" on="1"/>
        <pt x="174" y="653" on="1"/>
        <pt x="174" y="1098" on="1"/>
        <pt x="354" y="1098" on="1"/>
        <pt x="354" y="653" on="1"/>
        <pt x="508" y="653" on="1"/>
        <pt x="508" y="508" on="1"/>
        <pt x="354" y="508" on="1"/>
        <pt x="354" y="-164" on="1"/>
        <pt x="354" y="-328" on="0"/>
        <pt x="197" y="-492" on="0"/>
        <pt x="45" y="-492" on="1"/>
        <pt x="-49" y="-492" on="0"/>
        <pt x="-113" y="-467" on="1"/>
        <pt x="-113" y="-322" on="1"/>
        <pt x="-44" y="-342" on="0"/>
        <pt x="23" y="-342" on="1"/>
        <pt x="101" y="-342" on="0"/>
        <pt x="174" y="-257" on="0"/>
        <pt x="174" y="-170" on="1"/>
        <pt x="174" y="508" on="1"/>
        <pt x="20" y="508" on="1"/>
      </contour>
    </TTGlyph>
    <TTGlyph name="uni0261" xMin="111" yMin="-492" xMax="1083" yMax="1118">
      <contour>
        <pt x="590" y="127" on="1"/>
        <pt x="756" y="127" on="0"/>
        <pt x="907" y="306" on="0"/>
        <pt x="907" y="504" on="1"/>
        <pt x="907" y="547" on="1"/>
        <pt x="907" y="767" on="0"/>
        <pt x="755" y="967" on="0"/>
        <pt x="586" y="967" on="1"/>
        <pt x="448" y="967" on="0"/>
        <pt x="297" y="748" on="0"/>
        <pt x="297" y="545" on="1"/>
        <pt x="297" y="341" on="0"/>
        <pt x="444" y="127" on="0"/>
      </contour>
      <contour>
        <pt x="905" y="10" on="1"/>
        <pt x="911" y="145" on="1"/>
        <pt x="903" y="145" on="1"/>
        <pt x="792" y="-20" on="0"/>
        <pt x="563" y="-20" on="1"/>
        <pt x="350" y="-20" on="0"/>
        <pt x="111" y="277" on="0"/>
        <pt x="111" y="547" on="1"/>
        <pt x="111" y="812" on="0"/>
        <pt x="352" y="1118" on="0"/>
        <pt x="561" y="1118" on="1"/>
        <pt x="784" y="1118" on="0"/>
        <pt x="905" y="952" on="1"/>
        <pt x="915" y="952" on="1"/>
        <pt x="940" y="1098" on="1"/>
        <pt x="1083" y="1098" on="1"/>
        <pt x="1083" y="-18" on="1"/>
        <pt x="1083" y="-254" on="0"/>
        <pt x="844" y="-492" on="0"/>
        <pt x="592" y="-492" on="1"/>
        <pt x="352" y="-492" on="0"/>
        <pt x="197" y="-422" on="1"/>
        <pt x="197" y="-256" on="1"/>
        <pt x="357" y="-342" on="0"/>
        <pt x="602" y="-342" on="1"/>
        <pt x="742" y="-342" on="0"/>
        <pt x="905" y="-178" on="0"/>
        <pt x="905" y="-33" on="1"/>
      </contour>
    </TTGlyph>
    <TTGlyph name="uni0272" xMin="-59" yMin="-492" xMax="1100" yMax="1118">
      <contour>
        <pt x="354" y="-150" on="1"/>
        <pt x="354" y="-492" on="0"/>
        <pt x="84" y="-492" on="1"/>
        <pt x="-9" y="-492" on="0"/>
        <pt x="-59" y="-459" on="1"/>
        <pt x="-59" y="-322" on="1"/>
        <pt x="-12" y="-344" on="0"/>
        <pt x="47" y="-344" on="1"/>
        <pt x="119" y="-344" on="0"/>
        <pt x="174" y="-255" on="0"/>
        <pt x="174" y="-147" on="1"/>
        <pt x="174" y="1098" on="1"/>
        <pt x="319" y="1098" on="1"/>
        <pt x="346" y="948" on="1"/>
        <pt x="356" y="948" on="1"/>
        <pt x="407" y="1029" on="0"/>
        <pt x="591" y="1118" on="0"/>
        <pt x="702" y="1118" on="1"/>
        <pt x="904" y="1118" on="0"/>
        <pt x="1100" y="922" on="0"/>
        <pt x="1100" y="715" on="1"/>
        <pt x="1100" y="0" on="1"/>
        <pt x="922" y="0" on="1"/>
        <pt x="922" y="702" on="1"/>
        <pt x="922" y="836" on="0"/>
        <pt x="803" y="967" on="0"/>
        <pt x="676" y="967" on="1"/>
        <pt x="507" y="967" on="0"/>
        <pt x="354" y="780" on="0"/>
        <pt x="354" y="569" on="1"/>
      </contour>
    </TTGlyph>
    <TTGlyph name="uni027E" xMin="168" yMin="0" xMax="672" yMax="1118">
      <contour>
        <pt x="168" y="0" on="1"/>
        <pt x="168" y="776" on="1"/>
        <pt x="168" y="951" on="0"/>
        <pt x="322" y="1118" on="0"/>
        <pt x="496" y="1118" on="1"/>
        <pt x="578" y="1118" on="0"/>
        <pt x="672" y="1085" on="1"/>
        <pt x="649" y="932" on="1"/>
        <pt x="623" y="940" on="0"/>
        <pt x="545" y="963" on="0"/>
        <pt x="489" y="963" on="1"/>
        <pt x="417" y="963" on="0"/>
        <pt x="346" y="873" on="0"/>
        <pt x="346" y="774" on="1"/>
        <pt x="346" y="0" on="1"/>
      </contour>
    </TTGlyph>
    <TTGlyph name="uni0283" xMin="-59" yMin="-492" xMax="588" yMax="1567">
      <contour>
        <pt x="354" y="-150" on="1"/>
        <pt x="354" y="-492" on="0"/>
        <pt x="84" y="-492" on="1"/>
        <pt x="-9" y="-492" on="0"/>
        <pt x="-59" y="-459" on="1"/>
        <pt x="-59" y="-322" on="1"/>
        <pt x="-12" y="-344" on="0"/>
        <pt x="47" y="-344" on="1"/>
        <pt x="119" y="-344" on="0"/>
        <pt x="174" y="-255" on="0"/>
        <pt x="174" y="-147" on="1"/>
        <pt x="174" y="1225" on="1"/>
        <pt x="174" y="1567" on="0"/>
        <pt x="444" y="1567" on="1"/>
        <pt x="536" y="1567" on="0"/>
        <pt x="588" y="1534" on="1"/>
        <pt x="588" y="1397" on="1"/>
        <pt x="571" y="1405" on="0"/>
        <pt x="509" y="1419" on="0"/>
        <pt x="481" y="1419" on="1"/>
        <pt x="409" y="1419" on="0"/>
        <pt x="354" y="1330" on="0"/>
        <pt x="354" y="1223" on="1"/>
      </contour>
    </TTGlyph>
    <TTGlyph name="uni0292" xMin="29" yMin="-492" xMax="950" yMax="1098">
      <contour>
        <pt x="446" y="467" on="1"/>
        <pt x="681" y="451" on="0"/>
        <pt x="950" y="203" on="0"/>
        <pt x="950" y="2" on="1"/>
        <pt x="950" y="-142" on="0"/>
        <pt x="816" y="-368" on="0"/>
        <pt x="567" y="-492" on="0"/>
        <pt x="408" y="-492" on="1"/>
        <pt x="169" y="-492" on="0"/>
        <pt x="29" y="-420" on="1"/>
        <pt x="29" y="-256" on="1"/>
        <pt x="212" y="-342" on="0"/>
        <pt x="416" y="-342" on="1"/>
        <pt x="578" y="-342" on="0"/>
        <pt x="770" y="-157" on="0"/>
        <pt x="770" y="-2" on="1"/>
        <pt x="770" y="155" on="0"/>
        <pt x="562" y="324" on="0"/>
        <pt x="356" y="324" on="1"/>
        <pt x="236" y="324" on="1"/>
        <pt x="236" y="449" on="1"/>
        <pt x="684" y="946" on="1"/>
        <pt x="57" y="946" on="1"/>
        <pt x="57" y="1098" on="1"/>
        <pt x="895" y="1098" on="1"/>
        <pt x="895" y="967" on="1"/>
      </contour>
    </TTGlyph>
    <TTGlyph name="uni02A4" xMin="113" yMin="-492" xMax="1939" yMax="1556">
      <contour>
        <pt x="1436" y="467" on="1"/>
        <pt x="1671" y="451" on="0"/>
        <pt x="1939" y="203" on="0"/>
        <pt x="1939" y="2" on="1"/>
        <pt x="1939" y="-142" on="0"/>
        <pt x="1805" y="-368" on="0"/>
        <pt x="1556" y="-492" on="0"/>
        <pt x="1397" y="-492" on="1"/>
        <pt x="1158" y="-492" on="0"/>
        <pt x="1018" y="-420" on="1"/>
        <pt x="1018" y="-256" on="1"/>
        <pt x="1201" y="-342" on="0"/>
        <pt x="1405" y="-342" on="1"/>
        <pt x="1567" y="-342" on="0"/>
        <pt x="1759" y="-157" on="0"/>
        <pt x="1759" y="-2" on="1"/>
        <pt x="1759" y="155" on="0"/>
        <pt x="1551" y="324" on="0"/>
        <pt x="1346" y="324" on="1"/>
        <pt x="1225" y="324" on="1"/>
        <pt x="1225" y="449" on="1"/>
        <pt x="1673" y="946" on="1"/>
        <pt x="1085" y="946" on="1"/>
        <pt x="1085" y="0" on="1"/>
        <pt x="940" y="0" on="1"/>
        <pt x="913" y="147" on="1"/>
        <pt x="905" y="147" on="1"/>
        <pt x="790" y="-20" on="0"/>
        <pt x="563" y="-20" on="1"/>
        <pt x="349" y="-20" on="0"/>
        <pt x="113" y="276" on="0"/>
        <pt x="113" y="547" on="1"/>
        <pt x="113" y="816" on="0"/>
        <pt x="350" y="1118" on="0"/>
        <pt x="565" y="1118" on="1"/>
        <pt x="786" y="1118" on="0"/>
        <pt x="905" y="956" on="1"/>
        <pt x="918" y="956" on="1"/>
        <pt x="915" y="976" on="0"/>
        <pt x="905" y="1097" on="0"/>
        <pt x="905" y="1118" on="1"/>
        <pt x="905" y="1556" on="1"/>
        <pt x="1085" y="1556" on="1"/>
        <pt x="1085" y="1098" on="1"/>
        <pt x="1884" y="1098" on="1"/>
        <pt x="1884" y="967" on="1"/>
      </contour>
      <contour>
        <pt x="592" y="129" on="1"/>
        <pt x="756" y="129" on="0"/>
        <pt x="907" y="308" on="0"/>
        <pt x="907" y="512" on="1"/>
        <pt x="907" y="545" on="1"/>
        <pt x="907" y="774" on="0"/>
        <pt x="754" y="969" on="0"/>
        <pt x="590" y="969" on="1"/>
        <pt x="451" y="969" on="0"/>
        <pt x="299" y="748" on="0"/>
        <pt x="299" y="543" on="1"/>
        <pt x="299" y="339" on="0"/>
        <pt x="450" y="129" on="0"/>
      </contour>
    </TTGlyph>
    <TTGlyph name="uni02A7" xMin="33" yMin="-492" xMax="1102" yMax="1567">
      <contour>
        <pt x="868" y="-150" on="1"/>
        <pt x="868" y="-492" on="0"/>
        <pt x="598" y="-492" on="1"/>
        <pt x="505" y="-492" on="0"/>
        <pt x="455" y="-459" on="1"/>
        <pt x="455" y="-322" on="1"/>
        <pt x="502" y="-344" on="0"/>
        <pt x="561" y="-344" on="1"/>
        <pt x="633" y="-344" on="0"/>
        <pt x="688" y="-255" on="0"/>
        <pt x="688" y="-147" on="1"/>
        <pt x="688" y="8" on="1"/>
        <pt x="663" y="-2" on="0"/>
        <pt x="561" y="-20" on="0"/>
        <pt x="510" y="-20" on="1"/>
        <pt x="188" y="-20" on="0"/>
        <pt x="188" y="319" on="1"/>
        <pt x="188" y="958" on="1"/>
        <pt x="33" y="958" on="1"/>
        <pt x="33" y="1044" on="1"/>
        <pt x="190" y="1116" on="1"/>
        <pt x="262" y="1350" on="1"/>
        <pt x="369" y="1350" on="1"/>
        <pt x="369" y="1098" on="1"/>
        <pt x="688" y="1098" on="1"/>
        <pt x="688" y="1225" on="1"/>
        <pt x="688" y="1567" on="0"/>
        <pt x="958" y="1567" on="1"/>
        <pt x="1050" y="1567" on="0"/>
        <pt x="1102" y="1534" on="1"/>
        <pt x="1102" y="1397" on="1"/>
        <pt x="1085" y="1405" on="0"/>
        <pt x="1023" y="1419" on="0"/>
        <pt x="995" y="1419" on="1"/>
        <pt x="923" y="1419" on="0"/>
        <pt x="868" y="1330" on="0"/>
        <pt x="868" y="1223" on="1"/>
      </contour>
      <contour>
        <pt x="541" y="127" on="1"/>
        <pt x="626" y="127" on="0"/>
        <pt x="688" y="147" on="1"/>
        <pt x="688" y="958" on="1"/>
        <pt x="369" y="958" on="1"/>
        <pt x="369" y="324" on="1"/>
        <pt x="369" y="229" on="0"/>
        <pt x="460" y="127" on="0"/>
      </contour>
    </TTGlyph>
    <TTGlyph name="uni02D0" xMin="-182" yMin="0" xMax="182" yMax="1098">
      <contour>
        <pt x="182" y="1098" on="1"/>
        <pt x="0" y="813" on="1"/>
        <pt x="-182" y="1098" on="1"/>
      </contour>
      <contour>
        <pt x="182" y="0" on="1"/>
        <pt x="-182" y="0" on="1"/>
        <pt x="0" y="285" on="1"/>
      </contour>
    </TTGlyph>
    <TTGlyph name="uni0302" xMin="-346" yMin="1241" xMax="346" yMax="1569">
      <contour>
        <pt x="-346" y="1264" on="1"/>
        <pt x="-318" y="1294" on="0"/>
        <pt x="-247" y="1370" on="0"/>
        <pt x="-176" y="1453" on="0"/>
        <pt x="-114" y="1534" on="0"/>
        <pt x="-94" y="1569" on="1"/>
        <pt x="90" y="1569" on="1"/>
        <pt x="108" y="1534" on="0"/>
        <pt x="171" y="1452" on="0"/>
        <pt x="243" y="1370" on="0"/>
        <pt x="317" y="1293" on="0"/>
        <pt x="346" y="1264" on="1"/>
        <pt x="346" y="1241" on="1"/>
        <pt x="219" y="1241" on="1"/>
        <pt x="165" y="1273" on="0"/>
        <pt x="52" y="1370" on="0"/>
        <pt x="-4" y="1425" on="1"/>
        <pt x="-60" y="1370" on="0"/>
        <pt x="-169" y="1275" on="0"/>
        <pt x="-223" y="1241" on="1"/>
        <pt x="-346" y="1241" on="1"/>
      </contour>
    </TTGlyph>
    <TTGlyph name="uni0304" xMin="-969" yMin="1241" xMax="-361" yMax="1386">
      <contour>
        <pt x="-969" y="1386" on="1"/>
        <pt x="-361" y="1386" on="1"/>
        <pt x="-361" y="1241" on="1"/>
        <pt x="-969" y="1241" on="1"/>
      </contour>
    </TTGlyph>
    <TTGlyph name="uni0305" xMin="-640" yMin="1702" xMax="640" yMax="1797">
      <contour>
        <pt x="-640" y="1797" on="1"/>
        <pt x="640" y="1797" on="1"/>
        <pt x="640" y="1702" on="1"/>
        <pt x="-640" y="1702" on="1"/>
      </contour>
    </TTGlyph>
    <TTGlyph name="uni0307" xMin="-106" yMin="1280" xMax="105" yMax="1509">
      <contour>
        <pt x="-106" y="1395" on="1"/>
        <pt x="-106" y="1455" on="0"/>
        <pt x="-45" y="1509" on="0"/>
        <pt x="0" y="1509" on="1"/>
        <pt x="42" y="1509" on="0"/>
        <pt x="105" y="1455" on="0"/>
        <pt x="105" y="1395" on="1"/>
        <pt x="105" y="1336" on="0"/>
        <pt x="42" y="1280" on="0"/>
        <pt x="0" y="1280" on="1"/>
        <pt x="-45" y="1280" on="0"/>
        <pt x="-106" y="1336" on="0"/>
      </contour>
    </TTGlyph>
    <TTGlyph name="uni0308" xMin="-553" yMin="1292" xMax="23" yMax="1495">
      <contour>
        <pt x="-553" y="1395" on="1"/>
        <pt x="-553" y="1448" on="0"/>
        <pt x="-497" y="1495" on="0"/>
        <pt x="-457" y="1495" on="1"/>
        <pt x="-418" y="1495" on="0"/>
        <pt x="-360" y="1448" on="0"/>
        <pt x="-360" y="1395" on="1"/>
        <pt x="-360" y="1342" on="0"/>
        <pt x="-418" y="1292" on="0"/>
        <pt x="-457" y="1292" on="1"/>
        <pt x="-497" y="1292" on="0"/>
        <pt x="-553" y="1342" on="0"/>
      </contour>
      <contour>
        <pt x="-168" y="1395" on="1"/>
        <pt x="-168" y="1448" on="0"/>
        <pt x="-112" y="1495" on="0"/>
        <pt x="-74" y="1495" on="1"/>
        <pt x="-35" y="1495" on="0"/>
        <pt x="23" y="1448" on="0"/>
        <pt x="23" y="1395" on="1"/>
        <pt x="23" y="1342" on="0"/>
        <pt x="-35" y="1292" on="0"/>
        <pt x="-74" y="1292" on="1"/>
        <pt x="-112" y="1292" on="0"/>
        <pt x="-168" y="1342" on="0"/>
      </contour>
    </TTGlyph>
    <TTGlyph name="uni033F" xMin="-640" yMin="1241" xMax="640" yMax="1486">
      <contour>
        <pt x="-640" y="1316" on="1"/>
        <pt x="640" y="1316" on="1"/>
        <pt x="640" y="1241" on="1"/>
        <pt x="-640" y="1241" on="1"/>
      </contour>
      <contour>
        <pt x="-640" y="1486" on="1"/>
        <pt x="640" y="1486" on="1"/>
        <pt x="640" y="1411" on="1"/>
        <pt x="-640" y="1411" on="1"/>
      </contour>
    </TTGlyph>
    <TTGlyph name="uni03E2" xMin="125" yMin="-399" xMax="1989" yMax="1497">
      <contour>
        <pt x="668" y="-20" on="1"/>
        <pt x="505" y="-20" on="0"/>
        <pt x="259" y="157" on="0"/>
        <pt x="125" y="491" on="0"/>
        <pt x="125" y="719" on="1"/>
        <pt x="125" y="1253" on="0"/>
        <pt x="555" y="1493" on="1"/>
        <pt x="659" y="1370" on="1"/>
        <pt x="483" y="1264" on="0"/>
        <pt x="317" y="946" on="0"/>
        <pt x="317" y="719" on="1"/>
        <pt x="317" y="544" on="0"/>
        <pt x="406" y="284" on="0"/>
        <pt x="569" y="147" on="0"/>
        <pt x="674" y="147" on="1"/>
        <pt x="830" y="147" on="0"/>
        <pt x="963" y="392" on="0"/>
        <pt x="963" y="653" on="1"/>
        <pt x="963" y="1421" on="1"/>
        <pt x="1147" y="1421" on="1"/>
        <pt x="1147" y="653" on="1"/>
        <pt x="1147" y="388" on="0"/>
        <pt x="1286" y="147" on="0"/>
        <pt x="1438" y="147" on="1"/>
        <pt x="1547" y="147" on="0"/>
        <pt x="1707" y="280" on="0"/>
        <pt x="1794" y="537" on="0"/>
        <pt x="1794" y="719" on="1"/>
        <pt x="1794" y="943" on="0"/>
        <pt x="1612" y="1284" on="0"/>
        <pt x="1444" y="1380" on="1"/>
        <pt x="1579" y="1497" on="1"/>
        <pt x="1778" y="1379" on="0"/>
        <pt x="1989" y="982" on="0"/>
        <pt x="1989" y="731" on="1"/>
        <pt x="1989" y="384" on="0"/>
        <pt x="1794" y="-127" on="0"/>
        <pt x="1422" y="-399" on="0"/>
        <pt x="1165" y="-399" on="1"/>
        <pt x="1041" y="-399" on="0"/>
        <pt x="965" y="-373" on="1"/>
        <pt x="965" y="-209" on="1"/>
        <pt x="1051" y="-236" on="0"/>
        <pt x="1163" y="-236" on="1"/>
        <pt x="1350" y="-236" on="0"/>
        <pt x="1623" y="-64" on="0"/>
        <pt x="1712" y="115" on="1"/>
        <pt x="1706" y="121" on="1"/>
        <pt x="1636" y="43" on="0"/>
        <pt x="1493" y="-20" on="0"/>
        <pt x="1399" y="-20" on="1"/>
        <pt x="1272" y="-20" on="0"/>
        <pt x="1097" y="134" on="0"/>
        <pt x="1057" y="289" on="1"/>
        <pt x="1051" y="289" on="1"/>
        <pt x="949" y="-20" on="0"/>
      </contour>
    </TTGlyph>
    <TTGlyph name="uni03E3" xMin="113" yMin="-389" xMax="1559" yMax="1147">
      <contour>
        <pt x="1559" y="545" on="1"/>
        <pt x="1559" y="269" on="0"/>
        <pt x="1402" y="-152" on="0"/>
        <pt x="1101" y="-389" on="0"/>
        <pt x="915" y="-389" on="1"/>
        <pt x="827" y="-389" on="0"/>
        <pt x="764" y="-369" on="1"/>
        <pt x="764" y="-205" on="1"/>
        <pt x="823" y="-223" on="0"/>
        <pt x="913" y="-223" on="1"/>
        <pt x="1062" y="-223" on="0"/>
        <pt x="1263" y="-75" on="0"/>
        <pt x="1339" y="96" on="1"/>
        <pt x="1333" y="100" on="1"/>
        <pt x="1285" y="42" on="0"/>
        <pt x="1173" y="-20" on="0"/>
        <pt x="1098" y="-20" on="1"/>
        <pt x="901" y="-20" on="0"/>
        <pt x="838" y="213" on="1"/>
        <pt x="831" y="213" on="1"/>
        <pt x="796" y="105" on="0"/>
        <pt x="635" y="-20" on="0"/>
        <pt x="510" y="-20" on="1"/>
        <pt x="395" y="-20" on="0"/>
        <pt x="214" y="117" on="0"/>
        <pt x="113" y="374" on="0"/>
        <pt x="113" y="547" on="1"/>
        <pt x="113" y="736" on="0"/>
        <pt x="255" y="1040" on="0"/>
        <pt x="397" y="1147" on="1"/>
        <pt x="526" y="1047" on="1"/>
        <pt x="403" y="950" on="0"/>
        <pt x="293" y="708" on="0"/>
        <pt x="293" y="547" on="1"/>
        <pt x="293" y="357" on="0"/>
        <pt x="417" y="139" on="0"/>
        <pt x="526" y="139" on="1"/>
        <pt x="633" y="139" on="0"/>
        <pt x="750" y="309" on="0"/>
        <pt x="750" y="457" on="1"/>
        <pt x="750" y="1098" on="1"/>
        <pt x="922" y="1098" on="1"/>
        <pt x="922" y="457" on="1"/>
        <pt x="922" y="305" on="0"/>
        <pt x="1031" y="139" on="0"/>
        <pt x="1128" y="139" on="1"/>
        <pt x="1198" y="139" on="0"/>
        <pt x="1313" y="239" on="0"/>
        <pt x="1378" y="426" on="0"/>
        <pt x="1378" y="553" on="1"/>
        <pt x="1378" y="845" on="0"/>
        <pt x="1151" y="1047" on="1"/>
        <pt x="1284" y="1147" on="1"/>
        <pt x="1559" y="918" on="0"/>
      </contour>
    </TTGlyph>
    <TTGlyph name="uni03E4" xMin="100" yMin="0" xMax="1196" yMax="1485">
      <contour>
        <pt x="1010" y="377" on="1"/>
        <pt x="935" y="336" on="0"/>
        <pt x="758" y="289" on="0"/>
        <pt x="672" y="289" on="1"/>
        <pt x="404" y="289" on="0"/>
        <pt x="100" y="599" on="0"/>
        <pt x="100" y="870" on="1"/>
        <pt x="100" y="1151" on="0"/>
        <pt x="392" y="1485" on="0"/>
        <pt x="641" y="1485" on="1"/>
        <pt x="641" y="1325" on="1"/>
        <pt x="476" y="1317" on="0"/>
        <pt x="295" y="1088" on="0"/>
        <pt x="295" y="891" on="1"/>
        <pt x="295" y="686" on="0"/>
        <pt x="498" y="451" on="0"/>
        <pt x="684" y="451" on="1"/>
        <pt x="781" y="451" on="0"/>
        <pt x="950" y="501" on="0"/>
        <pt x="1010" y="537" on="1"/>
        <pt x="1010" y="1462" on="1"/>
        <pt x="1196" y="1462" on="1"/>
        <pt x="1196" y="0" on="1"/>
        <pt x="1010" y="0" on="1"/>
      </contour>
    </TTGlyph>
    <TTGlyph name="uni03E5" xMin="113" yMin="-492" xMax="1094" yMax="1120">
      <contour>
        <pt x="913" y="125" on="1"/>
        <pt x="832" y="72" on="0"/>
        <pt x="682" y="29" on="0"/>
        <pt x="598" y="29" on="1"/>
        <pt x="451" y="29" on="0"/>
        <pt x="232" y="163" on="0"/>
        <pt x="113" y="403" on="0"/>
        <pt x="113" y="555" on="1"/>
        <pt x="113" y="804" on="0"/>
        <pt x="382" y="1104" on="0"/>
        <pt x="621" y="1120" on="1"/>
        <pt x="621" y="971" on="1"/>
        <pt x="464" y="956" on="0"/>
        <pt x="299" y="741" on="0"/>
        <pt x="299" y="559" on="1"/>
        <pt x="299" y="387" on="0"/>
        <pt x="467" y="182" on="0"/>
        <pt x="614" y="182" on="1"/>
        <pt x="699" y="182" on="0"/>
        <pt x="837" y="229" on="0"/>
        <pt x="913" y="287" on="1"/>
        <pt x="913" y="1098" on="1"/>
        <pt x="1094" y="1098" on="1"/>
        <pt x="1094" y="-492" on="1"/>
        <pt x="913" y="-492" on="1"/>
      </contour>
    </TTGlyph>
    <TTGlyph name="uni03E6" xMin="199" yMin="-475" xMax="1294" yMax="1462">
      <contour>
        <pt x="1294" y="592" on="1"/>
        <pt x="1294" y="437" on="0"/>
        <pt x="1204" y="185" on="0"/>
        <pt x="1030" y="-19" on="0"/>
        <pt x="809" y="-173" on="1"/>
        <pt x="687" y="-257" on="0"/>
        <pt x="584" y="-396" on="0"/>
        <pt x="584" y="-475" on="1"/>
        <pt x="399" y="-475" on="1"/>
        <pt x="399" y="-383" on="0"/>
        <pt x="459" y="-247" on="0"/>
        <pt x="558" y="-140" on="0"/>
        <pt x="684" y="-50" on="0"/>
        <pt x="815" y="41" on="0"/>
        <pt x="941" y="143" on="0"/>
        <pt x="1040" y="277" on="0"/>
        <pt x="1100" y="452" on="0"/>
        <pt x="1100" y="571" on="1"/>
        <pt x="1100" y="779" on="0"/>
        <pt x="892" y="1012" on="0"/>
        <pt x="711" y="1012" on="1"/>
        <pt x="627" y="1012" on="0"/>
        <pt x="452" y="966" on="0"/>
        <pt x="385" y="926" on="1"/>
        <pt x="385" y="0" on="1"/>
        <pt x="199" y="0" on="1"/>
        <pt x="199" y="1462" on="1"/>
        <pt x="385" y="1462" on="1"/>
        <pt x="385" y="1085" on="1"/>
        <pt x="454" y="1125" on="0"/>
        <pt x="642" y="1174" on="0"/>
        <pt x="723" y="1174" on="1"/>
        <pt x="990" y="1174" on="0"/>
        <pt x="1294" y="865" on="0"/>
      </contour>
    </TTGlyph>
    <TTGlyph name="uni03E7" xMin="174" yMin="-492" xMax="1059" yMax="1098">
      <contour>
        <pt x="872" y="279" on="1"/>
        <pt x="872" y="413" on="0"/>
        <pt x="731" y="575" on="0"/>
        <pt x="612" y="575" on="1"/>
        <pt x="468" y="575" on="0"/>
        <pt x="354" y="477" on="1"/>
        <pt x="354" y="0" on="1"/>
        <pt x="174" y="0" on="1"/>
        <pt x="174" y="1098" on="1"/>
        <pt x="354" y="1098" on="1"/>
        <pt x="354" y="637" on="1"/>
        <pt x="430" y="691" on="0"/>
        <pt x="574" y="733" on="0"/>
        <pt x="659" y="733" on="1"/>
        <pt x="843" y="733" on="0"/>
        <pt x="1059" y="492" on="0"/>
        <pt x="1059" y="293" on="1"/>
        <pt x="1059" y="162" on="0"/>
        <pt x="977" y="-45" on="0"/>
        <pt x="821" y="-196" on="0"/>
        <pt x="677" y="-280" on="1"/>
        <pt x="583" y="-336" on="0"/>
        <pt x="500" y="-433" on="0"/>
        <pt x="500" y="-492" on="1"/>
        <pt x="315" y="-492" on="1"/>
        <pt x="315" y="-421" on="0"/>
        <pt x="363" y="-319" on="0"/>
        <pt x="441" y="-242" on="0"/>
        <pt x="541" y="-181" on="0"/>
        <pt x="646" y="-118" on="0"/>
        <pt x="746" y="-46" on="0"/>
        <pt x="824" y="52" on="0"/>
        <pt x="872" y="186" on="0"/>
      </contour>
    </TTGlyph>
    <TTGlyph name="uni03E8" xMin="80" yMin="-203" xMax="1085" yMax="1483">
      <contour>
        <pt x="141" y="838" on="1"/>
        <pt x="112" y="886" on="0"/>
        <pt x="80" y="1006" on="0"/>
        <pt x="80" y="1059" on="1"/>
        <pt x="80" y="1186" on="0"/>
        <pt x="206" y="1378" on="0"/>
        <pt x="436" y="1483" on="0"/>
        <pt x="584" y="1483" on="1"/>
        <pt x="739" y="1483" on="0"/>
        <pt x="965" y="1367" on="0"/>
        <pt x="1085" y="1154" on="0"/>
        <pt x="1085" y="1016" on="1"/>
        <pt x="1085" y="759" on="0"/>
        <pt x="710" y="404" on="0"/>
        <pt x="322" y="293" on="1"/>
        <pt x="401" y="-27" on="0"/>
        <pt x="805" y="-27" on="1"/>
        <pt x="950" y="-27" on="0"/>
        <pt x="1047" y="4" on="1"/>
        <pt x="1047" y="-168" on="1"/>
        <pt x="998" y="-183" on="0"/>
        <pt x="850" y="-203" on="0"/>
        <pt x="801" y="-203" on="1"/>
        <pt x="503" y="-203" on="0"/>
        <pt x="144" y="108" on="0"/>
        <pt x="100" y="395" on="1"/>
        <pt x="508" y="488" on="0"/>
        <pt x="889" y="773" on="0"/>
        <pt x="889" y="983" on="1"/>
        <pt x="889" y="1143" on="0"/>
        <pt x="718" y="1321" on="0"/>
        <pt x="571" y="1321" on="1"/>
        <pt x="430" y="1321" on="0"/>
        <pt x="270" y="1178" on="0"/>
        <pt x="270" y="1053" on="1"/>
        <pt x="270" y="1018" on="0"/>
        <pt x="294" y="933" on="0"/>
        <pt x="311" y="903" on="1"/>
      </contour>
    </TTGlyph>
    <TTGlyph name="uni03E9" xMin="102" yMin="-274" xMax="987" yMax="1118">
      <contour>
        <pt x="184" y="571" on="1"/>
        <pt x="129" y="660" on="0"/>
        <pt x="129" y="758" on="1"/>
        <pt x="129" y="859" on="0"/>
        <pt x="235" y="1024" on="0"/>
        <pt x="430" y="1118" on="0"/>
        <pt x="563" y="1118" on="1"/>
        <pt x="693" y="1118" on="0"/>
        <pt x="873" y="1025" on="0"/>
        <pt x="969" y="865" on="0"/>
        <pt x="969" y="764" on="1"/>
        <pt x="969" y="628" on="0"/>
        <pt x="833" y="426" on="0"/>
        <pt x="565" y="273" on="0"/>
        <pt x="293" y="193" on="1"/>
        <pt x="373" y="-125" on="0"/>
        <pt x="725" y="-125" on="1"/>
        <pt x="786" y="-125" on="0"/>
        <pt x="939" y="-96" on="0"/>
        <pt x="987" y="-72" on="1"/>
        <pt x="987" y="-225" on="1"/>
        <pt x="931" y="-247" on="0"/>
        <pt x="772" y="-274" on="0"/>
        <pt x="700" y="-274" on="1"/>
        <pt x="444" y="-274" on="0"/>
        <pt x="148" y="8" on="0"/>
        <pt x="102" y="293" on="1"/>
        <pt x="465" y="374" on="0"/>
        <pt x="786" y="586" on="0"/>
        <pt x="786" y="743" on="1"/>
        <pt x="786" y="845" on="0"/>
        <pt x="662" y="971" on="0"/>
        <pt x="551" y="971" on="1"/>
        <pt x="435" y="971" on="0"/>
        <pt x="307" y="859" on="0"/>
        <pt x="307" y="754" on="1"/>
        <pt x="307" y="695" on="0"/>
        <pt x="344" y="633" on="1"/>
      </contour>
    </TTGlyph>
    <TTGlyph name="uni03EA" xMin="33" yMin="0" xMax="1636" yMax="1462">
      <contour>
        <pt x="590" y="162" on="1"/>
        <pt x="1278" y="162" on="1"/>
        <pt x="944" y="733" on="1"/>
      </contour>
      <contour>
        <pt x="1227" y="1460" on="1"/>
        <pt x="1448" y="1460" on="1"/>
        <pt x="1067" y="883" on="1"/>
        <pt x="1382" y="350" on="1"/>
        <pt x="1452" y="234" on="0"/>
        <pt x="1548" y="162" on="0"/>
        <pt x="1636" y="162" on="1"/>
        <pt x="1636" y="0" on="1"/>
        <pt x="319" y="0" on="1"/>
        <pt x="174" y="0" on="0"/>
        <pt x="33" y="139" on="0"/>
        <pt x="33" y="291" on="1"/>
        <pt x="207" y="291" on="1"/>
        <pt x="207" y="219" on="0"/>
        <pt x="275" y="162" on="0"/>
        <pt x="377" y="162" on="1"/>
        <pt x="827" y="868" on="1"/>
        <pt x="659" y="1137" on="1"/>
        <pt x="597" y="1234" on="0"/>
        <pt x="483" y="1300" on="0"/>
        <pt x="389" y="1300" on="1"/>
        <pt x="389" y="1462" on="1"/>
        <pt x="430" y="1462" on="1"/>
        <pt x="560" y="1462" on="0"/>
        <pt x="724" y="1374" on="0"/>
        <pt x="793" y="1268" on="1"/>
        <pt x="948" y="1022" on="1"/>
      </contour>
    </TTGlyph>
    <TTGlyph name="uni03EB" xMin="25" yMin="0" xMax="1339" yMax="1100">
      <contour>
        <pt x="506" y="145" on="1"/>
        <pt x="1006" y="145" on="1"/>
        <pt x="756" y="500" on="1"/>
      </contour>
      <contour>
        <pt x="1339" y="145" on="1"/>
        <pt x="1339" y="0" on="1"/>
        <pt x="240" y="0" on="1"/>
        <pt x="25" y="0" on="0"/>
        <pt x="25" y="244" on="1"/>
        <pt x="174" y="244" on="1"/>
        <pt x="174" y="193" on="0"/>
        <pt x="225" y="145" on="0"/>
        <pt x="299" y="145" on="1"/>
        <pt x="651" y="623" on="1"/>
        <pt x="492" y="844" on="1"/>
        <pt x="442" y="913" on="0"/>
        <pt x="362" y="958" on="0"/>
        <pt x="291" y="958" on="1"/>
        <pt x="291" y="1100" on="1"/>
        <pt x="340" y="1100" on="1"/>
        <pt x="439" y="1100" on="0"/>
        <pt x="572" y="1025" on="0"/>
        <pt x="635" y="932" on="1"/>
        <pt x="760" y="752" on="1"/>
        <pt x="1006" y="1098" on="1"/>
        <pt x="1204" y="1098" on="1"/>
        <pt x="872" y="635" on="1"/>
        <pt x="1130" y="276" on="1"/>
        <pt x="1189" y="194" on="0"/>
        <pt x="1273" y="145" on="0"/>
      </contour>
    </TTGlyph>
    <TTGlyph name="uni03EC" xMin="125" yMin="-20" xMax="1423" yMax="1610">
      <contour>
        <pt x="346" y="965" on="1"/>
        <pt x="350" y="961" on="1"/>
        <pt x="427" y="1046" on="0"/>
        <pt x="672" y="1141" on="0"/>
        <pt x="807" y="1141" on="1"/>
        <pt x="973" y="1141" on="0"/>
        <pt x="1221" y="1003" on="0"/>
        <pt x="1356" y="748" on="0"/>
        <pt x="1356" y="586" on="1"/>
        <pt x="1356" y="415" on="0"/>
        <pt x="1194" y="135" on="0"/>
        <pt x="902" y="-20" on="0"/>
        <pt x="723" y="-20" on="1"/>
        <pt x="545" y="-20" on="0"/>
        <pt x="273" y="144" on="0"/>
        <pt x="125" y="447" on="0"/>
        <pt x="125" y="647" on="1"/>
        <pt x="125" y="1042" on="0"/>
        <pt x="511" y="1472" on="0"/>
        <pt x="903" y="1518" on="1"/>
        <pt x="1273" y="1558" on="0"/>
        <pt x="1423" y="1610" on="1"/>
        <pt x="1423" y="1442" on="1"/>
        <pt x="1343" y="1419" on="0"/>
        <pt x="1138" y="1384" on="0"/>
        <pt x="885" y="1352" on="1"/>
        <pt x="664" y="1326" on="0"/>
        <pt x="396" y="1135" on="0"/>
      </contour>
      <contour>
        <pt x="727" y="139" on="1"/>
        <pt x="929" y="139" on="0"/>
        <pt x="1161" y="374" on="0"/>
        <pt x="1161" y="575" on="1"/>
        <pt x="1161" y="764" on="0"/>
        <pt x="956" y="979" on="0"/>
        <pt x="762" y="979" on="1"/>
        <pt x="558" y="979" on="0"/>
        <pt x="319" y="755" on="0"/>
        <pt x="319" y="567" on="1"/>
        <pt x="319" y="448" on="0"/>
        <pt x="424" y="251" on="0"/>
        <pt x="610" y="139" on="0"/>
      </contour>
    </TTGlyph>
    <TTGlyph name="uni03ED" xMin="113" yMin="-20" xMax="1329" yMax="1389">
      <contour>
        <pt x="621" y="-20" on="1"/>
        <pt x="464" y="-20" on="0"/>
        <pt x="234" y="110" on="0"/>
        <pt x="113" y="348" on="0"/>
        <pt x="113" y="506" on="1"/>
        <pt x="113" y="764" on="0"/>
        <pt x="449" y="1116" on="0"/>
        <pt x="768" y="1192" on="1"/>
        <pt x="984" y="1243" on="0"/>
        <pt x="1254" y="1338" on="0"/>
        <pt x="1329" y="1389" on="1"/>
        <pt x="1329" y="1227" on="1"/>
        <pt x="1235" y="1174" on="0"/>
        <pt x="983" y="1092" on="0"/>
        <pt x="805" y="1049" on="1"/>
        <pt x="697" y="1018" on="0"/>
        <pt x="674" y="1010" on="1"/>
        <pt x="887" y="990" on="0"/>
        <pt x="1130" y="714" on="0"/>
        <pt x="1130" y="492" on="1"/>
        <pt x="1130" y="350" on="0"/>
        <pt x="1001" y="114" on="0"/>
        <pt x="767" y="-20" on="0"/>
      </contour>
      <contour>
        <pt x="940" y="479" on="1"/>
        <pt x="940" y="688" on="0"/>
        <pt x="715" y="908" on="0"/>
        <pt x="510" y="908" on="1"/>
        <pt x="475" y="907" on="1"/>
        <pt x="381" y="836" on="0"/>
        <pt x="299" y="643" on="0"/>
        <pt x="299" y="516" on="1"/>
        <pt x="299" y="337" on="0"/>
        <pt x="472" y="129" on="0"/>
        <pt x="621" y="129" on="1"/>
        <pt x="769" y="129" on="0"/>
        <pt x="940" y="319" on="0"/>
      </contour>
    </TTGlyph>
    <TTGlyph name="uni03EE" xMin="23" yMin="0" xMax="1227" yMax="1462">
      <contour>
        <pt x="717" y="0" on="1"/>
        <pt x="532" y="0" on="1"/>
        <pt x="532" y="1079" on="1"/>
        <pt x="324" y="1079" on="1"/>
        <pt x="199" y="1079" on="0"/>
        <pt x="199" y="948" on="1"/>
        <pt x="23" y="948" on="1"/>
        <pt x="23" y="1241" on="0"/>
        <pt x="313" y="1241" on="1"/>
        <pt x="532" y="1241" on="1"/>
        <pt x="532" y="1462" on="1"/>
        <pt x="717" y="1462" on="1"/>
        <pt x="717" y="1241" on="1"/>
        <pt x="936" y="1241" on="1"/>
        <pt x="1227" y="1241" on="0"/>
        <pt x="1227" y="948" on="1"/>
        <pt x="1051" y="948" on="1"/>
        <pt x="1051" y="1079" on="0"/>
        <pt x="926" y="1079" on="1"/>
        <pt x="717" y="1079" on="1"/>
      </contour>
    </TTGlyph>
    <TTGlyph name="uni03EF" xMin="33" yMin="-289" xMax="1128" yMax="1364">
      <contour>
        <pt x="885" y="1098" on="1"/>
        <pt x="1001" y="1098" on="0"/>
        <pt x="1128" y="974" on="0"/>
        <pt x="1128" y="850" on="1"/>
        <pt x="967" y="850" on="1"/>
        <pt x="967" y="946" on="0"/>
        <pt x="870" y="946" on="1"/>
        <pt x="672" y="946" on="1"/>
        <pt x="672" y="-289" on="1"/>
        <pt x="489" y="-289" on="1"/>
        <pt x="489" y="946" on="1"/>
        <pt x="291" y="946" on="1"/>
        <pt x="195" y="946" on="0"/>
        <pt x="195" y="850" on="1"/>
        <pt x="33" y="850" on="1"/>
        <pt x="33" y="973" on="0"/>
        <pt x="160" y="1098" on="0"/>
        <pt x="276" y="1098" on="1"/>
        <pt x="489" y="1098" on="1"/>
        <pt x="489" y="1364" on="1"/>
        <pt x="672" y="1364" on="1"/>
        <pt x="672" y="1098" on="1"/>
      </contour>
    </TTGlyph>
    <TTGlyph name="uni1DCD" xMin="-1690" yMin="1241" xMax="-84" yMax="1606">
      <contour>
        <pt x="-305" y="1241" on="1"/>
        <pt x="-326" y="1285" on="0"/>
        <pt x="-412" y="1366" on="0"/>
        <pt x="-552" y="1427" on="0"/>
        <pt x="-752" y="1464" on="0"/>
        <pt x="-887" y="1464" on="1"/>
        <pt x="-1022" y="1464" on="0"/>
        <pt x="-1221" y="1427" on="0"/>
        <pt x="-1361" y="1366" on="0"/>
        <pt x="-1447" y="1285" on="0"/>
        <pt x="-1468" y="1241" on="1"/>
        <pt x="-1690" y="1241" on="1"/>
        <pt x="-1657" y="1313" on="0"/>
        <pt x="-1533" y="1446" on="0"/>
        <pt x="-1339" y="1546" on="0"/>
        <pt x="-1067" y="1606" on="0"/>
        <pt x="-887" y="1606" on="1"/>
        <pt x="-707" y="1606" on="0"/>
        <pt x="-435" y="1546" on="0"/>
        <pt x="-241" y="1446" on="0"/>
        <pt x="-117" y="1313" on="0"/>
        <pt x="-84" y="1241" on="1"/>
      </contour>
    </TTGlyph>
    <TTGlyph name="uni2C80" xMin="43" yMin="-29" xMax="1321" yMax="1462">
      <contour>
        <pt x="281" y="1294" on="1"/>
        <pt x="281" y="1462" on="1"/>
        <pt x="319" y="1462" on="1"/>
        <pt x="495" y="1462" on="0"/>
        <pt x="689" y="1341" on="0"/>
        <pt x="758" y="1184" on="1"/>
        <pt x="1118" y="360" on="1"/>
        <pt x="1160" y="267" on="0"/>
        <pt x="1258" y="176" on="0"/>
        <pt x="1321" y="176" on="1"/>
        <pt x="1321" y="0" on="1"/>
        <pt x="1282" y="0" on="1"/>
        <pt x="1175" y="0" on="0"/>
        <pt x="1042" y="84" on="0"/>
        <pt x="999" y="172" on="1"/>
        <pt x="981" y="209" on="1"/>
        <pt x="885" y="94" on="0"/>
        <pt x="632" y="-29" on="0"/>
        <pt x="489" y="-29" on="1"/>
        <pt x="166" y="-29" on="0"/>
        <pt x="43" y="231" on="1"/>
        <pt x="707" y="813" on="1"/>
        <pt x="596" y="1079" on="1"/>
        <pt x="543" y="1205" on="0"/>
        <pt x="410" y="1294" on="0"/>
      </contour>
      <contour>
        <pt x="492" y="139" on="1"/>
        <pt x="611" y="139" on="0"/>
        <pt x="829" y="248" on="0"/>
        <pt x="913" y="350" on="1"/>
        <pt x="776" y="657" on="1"/>
        <pt x="285" y="229" on="1"/>
        <pt x="311" y="191" on="0"/>
        <pt x="433" y="139" on="0"/>
      </contour>
    </TTGlyph>
    <TTGlyph name="uni2C81" xMin="41" yMin="-20" xMax="1186" yMax="1098">
      <contour>
        <pt x="272" y="944" on="1"/>
        <pt x="272" y="1098" on="1"/>
        <pt x="303" y="1098" on="1"/>
        <pt x="446" y="1098" on="0"/>
        <pt x="621" y="1004" on="0"/>
        <pt x="686" y="883" on="1"/>
        <pt x="1010" y="274" on="1"/>
        <pt x="1045" y="209" on="0"/>
        <pt x="1122" y="152" on="0"/>
        <pt x="1186" y="152" on="1"/>
        <pt x="1186" y="0" on="1"/>
        <pt x="1145" y="0" on="1"/>
        <pt x="1087" y="0" on="0"/>
        <pt x="1000" y="28" on="0"/>
        <pt x="929" y="86" on="0"/>
        <pt x="874" y="168" on="1"/>
        <pt x="770" y="67" on="0"/>
        <pt x="559" y="-20" on="0"/>
        <pt x="432" y="-20" on="1"/>
        <pt x="294" y="-20" on="0"/>
        <pt x="88" y="101" on="0"/>
        <pt x="41" y="205" on="1"/>
        <pt x="616" y="643" on="1"/>
        <pt x="537" y="791" on="1"/>
        <pt x="487" y="879" on="0"/>
        <pt x="367" y="944" on="0"/>
      </contour>
      <contour>
        <pt x="465" y="131" on="1"/>
        <pt x="652" y="131" on="0"/>
        <pt x="809" y="281" on="1"/>
        <pt x="684" y="516" on="1"/>
        <pt x="281" y="211" on="1"/>
        <pt x="301" y="180" on="0"/>
        <pt x="413" y="131" on="0"/>
      </contour>
    </TTGlyph>
    <TTGlyph name="uni2C82" xMin="199" yMin="0" xMax="1221" yMax="1462">
      <contour>
        <pt x="199" y="1462" on="1"/>
        <pt x="616" y="1462" on="1"/>
        <pt x="910" y="1462" on="0"/>
        <pt x="1171" y="1287" on="0"/>
        <pt x="1171" y="1100" on="1"/>
        <pt x="1171" y="970" on="0"/>
        <pt x="1029" y="801" on="0"/>
        <pt x="893" y="776" on="1"/>
        <pt x="893" y="766" on="1"/>
        <pt x="1062" y="737" on="0"/>
        <pt x="1221" y="561" on="0"/>
        <pt x="1221" y="416" on="1"/>
        <pt x="1221" y="220" on="0"/>
        <pt x="953" y="0" on="0"/>
        <pt x="713" y="0" on="1"/>
        <pt x="199" y="0" on="1"/>
      </contour>
      <contour>
        <pt x="383" y="840" on="1"/>
        <pt x="653" y="840" on="1"/>
        <pt x="825" y="840" on="0"/>
        <pt x="981" y="950" on="0"/>
        <pt x="981" y="1079" on="1"/>
        <pt x="981" y="1199" on="0"/>
        <pt x="810" y="1305" on="0"/>
        <pt x="625" y="1305" on="1"/>
        <pt x="383" y="1305" on="1"/>
      </contour>
      <contour>
        <pt x="383" y="686" on="1"/>
        <pt x="383" y="156" on="1"/>
        <pt x="678" y="156" on="1"/>
        <pt x="854" y="156" on="0"/>
        <pt x="1024" y="292" on="0"/>
        <pt x="1024" y="430" on="1"/>
        <pt x="1024" y="561" on="0"/>
        <pt x="844" y="686" on="0"/>
        <pt x="664" y="686" on="1"/>
      </contour>
    </TTGlyph>
    <TTGlyph name="uni2C83" xMin="174" yMin="0" xMax="1112" yMax="1098">
      <contour>
        <pt x="1077" y="821" on="1"/>
        <pt x="1077" y="715" on="0"/>
        <pt x="957" y="604" on="0"/>
        <pt x="846" y="584" on="1"/>
        <pt x="846" y="575" on="1"/>
        <pt x="985" y="556" on="0"/>
        <pt x="1112" y="429" on="0"/>
        <pt x="1112" y="322" on="1"/>
        <pt x="1112" y="166" on="0"/>
        <pt x="883" y="0" on="0"/>
        <pt x="668" y="0" on="1"/>
        <pt x="174" y="0" on="1"/>
        <pt x="174" y="1098" on="1"/>
        <pt x="666" y="1098" on="1"/>
        <pt x="1077" y="1098" on="0"/>
      </contour>
      <contour>
        <pt x="932" y="332" on="1"/>
        <pt x="932" y="424" on="0"/>
        <pt x="788" y="498" on="0"/>
        <pt x="649" y="498" on="1"/>
        <pt x="354" y="498" on="1"/>
        <pt x="354" y="145" on="1"/>
        <pt x="653" y="145" on="1"/>
        <pt x="932" y="145" on="0"/>
      </contour>
      <contour>
        <pt x="901" y="805" on="1"/>
        <pt x="901" y="882" on="0"/>
        <pt x="782" y="948" on="0"/>
        <pt x="662" y="948" on="1"/>
        <pt x="354" y="948" on="1"/>
        <pt x="354" y="647" on="1"/>
        <pt x="629" y="647" on="1"/>
        <pt x="776" y="647" on="0"/>
        <pt x="901" y="720" on="0"/>
      </contour>
    </TTGlyph>
    <TTGlyph name="uni2C84" xMin="199" yMin="0" xMax="1065" yMax="1462">
      <contour>
        <pt x="758" y="1462" on="1"/>
        <pt x="876" y="1462" on="0"/>
        <pt x="1007" y="1403" on="0"/>
        <pt x="1065" y="1288" on="0"/>
        <pt x="1065" y="1147" on="1"/>
        <pt x="891" y="1147" on="1"/>
        <pt x="891" y="1233" on="0"/>
        <pt x="808" y="1298" on="0"/>
        <pt x="698" y="1298" on="1"/>
        <pt x="383" y="1298" on="1"/>
        <pt x="383" y="0" on="1"/>
        <pt x="199" y="0" on="1"/>
        <pt x="199" y="1462" on="1"/>
      </contour>
    </TTGlyph>
    <TTGlyph name="uni2C85" xMin="174" yMin="0" xMax="848" yMax="1098">
      <contour>
        <pt x="571" y="1098" on="1"/>
        <pt x="678" y="1098" on="0"/>
        <pt x="796" y="1043" on="0"/>
        <pt x="848" y="936" on="0"/>
        <pt x="848" y="807" on="1"/>
        <pt x="690" y="807" on="1"/>
        <pt x="690" y="885" on="0"/>
        <pt x="616" y="946" on="0"/>
        <pt x="518" y="946" on="1"/>
        <pt x="354" y="946" on="1"/>
        <pt x="354" y="0" on="1"/>
        <pt x="174" y="0" on="1"/>
        <pt x="174" y="1098" on="1"/>
      </contour>
    </TTGlyph>
    <TTGlyph name="uni2C86" xMin="33" yMin="0" xMax="1636" yMax="1462">
      <contour>
        <pt x="561" y="162" on="1"/>
        <pt x="1292" y="162" on="1"/>
        <pt x="938" y="971" on="1"/>
      </contour>
      <contour>
        <pt x="854" y="1135" on="1"/>
        <pt x="812" y="1218" on="0"/>
        <pt x="744" y="1277" on="0"/>
        <pt x="643" y="1300" on="0"/>
        <pt x="555" y="1300" on="1"/>
        <pt x="555" y="1462" on="1"/>
        <pt x="594" y="1462" on="1"/>
        <pt x="767" y="1462" on="0"/>
        <pt x="958" y="1339" on="0"/>
        <pt x="1028" y="1180" on="1"/>
        <pt x="1401" y="342" on="1"/>
        <pt x="1435" y="266" on="0"/>
        <pt x="1489" y="193" on="0"/>
        <pt x="1557" y="162" on="0"/>
        <pt x="1636" y="162" on="1"/>
        <pt x="1636" y="0" on="1"/>
        <pt x="319" y="0" on="1"/>
        <pt x="174" y="0" on="0"/>
        <pt x="33" y="139" on="0"/>
        <pt x="33" y="291" on="1"/>
        <pt x="207" y="291" on="1"/>
        <pt x="207" y="219" on="0"/>
        <pt x="275" y="162" on="0"/>
        <pt x="377" y="162" on="1"/>
      </contour>
    </TTGlyph>
    <TTGlyph name="uni2C87" xMin="20" yMin="0" xMax="1327" yMax="1100">
      <contour>
        <pt x="485" y="145" on="1"/>
        <pt x="1014" y="145" on="1"/>
        <pt x="758" y="672" on="1"/>
      </contour>
      <contour>
        <pt x="670" y="823" on="1"/>
        <pt x="635" y="903" on="0"/>
        <pt x="541" y="954" on="0"/>
        <pt x="420" y="954" on="1"/>
        <pt x="420" y="1100" on="1"/>
        <pt x="500" y="1100" on="1"/>
        <pt x="626" y="1100" on="0"/>
        <pt x="789" y="995" on="0"/>
        <pt x="850" y="872" on="1"/>
        <pt x="1133" y="276" on="1"/>
        <pt x="1157" y="225" on="0"/>
        <pt x="1206" y="169" on="0"/>
        <pt x="1264" y="145" on="0"/>
        <pt x="1327" y="145" on="1"/>
        <pt x="1327" y="0" on="1"/>
        <pt x="236" y="0" on="1"/>
        <pt x="20" y="0" on="0"/>
        <pt x="20" y="244" on="1"/>
        <pt x="174" y="244" on="1"/>
        <pt x="174" y="193" on="0"/>
        <pt x="225" y="145" on="0"/>
        <pt x="299" y="145" on="1"/>
      </contour>
    </TTGlyph>
    <TTGlyph name="uni2C88" xMin="125" yMin="-20" xMax="1257" yMax="1485">
      <contour>
        <pt x="834" y="1321" on="1"/>
        <pt x="614" y="1321" on="0"/>
        <pt x="350" y="1076" on="0"/>
        <pt x="324" y="842" on="1"/>
        <pt x="1036" y="842" on="1"/>
        <pt x="1036" y="682" on="1"/>
        <pt x="319" y="682" on="1"/>
        <pt x="331" y="415" on="0"/>
        <pt x="592" y="141" on="0"/>
        <pt x="834" y="141" on="1"/>
        <pt x="998" y="141" on="0"/>
        <pt x="1200" y="199" on="1"/>
        <pt x="1200" y="39" on="1"/>
        <pt x="1042" y="-20" on="0"/>
        <pt x="809" y="-20" on="1"/>
        <pt x="476" y="-20" on="0"/>
        <pt x="125" y="368" on="0"/>
        <pt x="125" y="733" on="1"/>
        <pt x="125" y="1082" on="0"/>
        <pt x="501" y="1485" on="0"/>
        <pt x="838" y="1485" on="1"/>
        <pt x="1073" y="1485" on="0"/>
        <pt x="1257" y="1395" on="1"/>
        <pt x="1182" y="1237" on="1"/>
        <pt x="1007" y="1321" on="0"/>
      </contour>
    </TTGlyph>
    <TTGlyph name="uni2C89" xMin="113" yMin="-20" xMax="944" yMax="1118">
      <contour>
        <pt x="635" y="-20" on="1"/>
        <pt x="385" y="-20" on="0"/>
        <pt x="113" y="269" on="0"/>
        <pt x="113" y="543" on="1"/>
        <pt x="113" y="822" on="0"/>
        <pt x="388" y="1118" on="0"/>
        <pt x="641" y="1118" on="1"/>
        <pt x="725" y="1118" on="0"/>
        <pt x="885" y="1085" on="0"/>
        <pt x="944" y="1059" on="1"/>
        <pt x="891" y="911" on="1"/>
        <pt x="754" y="963" on="0"/>
        <pt x="637" y="963" on="1"/>
        <pt x="479" y="963" on="0"/>
        <pt x="316" y="803" on="0"/>
        <pt x="299" y="639" on="1"/>
        <pt x="838" y="639" on="1"/>
        <pt x="838" y="492" on="1"/>
        <pt x="297" y="492" on="1"/>
        <pt x="306" y="308" on="0"/>
        <pt x="470" y="133" on="0"/>
        <pt x="631" y="133" on="1"/>
        <pt x="724" y="133" on="0"/>
        <pt x="866" y="170" on="0"/>
        <pt x="928" y="195" on="1"/>
        <pt x="928" y="39" on="1"/>
        <pt x="808" y="-20" on="0"/>
      </contour>
    </TTGlyph>
    <TTGlyph name="uni2C8A" xMin="92" yMin="-143" xMax="1188" yMax="1530">
      <contour>
        <pt x="440" y="23" on="1"/>
        <pt x="486" y="16" on="0"/>
        <pt x="549" y="16" on="1"/>
        <pt x="653" y="16" on="0"/>
        <pt x="776" y="129" on="0"/>
        <pt x="776" y="227" on="1"/>
        <pt x="776" y="293" on="0"/>
        <pt x="717" y="392" on="0"/>
        <pt x="621" y="472" on="0"/>
        <pt x="498" y="541" on="0"/>
        <pt x="370" y="612" on="0"/>
        <pt x="247" y="694" on="0"/>
        <pt x="151" y="800" on="0"/>
        <pt x="92" y="937" on="0"/>
        <pt x="92" y="1028" on="1"/>
        <pt x="92" y="1156" on="0"/>
        <pt x="211" y="1359" on="0"/>
        <pt x="432" y="1473" on="0"/>
        <pt x="573" y="1473" on="1"/>
        <pt x="653" y="1473" on="0"/>
        <pt x="739" y="1457" on="1"/>
        <pt x="824" y="1440" on="0"/>
        <pt x="864" y="1440" on="1"/>
        <pt x="942" y="1440" on="0"/>
        <pt x="1029" y="1484" on="0"/>
        <pt x="1061" y="1530" on="1"/>
        <pt x="1188" y="1440" on="1"/>
        <pt x="1132" y="1355" on="0"/>
        <pt x="985" y="1280" on="0"/>
        <pt x="870" y="1280" on="1"/>
        <pt x="811" y="1280" on="0"/>
        <pt x="720" y="1297" on="1"/>
        <pt x="629" y="1313" on="0"/>
        <pt x="561" y="1313" on="1"/>
        <pt x="430" y="1313" on="0"/>
        <pt x="279" y="1162" on="0"/>
        <pt x="279" y="1030" on="1"/>
        <pt x="279" y="963" on="0"/>
        <pt x="338" y="862" on="0"/>
        <pt x="434" y="781" on="0"/>
        <pt x="556" y="712" on="0"/>
        <pt x="684" y="642" on="0"/>
        <pt x="806" y="563" on="0"/>
        <pt x="902" y="461" on="0"/>
        <pt x="961" y="330" on="0"/>
        <pt x="961" y="242" on="1"/>
        <pt x="961" y="73" on="0"/>
        <pt x="728" y="-143" on="0"/>
        <pt x="541" y="-143" on="1"/>
        <pt x="490" y="-143" on="1"/>
        <pt x="440" y="-141" on="1"/>
      </contour>
    </TTGlyph>
    <TTGlyph name="uni2C8B" xMin="98" yMin="-360" xMax="1051" yMax="1169">
      <contour>
        <pt x="270" y="723" on="1"/>
        <pt x="270" y="659" on="0"/>
        <pt x="326" y="562" on="0"/>
        <pt x="427" y="479" on="0"/>
        <pt x="572" y="400" on="1"/>
        <pt x="695" y="332" on="0"/>
        <pt x="812" y="224" on="0"/>
        <pt x="874" y="95" on="0"/>
        <pt x="874" y="14" on="1"/>
        <pt x="874" y="-85" on="0"/>
        <pt x="776" y="-259" on="0"/>
        <pt x="600" y="-360" on="0"/>
        <pt x="487" y="-360" on="1"/>
        <pt x="452" y="-360" on="0"/>
        <pt x="430" y="-356" on="1"/>
        <pt x="430" y="-201" on="1"/>
        <pt x="462" y="-205" on="0"/>
        <pt x="485" y="-205" on="1"/>
        <pt x="579" y="-205" on="0"/>
        <pt x="690" y="-90" on="0"/>
        <pt x="690" y="2" on="1"/>
        <pt x="690" y="60" on="0"/>
        <pt x="639" y="147" on="0"/>
        <pt x="556" y="218" on="0"/>
        <pt x="449" y="280" on="0"/>
        <pt x="338" y="345" on="0"/>
        <pt x="232" y="419" on="0"/>
        <pt x="149" y="516" on="0"/>
        <pt x="98" y="641" on="0"/>
        <pt x="98" y="725" on="1"/>
        <pt x="98" y="896" on="0"/>
        <pt x="328" y="1112" on="0"/>
        <pt x="506" y="1112" on="1"/>
        <pt x="570" y="1112" on="0"/>
        <pt x="651" y="1099" on="1"/>
        <pt x="732" y="1085" on="0"/>
        <pt x="778" y="1085" on="1"/>
        <pt x="828" y="1085" on="0"/>
        <pt x="901" y="1123" on="0"/>
        <pt x="932" y="1169" on="1"/>
        <pt x="1051" y="1087" on="1"/>
        <pt x="998" y="1004" on="0"/>
        <pt x="875" y="938" on="0"/>
        <pt x="793" y="938" on="1"/>
        <pt x="731" y="938" on="0"/>
        <pt x="642" y="951" on="1"/>
        <pt x="553" y="963" on="0"/>
        <pt x="510" y="963" on="1"/>
        <pt x="400" y="963" on="0"/>
        <pt x="270" y="830" on="0"/>
      </contour>
    </TTGlyph>
    <TTGlyph name="uni2C8C" xMin="78" yMin="0" xMax="1092" yMax="1462">
      <contour>
        <pt x="1092" y="0" on="1"/>
        <pt x="78" y="0" on="1"/>
        <pt x="78" y="139" on="1"/>
        <pt x="848" y="1298" on="1"/>
        <pt x="102" y="1298" on="1"/>
        <pt x="102" y="1462" on="1"/>
        <pt x="1071" y="1462" on="1"/>
        <pt x="1071" y="1323" on="1"/>
        <pt x="301" y="164" on="1"/>
        <pt x="1092" y="164" on="1"/>
      </contour>
    </TTGlyph>
    <TTGlyph name="uni2C8D" xMin="80" yMin="-186" xMax="928" yMax="1098">
      <contour>
        <pt x="641" y="139" on="1"/>
        <pt x="750" y="139" on="0"/>
        <pt x="870" y="87" on="0"/>
        <pt x="924" y="-31" on="0"/>
        <pt x="928" y="-186" on="1"/>
        <pt x="764" y="-186" on="1"/>
        <pt x="764" y="-102" on="0"/>
        <pt x="737" y="-30" on="0"/>
        <pt x="674" y="0" on="0"/>
        <pt x="600" y="0" on="1"/>
        <pt x="80" y="0" on="1"/>
        <pt x="80" y="119" on="1"/>
        <pt x="670" y="958" on="1"/>
        <pt x="115" y="958" on="1"/>
        <pt x="115" y="1098" on="1"/>
        <pt x="868" y="1098" on="1"/>
        <pt x="868" y="963" on="1"/>
        <pt x="287" y="139" on="1"/>
      </contour>
    </TTGlyph>
    <TTGlyph name="uni2C8E" xMin="199" yMin="0" xMax="1317" yMax="1462">
      <contour>
        <pt x="1317" y="0" on="1"/>
        <pt x="1133" y="0" on="1"/>
        <pt x="1133" y="682" on="1"/>
        <pt x="383" y="682" on="1"/>
        <pt x="383" y="0" on="1"/>
        <pt x="199" y="0" on="1"/>
        <pt x="199" y="1462" on="1"/>
        <pt x="383" y="1462" on="1"/>
        <pt x="383" y="844" on="1"/>
        <pt x="1133" y="844" on="1"/>
        <pt x="1133" y="1462" on="1"/>
        <pt x="1317" y="1462" on="1"/>
      </contour>
    </TTGlyph>
    <TTGlyph name="uni2C8F" xMin="174" yMin="0" xMax="1130" yMax="1098">
      <contour>
        <pt x="354" y="1098" on="1"/>
        <pt x="354" y="641" on="1"/>
        <pt x="950" y="641" on="1"/>
        <pt x="950" y="1098" on="1"/>
        <pt x="1130" y="1098" on="1"/>
        <pt x="1130" y="0" on="1"/>
        <pt x="950" y="0" on="1"/>
        <pt x="950" y="489" on="1"/>
        <pt x="354" y="489" on="1"/>
        <pt x="354" y="0" on="1"/>
        <pt x="174" y="0" on="1"/>
        <pt x="174" y="1098" on="1"/>
      </contour>
    </TTGlyph>
    <TTGlyph name="uni2C90" xMin="125" yMin="-20" xMax="1475" yMax="1485">
      <contour>
        <pt x="1475" y="733" on="1"/>
        <pt x="1475" y="382" on="0"/>
        <pt x="1120" y="-20" on="0"/>
        <pt x="801" y="-20" on="1"/>
        <pt x="478" y="-20" on="0"/>
        <pt x="125" y="375" on="0"/>
        <pt x="125" y="735" on="1"/>
        <pt x="125" y="1092" on="0"/>
        <pt x="476" y="1485" on="0"/>
        <pt x="803" y="1485" on="1"/>
        <pt x="1121" y="1485" on="0"/>
        <pt x="1475" y="1086" on="0"/>
      </contour>
      <contour>
        <pt x="801" y="139" on="1"/>
        <pt x="1023" y="139" on="0"/>
        <pt x="1266" y="406" on="0"/>
        <pt x="1278" y="666" on="1"/>
        <pt x="322" y="666" on="1"/>
        <pt x="335" y="406" on="0"/>
        <pt x="578" y="139" on="0"/>
      </contour>
      <contour>
        <pt x="803" y="1323" on="1"/>
        <pt x="585" y="1323" on="0"/>
        <pt x="341" y="1072" on="0"/>
        <pt x="322" y="825" on="1"/>
        <pt x="1276" y="825" on="1"/>
        <pt x="1257" y="1073" on="0"/>
        <pt x="1018" y="1323" on="0"/>
      </contour>
    </TTGlyph>
    <TTGlyph name="uni2C91" xMin="113" yMin="-20" xMax="1128" yMax="1118">
      <contour>
        <pt x="1128" y="551" on="1"/>
        <pt x="1128" y="282" on="0"/>
        <pt x="856" y="-20" on="0"/>
        <pt x="616" y="-20" on="1"/>
        <pt x="467" y="-20" on="0"/>
        <pt x="237" y="119" on="0"/>
        <pt x="113" y="379" on="0"/>
        <pt x="113" y="551" on="1"/>
        <pt x="113" y="819" on="0"/>
        <pt x="381" y="1118" on="0"/>
        <pt x="623" y="1118" on="1"/>
        <pt x="855" y="1118" on="0"/>
        <pt x="1128" y="813" on="0"/>
      </contour>
      <contour>
        <pt x="621" y="129" on="1"/>
        <pt x="777" y="129" on="0"/>
        <pt x="929" y="313" on="0"/>
        <pt x="940" y="489" on="1"/>
        <pt x="299" y="489" on="1"/>
        <pt x="317" y="129" on="0"/>
      </contour>
      <contour>
        <pt x="618" y="967" on="1"/>
        <pt x="466" y="967" on="0"/>
        <pt x="315" y="801" on="0"/>
        <pt x="301" y="639" on="1"/>
        <pt x="940" y="639" on="1"/>
        <pt x="910" y="967" on="0"/>
      </contour>
    </TTGlyph>
    <TTGlyph name="uni2C92" xMin="199" yMin="0" xMax="383" yMax="1462">
      <contour>
        <pt x="383" y="0" on="1"/>
        <pt x="199" y="0" on="1"/>
        <pt x="199" y="1462" on="1"/>
        <pt x="383" y="1462" on="1"/>
      </contour>
    </TTGlyph>
    <TTGlyph name="uni2C93" xMin="174" yMin="0" xMax="354" yMax="1098">
      <contour>
        <pt x="354" y="0" on="1"/>
        <pt x="174" y="0" on="1"/>
        <pt x="174" y="1098" on="1"/>
        <pt x="354" y="1098" on="1"/>
      </contour>
    </TTGlyph>
    <TTGlyph name="uni2C94" xMin="199" yMin="0" xMax="1268" yMax="1462">
      <contour>
        <pt x="1268" y="0" on="1"/>
        <pt x="1051" y="0" on="1"/>
        <pt x="532" y="698" on="1"/>
        <pt x="383" y="567" on="1"/>
        <pt x="383" y="0" on="1"/>
        <pt x="199" y="0" on="1"/>
        <pt x="199" y="1462" on="1"/>
        <pt x="383" y="1462" on="1"/>
        <pt x="383" y="741" on="1"/>
        <pt x="509" y="880" on="1"/>
        <pt x="1030" y="1462" on="1"/>
        <pt x="1245" y="1462" on="1"/>
        <pt x="666" y="825" on="1"/>
      </contour>
    </TTGlyph>
    <TTGlyph name="uni2C95" xMin="174" yMin="0" xMax="1075" yMax="1096">
      <contour>
        <pt x="825" y="1096" on="1"/>
        <pt x="1042" y="1096" on="1"/>
        <pt x="627" y="610" on="1"/>
        <pt x="1075" y="0" on="1"/>
        <pt x="860" y="0" on="1"/>
        <pt x="500" y="496" on="1"/>
        <pt x="365" y="385" on="1"/>
        <pt x="365" y="0" on="1"/>
        <pt x="174" y="0" on="1"/>
        <pt x="174" y="1096" on="1"/>
        <pt x="365" y="1096" on="1"/>
        <pt x="365" y="811" on="1"/>
        <pt x="365" y="674" on="0"/>
        <pt x="352" y="537" on="1"/>
      </contour>
    </TTGlyph>
    <TTGlyph name="uni2C96" xMin="-4" yMin="-20" xMax="1196" yMax="1483">
      <contour>
        <pt x="-4" y="0" on="1"/>
        <pt x="528" y="1028" on="1"/>
        <pt x="475" y="1165" on="1"/>
        <pt x="445" y="1245" on="0"/>
        <pt x="364" y="1321" on="0"/>
        <pt x="309" y="1321" on="1"/>
        <pt x="273" y="1321" on="0"/>
        <pt x="236" y="1305" on="1"/>
        <pt x="195" y="1454" on="1"/>
        <pt x="260" y="1483" on="0"/>
        <pt x="346" y="1483" on="1"/>
        <pt x="453" y="1483" on="0"/>
        <pt x="594" y="1364" on="0"/>
        <pt x="647" y="1227" on="1"/>
        <pt x="1014" y="266" on="1"/>
        <pt x="1039" y="198" on="0"/>
        <pt x="1095" y="127" on="0"/>
        <pt x="1135" y="127" on="1"/>
        <pt x="1159" y="127" on="0"/>
        <pt x="1196" y="137" on="1"/>
        <pt x="1196" y="4" on="1"/>
        <pt x="1146" y="-20" on="0"/>
        <pt x="1075" y="-20" on="1"/>
        <pt x="989" y="-20" on="0"/>
        <pt x="887" y="73" on="0"/>
        <pt x="848" y="182" on="1"/>
        <pt x="612" y="825" on="1"/>
        <pt x="193" y="0" on="1"/>
      </contour>
    </TTGlyph>
    <TTGlyph name="uni2C97" xMin="-31" yMin="0" xMax="965" yMax="1098">
      <contour>
        <pt x="207" y="1098" on="1"/>
        <pt x="244" y="1098" on="1"/>
        <pt x="335" y="1098" on="0"/>
        <pt x="428" y="1065" on="0"/>
        <pt x="496" y="987" on="0"/>
        <pt x="530" y="913" on="1"/>
        <pt x="819" y="274" on="1"/>
        <pt x="853" y="197" on="0"/>
        <pt x="908" y="143" on="0"/>
        <pt x="965" y="143" on="1"/>
        <pt x="965" y="0" on="1"/>
        <pt x="936" y="0" on="1"/>
        <pt x="854" y="0" on="0"/>
        <pt x="769" y="33" on="0"/>
        <pt x="704" y="115" on="0"/>
        <pt x="647" y="244" on="1"/>
        <pt x="487" y="602" on="1"/>
        <pt x="152" y="0" on="1"/>
        <pt x="-31" y="0" on="1"/>
        <pt x="408" y="774" on="1"/>
        <pt x="373" y="848" on="1"/>
        <pt x="341" y="916" on="0"/>
        <pt x="278" y="956" on="0"/>
        <pt x="207" y="956" on="1"/>
      </contour>
    </TTGlyph>
    <TTGlyph name="uni2C98" xMin="199" yMin="0" xMax="1317" yMax="1462">
      <contour>
        <pt x="1317" y="1462" on="1"/>
        <pt x="1317" y="0" on="1"/>
        <pt x="1133" y="0" on="1"/>
        <pt x="1133" y="391" on="1"/>
        <pt x="1080" y="269" on="0"/>
        <pt x="879" y="131" on="0"/>
        <pt x="752" y="131" on="1"/>
        <pt x="627" y="131" on="0"/>
        <pt x="436" y="247" on="0"/>
        <pt x="383" y="356" on="1"/>
        <pt x="383" y="0" on="1"/>
        <pt x="199" y="0" on="1"/>
        <pt x="199" y="1462" on="1"/>
        <pt x="383" y="1462" on="1"/>
        <pt x="383" y="745" on="1"/>
        <pt x="383" y="636" on="0"/>
        <pt x="486" y="420" on="0"/>
        <pt x="651" y="311" on="0"/>
        <pt x="758" y="311" on="1"/>
        <pt x="854" y="311" on="0"/>
        <pt x="1019" y="425" on="0"/>
        <pt x="1133" y="646" on="0"/>
        <pt x="1133" y="745" on="1"/>
        <pt x="1133" y="1462" on="1"/>
      </contour>
    </TTGlyph>
    <TTGlyph name="uni2C99" xMin="123" yMin="-16" xMax="1413" yMax="1098">
      <contour>
        <pt x="760" y="-16" on="1"/>
        <pt x="614" y="-16" on="0"/>
        <pt x="427" y="217" on="0"/>
        <pt x="391" y="438" on="1"/>
        <pt x="387" y="438" on="1"/>
        <pt x="374" y="298" on="0"/>
        <pt x="322" y="106" on="1"/>
        <pt x="295" y="0" on="1"/>
        <pt x="123" y="0" on="1"/>
        <pt x="163" y="126" on="0"/>
        <pt x="260" y="452" on="0"/>
        <pt x="303" y="666" on="1"/>
        <pt x="293" y="1098" on="1"/>
        <pt x="498" y="1098" on="1"/>
        <pt x="487" y="666" on="1"/>
        <pt x="571" y="172" on="0"/>
        <pt x="762" y="172" on="1"/>
        <pt x="867" y="172" on="0"/>
        <pt x="1023" y="408" on="0"/>
        <pt x="1081" y="666" on="1"/>
        <pt x="1077" y="1098" on="1"/>
        <pt x="1278" y="1098" on="1"/>
        <pt x="1266" y="666" on="1"/>
        <pt x="1310" y="332" on="0"/>
        <pt x="1413" y="0" on="1"/>
        <pt x="1239" y="0" on="1"/>
        <pt x="1172" y="272" on="0"/>
        <pt x="1163" y="438" on="1"/>
        <pt x="1159" y="438" on="1"/>
        <pt x="1100" y="206" on="0"/>
        <pt x="910" y="-16" on="0"/>
      </contour>
    </TTGlyph>
    <TTGlyph name="uni2C9A" xMin="199" yMin="0" xMax="1341" yMax="1462">
      <contour>
        <pt x="1341" y="0" on="1"/>
        <pt x="1126" y="0" on="1"/>
        <pt x="375" y="1214" on="1"/>
        <pt x="367" y="1214" on="1"/>
        <pt x="372" y="1133" on="1"/>
        <pt x="383" y="966" on="0"/>
        <pt x="383" y="817" on="1"/>
        <pt x="383" y="0" on="1"/>
        <pt x="199" y="0" on="1"/>
        <pt x="199" y="1462" on="1"/>
        <pt x="412" y="1462" on="1"/>
        <pt x="1161" y="252" on="1"/>
        <pt x="1169" y="252" on="1"/>
        <pt x="1167" y="276" on="0"/>
        <pt x="1155" y="571" on="0"/>
        <pt x="1155" y="637" on="1"/>
        <pt x="1155" y="1462" on="1"/>
        <pt x="1341" y="1462" on="1"/>
      </contour>
    </TTGlyph>
    <TTGlyph name="uni2C9B" xMin="174" yMin="0" xMax="1130" yMax="1098">
      <contour>
        <pt x="354" y="0" on="1"/>
        <pt x="174" y="0" on="1"/>
        <pt x="174" y="1098" on="1"/>
        <pt x="354" y="1098" on="1"/>
        <pt x="950" y="418" on="1"/>
        <pt x="950" y="1098" on="1"/>
        <pt x="1130" y="1098" on="1"/>
        <pt x="1130" y="0" on="1"/>
        <pt x="950" y="0" on="1"/>
        <pt x="950" y="170" on="1"/>
        <pt x="354" y="829" on="1"/>
      </contour>
    </TTGlyph>
    <TTGlyph name="uni2C9C" xMin="78" yMin="0" xMax="1092" yMax="1462">
      <contour>
        <pt x="469" y="889" on="1"/>
        <pt x="785" y="889" on="0"/>
        <pt x="1069" y="732" on="0"/>
        <pt x="1069" y="561" on="1"/>
        <pt x="1069" y="415" on="0"/>
        <pt x="791" y="209" on="0"/>
        <pt x="532" y="156" on="1"/>
        <pt x="532" y="147" on="1"/>
        <pt x="584" y="154" on="0"/>
        <pt x="759" y="164" on="0"/>
        <pt x="809" y="164" on="1"/>
        <pt x="1092" y="164" on="1"/>
        <pt x="1092" y="0" on="1"/>
        <pt x="78" y="0" on="1"/>
        <pt x="78" y="164" on="1"/>
        <pt x="228" y="178" on="0"/>
        <pt x="328" y="201" on="1"/>
        <pt x="856" y="320" on="0"/>
        <pt x="856" y="541" on="1"/>
        <pt x="856" y="652" on="0"/>
        <pt x="660" y="741" on="0"/>
        <pt x="432" y="741" on="1"/>
        <pt x="201" y="741" on="1"/>
        <pt x="201" y="879" on="1"/>
        <pt x="799" y="1313" on="1"/>
        <pt x="799" y="1317" on="1"/>
        <pt x="633" y="1298" on="0"/>
        <pt x="330" y="1298" on="1"/>
        <pt x="102" y="1298" on="1"/>
        <pt x="102" y="1462" on="1"/>
        <pt x="1051" y="1462" on="1"/>
        <pt x="1051" y="1315" on="1"/>
        <pt x="469" y="895" on="1"/>
      </contour>
    </TTGlyph>
    <TTGlyph name="uni2C9D" xMin="84" yMin="-186" xMax="926" yMax="1098">
      <contour>
        <pt x="90" y="0" on="1"/>
        <pt x="90" y="135" on="1"/>
        <pt x="255" y="147" on="0"/>
        <pt x="544" y="225" on="0"/>
        <pt x="692" y="335" on="0"/>
        <pt x="692" y="410" on="1"/>
        <pt x="692" y="490" on="0"/>
        <pt x="527" y="563" on="0"/>
        <pt x="352" y="563" on="1"/>
        <pt x="184" y="563" on="1"/>
        <pt x="184" y="686" on="1"/>
        <pt x="430" y="842" on="1"/>
        <pt x="546" y="913" on="0"/>
        <pt x="653" y="956" on="1"/>
        <pt x="653" y="965" on="1"/>
        <pt x="527" y="958" on="0"/>
        <pt x="379" y="958" on="1"/>
        <pt x="84" y="958" on="1"/>
        <pt x="84" y="1098" on="1"/>
        <pt x="858" y="1098" on="1"/>
        <pt x="858" y="952" on="1"/>
        <pt x="403" y="686" on="1"/>
        <pt x="403" y="680" on="1"/>
        <pt x="638" y="680" on="0"/>
        <pt x="870" y="565" on="0"/>
        <pt x="870" y="440" on="1"/>
        <pt x="870" y="309" on="0"/>
        <pt x="666" y="153" on="0"/>
        <pt x="467" y="121" on="1"/>
        <pt x="467" y="113" on="1"/>
        <pt x="501" y="117" on="1"/>
        <pt x="587" y="127" on="0"/>
        <pt x="639" y="127" on="1"/>
        <pt x="676" y="127" on="1"/>
        <pt x="774" y="127" on="0"/>
        <pt x="877" y="80" on="0"/>
        <pt x="922" y="-26" on="0"/>
        <pt x="926" y="-186" on="1"/>
        <pt x="762" y="-186" on="1"/>
        <pt x="762" y="-106" on="0"/>
        <pt x="726" y="-30" on="0"/>
        <pt x="641" y="0" on="0"/>
        <pt x="551" y="0" on="1"/>
      </contour>
    </TTGlyph>
    <TTGlyph name="uni2C9E" xMin="125" yMin="-20" xMax="1475" yMax="1485">
      <contour>
        <pt x="1475" y="733" on="1"/>
        <pt x="1475" y="382" on="0"/>
        <pt x="1120" y="-20" on="0"/>
        <pt x="801" y="-20" on="1"/>
        <pt x="478" y="-20" on="0"/>
        <pt x="125" y="375" on="0"/>
        <pt x="125" y="735" on="1"/>
        <pt x="125" y="1092" on="0"/>
        <pt x="476" y="1485" on="0"/>
        <pt x="803" y="1485" on="1"/>
        <pt x="1121" y="1485" on="0"/>
        <pt x="1475" y="1086" on="0"/>
      </contour>
      <contour>
        <pt x="319" y="733" on="1"/>
        <pt x="319" y="443" on="0"/>
        <pt x="565" y="139" on="0"/>
        <pt x="801" y="139" on="1"/>
        <pt x="1036" y="139" on="0"/>
        <pt x="1280" y="439" on="0"/>
        <pt x="1280" y="733" on="1"/>
        <pt x="1280" y="1026" on="0"/>
        <pt x="1038" y="1323" on="0"/>
        <pt x="803" y="1323" on="1"/>
        <pt x="565" y="1323" on="0"/>
        <pt x="319" y="1022" on="0"/>
      </contour>
    </TTGlyph>
    <TTGlyph name="uni2C9F" xMin="113" yMin="-20" xMax="1128" yMax="1118">
      <contour>
        <pt x="1128" y="551" on="1"/>
        <pt x="1128" y="282" on="0"/>
        <pt x="856" y="-20" on="0"/>
        <pt x="616" y="-20" on="1"/>
        <pt x="467" y="-20" on="0"/>
        <pt x="237" y="119" on="0"/>
        <pt x="113" y="379" on="0"/>
        <pt x="113" y="551" on="1"/>
        <pt x="113" y="819" on="0"/>
        <pt x="381" y="1118" on="0"/>
        <pt x="623" y="1118" on="1"/>
        <pt x="855" y="1118" on="0"/>
        <pt x="1128" y="813" on="0"/>
      </contour>
      <contour>
        <pt x="299" y="551" on="1"/>
        <pt x="299" y="344" on="0"/>
        <pt x="462" y="129" on="0"/>
        <pt x="621" y="129" on="1"/>
        <pt x="778" y="129" on="0"/>
        <pt x="942" y="344" on="0"/>
        <pt x="942" y="551" on="1"/>
        <pt x="942" y="758" on="0"/>
        <pt x="777" y="967" on="0"/>
        <pt x="618" y="967" on="1"/>
        <pt x="299" y="967" on="0"/>
      </contour>
    </TTGlyph>
    <TTGlyph name="uni2CA0" xMin="199" yMin="0" xMax="1296" yMax="1462">
      <contour>
        <pt x="1296" y="0" on="1"/>
        <pt x="1114" y="0" on="1"/>
        <pt x="1114" y="1300" on="1"/>
        <pt x="383" y="1300" on="1"/>
        <pt x="383" y="0" on="1"/>
        <pt x="199" y="0" on="1"/>
        <pt x="199" y="1462" on="1"/>
        <pt x="1296" y="1462" on="1"/>
      </contour>
    </TTGlyph>
    <TTGlyph name="uni2CA1" xMin="174" yMin="0" xMax="1102" yMax="1098">
      <contour>
        <pt x="354" y="0" on="1"/>
        <pt x="174" y="0" on="1"/>
        <pt x="174" y="1098" on="1"/>
        <pt x="1102" y="1098" on="1"/>
        <pt x="1102" y="0" on="1"/>
        <pt x="922" y="0" on="1"/>
        <pt x="922" y="944" on="1"/>
        <pt x="354" y="944" on="1"/>
      </contour>
    </TTGlyph>
    <TTGlyph name="uni2CA2" xMin="199" yMin="0" xMax="1135" yMax="1462">
      <contour>
        <pt x="1135" y="1032" on="1"/>
        <pt x="1135" y="808" on="0"/>
        <pt x="829" y="569" on="0"/>
        <pt x="551" y="569" on="1"/>
        <pt x="383" y="569" on="1"/>
        <pt x="383" y="0" on="1"/>
        <pt x="199" y="0" on="1"/>
        <pt x="199" y="1462" on="1"/>
        <pt x="586" y="1462" on="1"/>
        <pt x="1135" y="1462" on="0"/>
      </contour>
      <contour>
        <pt x="383" y="727" on="1"/>
        <pt x="530" y="727" on="1"/>
        <pt x="748" y="727" on="0"/>
        <pt x="944" y="868" on="0"/>
        <pt x="944" y="1024" on="1"/>
        <pt x="944" y="1165" on="0"/>
        <pt x="762" y="1305" on="0"/>
        <pt x="569" y="1305" on="1"/>
        <pt x="383" y="1305" on="1"/>
      </contour>
    </TTGlyph>
    <TTGlyph name="uni2CA3" xMin="176" yMin="-492" xMax="1004" yMax="1098">
      <contour>
        <pt x="1004" y="686" on="1"/>
        <pt x="1004" y="482" on="0"/>
        <pt x="744" y="252" on="0"/>
        <pt x="516" y="252" on="1"/>
        <pt x="358" y="252" on="1"/>
        <pt x="358" y="-492" on="1"/>
        <pt x="176" y="-492" on="1"/>
        <pt x="176" y="1098" on="1"/>
        <pt x="549" y="1098" on="1"/>
        <pt x="765" y="1098" on="0"/>
        <pt x="1004" y="879" on="0"/>
      </contour>
      <contour>
        <pt x="358" y="397" on="1"/>
        <pt x="506" y="397" on="1"/>
        <pt x="658" y="397" on="0"/>
        <pt x="817" y="540" on="0"/>
        <pt x="817" y="680" on="1"/>
        <pt x="817" y="811" on="0"/>
        <pt x="664" y="952" on="0"/>
        <pt x="522" y="952" on="1"/>
        <pt x="358" y="952" on="1"/>
      </contour>
    </TTGlyph>
    <TTGlyph name="uni2CA4" xMin="125" yMin="-20" xMax="1231" yMax="1483">
      <contour>
        <pt x="825" y="1321" on="1"/>
        <pt x="589" y="1321" on="0"/>
        <pt x="319" y="1005" on="0"/>
        <pt x="319" y="731" on="1"/>
        <pt x="319" y="448" on="0"/>
        <pt x="581" y="141" on="0"/>
        <pt x="823" y="141" on="1"/>
        <pt x="979" y="141" on="0"/>
        <pt x="1174" y="199" on="1"/>
        <pt x="1174" y="39" on="1"/>
        <pt x="1081" y="5" on="0"/>
        <pt x="909" y="-20" on="0"/>
        <pt x="797" y="-20" on="1"/>
        <pt x="474" y="-20" on="0"/>
        <pt x="125" y="373" on="0"/>
        <pt x="125" y="733" on="1"/>
        <pt x="125" y="959" on="0"/>
        <pt x="292" y="1299" on="0"/>
        <pt x="611" y="1483" on="0"/>
        <pt x="827" y="1483" on="1"/>
        <pt x="1059" y="1483" on="0"/>
        <pt x="1231" y="1397" on="1"/>
        <pt x="1157" y="1241" on="1"/>
        <pt x="982" y="1321" on="0"/>
      </contour>
    </TTGlyph>
    <TTGlyph name="uni2CA5" xMin="113" yMin="-20" xMax="915" yMax="1118">
      <contour>
        <pt x="614" y="-20" on="1"/>
        <pt x="377" y="-20" on="0"/>
        <pt x="113" y="271" on="0"/>
        <pt x="113" y="543" on="1"/>
        <pt x="113" y="819" on="0"/>
        <pt x="380" y="1118" on="0"/>
        <pt x="627" y="1118" on="1"/>
        <pt x="707" y="1118" on="0"/>
        <pt x="864" y="1085" on="0"/>
        <pt x="915" y="1059" on="1"/>
        <pt x="860" y="909" on="1"/>
        <pt x="721" y="961" on="0"/>
        <pt x="623" y="961" on="1"/>
        <pt x="457" y="961" on="0"/>
        <pt x="299" y="752" on="0"/>
        <pt x="299" y="545" on="1"/>
        <pt x="299" y="346" on="0"/>
        <pt x="457" y="135" on="0"/>
        <pt x="612" y="135" on="1"/>
        <pt x="757" y="135" on="0"/>
        <pt x="897" y="199" on="1"/>
        <pt x="897" y="39" on="1"/>
        <pt x="783" y="-20" on="0"/>
      </contour>
    </TTGlyph>
    <TTGlyph name="uni2CA6" xMin="23" yMin="0" xMax="1227" yMax="1462">
      <contour>
        <pt x="936" y="1462" on="1"/>
        <pt x="1227" y="1462" on="0"/>
        <pt x="1227" y="1169" on="1"/>
        <pt x="1051" y="1169" on="1"/>
        <pt x="1051" y="1300" on="0"/>
        <pt x="926" y="1300" on="1"/>
        <pt x="717" y="1300" on="1"/>
        <pt x="717" y="0" on="1"/>
        <pt x="532" y="0" on="1"/>
        <pt x="532" y="1300" on="1"/>
        <pt x="324" y="1300" on="1"/>
        <pt x="199" y="1300" on="0"/>
        <pt x="199" y="1169" on="1"/>
        <pt x="23" y="1169" on="1"/>
        <pt x="23" y="1462" on="0"/>
        <pt x="313" y="1462" on="1"/>
      </contour>
    </TTGlyph>
    <TTGlyph name="uni2CA7" xMin="33" yMin="0" xMax="1128" yMax="1098">
      <contour>
        <pt x="885" y="1098" on="1"/>
        <pt x="1001" y="1098" on="0"/>
        <pt x="1128" y="974" on="0"/>
        <pt x="1128" y="850" on="1"/>
        <pt x="967" y="850" on="1"/>
        <pt x="967" y="946" on="0"/>
        <pt x="870" y="946" on="1"/>
        <pt x="672" y="946" on="1"/>
        <pt x="672" y="0" on="1"/>
        <pt x="489" y="0" on="1"/>
        <pt x="489" y="946" on="1"/>
        <pt x="291" y="946" on="1"/>
        <pt x="195" y="946" on="0"/>
        <pt x="195" y="850" on="1"/>
        <pt x="33" y="850" on="1"/>
        <pt x="33" y="973" on="0"/>
        <pt x="160" y="1098" on="0"/>
        <pt x="276" y="1098" on="1"/>
      </contour>
    </TTGlyph>
    <TTGlyph name="uni2CA8" xMin="0" yMin="0" xMax="1159" yMax="1462">
      <contour>
        <pt x="580" y="743" on="1"/>
        <pt x="961" y="1462" on="1"/>
        <pt x="1159" y="1462" on="1"/>
        <pt x="672" y="567" on="1"/>
        <pt x="672" y="0" on="1"/>
        <pt x="487" y="0" on="1"/>
        <pt x="487" y="559" on="1"/>
        <pt x="0" y="1462" on="1"/>
        <pt x="201" y="1462" on="1"/>
      </contour>
    </TTGlyph>
    <TTGlyph name="uni2CA9" xMin="-86" yMin="-492" xMax="1126" yMax="1098">
      <contour>
        <pt x="909" y="1098" on="1"/>
        <pt x="1126" y="1098" on="1"/>
        <pt x="610" y="274" on="1"/>
        <pt x="610" y="-492" on="1"/>
        <pt x="430" y="-492" on="1"/>
        <pt x="430" y="274" on="1"/>
        <pt x="-86" y="1098" on="1"/>
        <pt x="131" y="1098" on="1"/>
        <pt x="520" y="451" on="1"/>
      </contour>
    </TTGlyph>
    <TTGlyph name="uni2CAA" xMin="104" yMin="-20" xMax="1540" yMax="1483">
      <contour>
        <pt x="731" y="1483" on="1"/>
        <pt x="913" y="1483" on="1"/>
        <pt x="913" y="1303" on="1"/>
        <pt x="981" y="1303" on="1"/>
        <pt x="1155" y="1303" on="0"/>
        <pt x="1408" y="1164" on="0"/>
        <pt x="1540" y="916" on="0"/>
        <pt x="1540" y="758" on="1"/>
        <pt x="1540" y="593" on="0"/>
        <pt x="1392" y="335" on="0"/>
        <pt x="1130" y="205" on="0"/>
        <pt x="952" y="205" on="1"/>
        <pt x="913" y="205" on="1"/>
        <pt x="913" y="-20" on="1"/>
        <pt x="731" y="-20" on="1"/>
        <pt x="731" y="205" on="1"/>
        <pt x="688" y="205" on="1"/>
        <pt x="510" y="205" on="0"/>
        <pt x="249" y="338" on="0"/>
        <pt x="104" y="599" on="0"/>
        <pt x="104" y="758" on="1"/>
        <pt x="104" y="913" on="0"/>
        <pt x="240" y="1162" on="0"/>
        <pt x="494" y="1303" on="0"/>
        <pt x="666" y="1303" on="1"/>
        <pt x="731" y="1303" on="1"/>
      </contour>
      <contour>
        <pt x="913" y="356" on="1"/>
        <pt x="938" y="356" on="1"/>
        <pt x="1135" y="356" on="0"/>
        <pt x="1354" y="571" on="0"/>
        <pt x="1354" y="760" on="1"/>
        <pt x="1354" y="940" on="0"/>
        <pt x="1151" y="1147" on="0"/>
        <pt x="969" y="1147" on="1"/>
        <pt x="913" y="1147" on="1"/>
      </contour>
      <contour>
        <pt x="731" y="1147" on="1"/>
        <pt x="676" y="1147" on="1"/>
        <pt x="495" y="1147" on="0"/>
        <pt x="291" y="938" on="0"/>
        <pt x="291" y="760" on="1"/>
        <pt x="291" y="571" on="0"/>
        <pt x="509" y="356" on="0"/>
        <pt x="709" y="356" on="1"/>
        <pt x="731" y="356" on="1"/>
      </contour>
    </TTGlyph>
    <TTGlyph name="uni2CAB" xMin="111" yMin="-492" xMax="1372" yMax="1556">
      <contour>
        <pt x="1372" y="549" on="1"/>
        <pt x="1372" y="304" on="0"/>
        <pt x="1085" y="4" on="0"/>
        <pt x="829" y="-16" on="1"/>
        <pt x="829" y="-492" on="1"/>
        <pt x="653" y="-492" on="1"/>
        <pt x="653" y="-16" on="1"/>
        <pt x="401" y="5" on="0"/>
        <pt x="111" y="305" on="0"/>
        <pt x="111" y="549" on="1"/>
        <pt x="111" y="799" on="0"/>
        <pt x="399" y="1094" on="0"/>
        <pt x="659" y="1114" on="1"/>
        <pt x="659" y="1556" on="1"/>
        <pt x="829" y="1556" on="1"/>
        <pt x="829" y="1114" on="1"/>
        <pt x="1082" y="1089" on="0"/>
        <pt x="1372" y="789" on="0"/>
      </contour>
      <contour>
        <pt x="299" y="549" on="1"/>
        <pt x="299" y="168" on="0"/>
        <pt x="659" y="131" on="1"/>
        <pt x="659" y="965" on="1"/>
        <pt x="471" y="946" on="0"/>
        <pt x="299" y="735" on="0"/>
      </contour>
      <contour>
        <pt x="1186" y="549" on="1"/>
        <pt x="1186" y="924" on="0"/>
        <pt x="829" y="963" on="1"/>
        <pt x="829" y="131" on="1"/>
        <pt x="1186" y="170" on="0"/>
      </contour>
    </TTGlyph>
    <TTGlyph name="uni2CAC" xMin="8" yMin="0" xMax="1192" yMax="1462">
      <contour>
        <pt x="1192" y="0" on="1"/>
        <pt x="983" y="0" on="1"/>
        <pt x="596" y="635" on="1"/>
        <pt x="203" y="0" on="1"/>
        <pt x="8" y="0" on="1"/>
        <pt x="494" y="762" on="1"/>
        <pt x="39" y="1462" on="1"/>
        <pt x="244" y="1462" on="1"/>
        <pt x="602" y="889" on="1"/>
        <pt x="963" y="1462" on="1"/>
        <pt x="1157" y="1462" on="1"/>
        <pt x="705" y="766" on="1"/>
      </contour>
    </TTGlyph>
    <TTGlyph name="uni2CAD" xMin="37" yMin="0" xMax="1047" yMax="1098">
      <contour>
        <pt x="434" y="561" on="1"/>
        <pt x="55" y="1098" on="1"/>
        <pt x="260" y="1098" on="1"/>
        <pt x="543" y="684" on="1"/>
        <pt x="823" y="1098" on="1"/>
        <pt x="1026" y="1098" on="1"/>
        <pt x="647" y="561" on="1"/>
        <pt x="1047" y="0" on="1"/>
        <pt x="842" y="0" on="1"/>
        <pt x="543" y="438" on="1"/>
        <pt x="240" y="0" on="1"/>
        <pt x="37" y="0" on="1"/>
      </contour>
    </TTGlyph>
    <TTGlyph name="uni2CAE" xMin="98" yMin="0" xMax="1610" yMax="1462">
      <contour>
        <pt x="942" y="0" on="1"/>
        <pt x="762" y="0" on="1"/>
        <pt x="762" y="465" on="1"/>
        <pt x="451" y="482" on="0"/>
        <pt x="98" y="846" on="0"/>
        <pt x="98" y="1147" on="1"/>
        <pt x="98" y="1278" on="1"/>
        <pt x="283" y="1278" on="1"/>
        <pt x="283" y="1167" on="1"/>
        <pt x="283" y="923" on="0"/>
        <pt x="537" y="632" on="0"/>
        <pt x="762" y="623" on="1"/>
        <pt x="762" y="1462" on="1"/>
        <pt x="942" y="1462" on="1"/>
        <pt x="942" y="623" on="1"/>
        <pt x="1170" y="642" on="0"/>
        <pt x="1421" y="919" on="0"/>
        <pt x="1421" y="1163" on="1"/>
        <pt x="1421" y="1278" on="1"/>
        <pt x="1610" y="1278" on="1"/>
        <pt x="1610" y="1145" on="1"/>
        <pt x="1610" y="961" on="0"/>
        <pt x="1448" y="659" on="0"/>
        <pt x="1147" y="478" on="0"/>
        <pt x="942" y="465" on="1"/>
      </contour>
    </TTGlyph>
    <TTGlyph name="uni2CAF" xMin="80" yMin="-492" xMax="1354" yMax="1098">
      <contour>
        <pt x="627" y="1098" on="1"/>
        <pt x="801" y="1098" on="1"/>
        <pt x="801" y="383" on="1"/>
        <pt x="989" y="396" on="0"/>
        <pt x="1174" y="624" on="0"/>
        <pt x="1174" y="846" on="1"/>
        <pt x="1174" y="944" on="1"/>
        <pt x="1354" y="944" on="1"/>
        <pt x="1354" y="829" on="1"/>
        <pt x="1354" y="656" on="0"/>
        <pt x="1215" y="383" on="0"/>
        <pt x="967" y="233" on="0"/>
        <pt x="801" y="223" on="1"/>
        <pt x="801" y="-492" on="1"/>
        <pt x="627" y="-492" on="1"/>
        <pt x="627" y="223" on="1"/>
        <pt x="365" y="239" on="0"/>
        <pt x="80" y="559" on="0"/>
        <pt x="80" y="831" on="1"/>
        <pt x="80" y="944" on="1"/>
        <pt x="258" y="944" on="1"/>
        <pt x="258" y="850" on="1"/>
        <pt x="258" y="629" on="0"/>
        <pt x="441" y="389" on="0"/>
        <pt x="627" y="383" on="1"/>
      </contour>
    </TTGlyph>
    <TTGlyph name="uni2CB0" xMin="125" yMin="-20" xMax="1989" yMax="1497">
      <contour>
        <pt x="1579" y="1497" on="1"/>
        <pt x="1778" y="1379" on="0"/>
        <pt x="1989" y="982" on="0"/>
        <pt x="1989" y="731" on="1"/>
        <pt x="1989" y="502" on="0"/>
        <pt x="1855" y="161" on="0"/>
        <pt x="1606" y="-20" on="0"/>
        <pt x="1440" y="-20" on="1"/>
        <pt x="1296" y="-20" on="0"/>
        <pt x="1096" y="144" on="0"/>
        <pt x="1057" y="289" on="1"/>
        <pt x="1051" y="289" on="1"/>
        <pt x="949" y="-20" on="0"/>
        <pt x="668" y="-20" on="1"/>
        <pt x="505" y="-20" on="0"/>
        <pt x="259" y="157" on="0"/>
        <pt x="125" y="491" on="0"/>
        <pt x="125" y="719" on="1"/>
        <pt x="125" y="1253" on="0"/>
        <pt x="555" y="1493" on="1"/>
        <pt x="659" y="1370" on="1"/>
        <pt x="483" y="1264" on="0"/>
        <pt x="317" y="946" on="0"/>
        <pt x="317" y="719" on="1"/>
        <pt x="317" y="544" on="0"/>
        <pt x="406" y="284" on="0"/>
        <pt x="569" y="147" on="0"/>
        <pt x="674" y="147" on="1"/>
        <pt x="830" y="147" on="0"/>
        <pt x="963" y="392" on="0"/>
        <pt x="963" y="653" on="1"/>
        <pt x="963" y="1421" on="1"/>
        <pt x="1147" y="1421" on="1"/>
        <pt x="1147" y="653" on="1"/>
        <pt x="1147" y="388" on="0"/>
        <pt x="1286" y="147" on="0"/>
        <pt x="1438" y="147" on="1"/>
        <pt x="1540" y="147" on="0"/>
        <pt x="1703" y="284" on="0"/>
        <pt x="1794" y="543" on="0"/>
        <pt x="1794" y="719" on="1"/>
        <pt x="1794" y="943" on="0"/>
        <pt x="1612" y="1284" on="0"/>
        <pt x="1444" y="1380" on="1"/>
      </contour>
    </TTGlyph>
    <TTGlyph name="uni2CB1" xMin="113" yMin="-20" xMax="1559" yMax="1147">
      <contour>
        <pt x="526" y="1047" on="1"/>
        <pt x="403" y="950" on="0"/>
        <pt x="293" y="708" on="0"/>
        <pt x="293" y="547" on="1"/>
        <pt x="293" y="357" on="0"/>
        <pt x="417" y="139" on="0"/>
        <pt x="526" y="139" on="1"/>
        <pt x="634" y="139" on="0"/>
        <pt x="750" y="307" on="0"/>
        <pt x="750" y="459" on="1"/>
        <pt x="750" y="1038" on="1"/>
        <pt x="922" y="1038" on="1"/>
        <pt x="922" y="459" on="1"/>
        <pt x="922" y="312" on="0"/>
        <pt x="1031" y="139" on="0"/>
        <pt x="1128" y="139" on="1"/>
        <pt x="1198" y="139" on="0"/>
        <pt x="1313" y="241" on="0"/>
        <pt x="1378" y="429" on="0"/>
        <pt x="1378" y="553" on="1"/>
        <pt x="1378" y="845" on="0"/>
        <pt x="1151" y="1047" on="1"/>
        <pt x="1284" y="1147" on="1"/>
        <pt x="1404" y="1047" on="0"/>
        <pt x="1559" y="733" on="0"/>
        <pt x="1559" y="578" on="1"/>
        <pt x="1559" y="396" on="0"/>
        <pt x="1452" y="123" on="0"/>
        <pt x="1257" y="-20" on="0"/>
        <pt x="1130" y="-20" on="1"/>
        <pt x="1016" y="-20" on="0"/>
        <pt x="864" y="94" on="0"/>
        <pt x="834" y="209" on="1"/>
        <pt x="827" y="209" on="1"/>
        <pt x="787" y="88" on="0"/>
        <pt x="634" y="-20" on="0"/>
        <pt x="510" y="-20" on="1"/>
        <pt x="395" y="-20" on="0"/>
        <pt x="214" y="117" on="0"/>
        <pt x="113" y="374" on="0"/>
        <pt x="113" y="547" on="1"/>
        <pt x="113" y="736" on="0"/>
        <pt x="255" y="1040" on="0"/>
        <pt x="397" y="1147" on="1"/>
      </contour>
    </TTGlyph>
    <TTGlyph name="uni2CB2" xMin="20" yMin="418" xMax="1305" yMax="1229">
      <contour>
        <pt x="729" y="1229" on="1"/>
        <pt x="729" y="596" on="1"/>
        <pt x="1305" y="596" on="1"/>
        <pt x="1305" y="418" on="1"/>
        <pt x="20" y="418" on="1"/>
        <pt x="20" y="596" on="1"/>
        <pt x="551" y="596" on="1"/>
        <pt x="551" y="1229" on="1"/>
      </contour>
    </TTGlyph>
    <TTGlyph name="uni2CB3" xMin="20" yMin="266" xMax="1016" yMax="981">
      <contour>
        <pt x="600" y="981" on="1"/>
        <pt x="600" y="440" on="1"/>
        <pt x="1016" y="440" on="1"/>
        <pt x="1016" y="266" on="1"/>
        <pt x="20" y="266" on="1"/>
        <pt x="20" y="440" on="1"/>
        <pt x="428" y="440" on="1"/>
        <pt x="428" y="981" on="1"/>
      </contour>
    </TTGlyph>
    <TTGlyph name="uni2CB4" xMin="68" yMin="0" xMax="1053" yMax="1462">
      <contour>
        <pt x="750" y="1462" on="1"/>
        <pt x="999" y="1462" on="1"/>
        <pt x="250" y="764" on="1"/>
        <pt x="1022" y="0" on="1"/>
        <pt x="770" y="0" on="1"/>
        <pt x="68" y="684" on="1"/>
        <pt x="68" y="829" on="1"/>
      </contour>
      <contour>
        <pt x="784" y="770" on="1"/>
        <pt x="784" y="839" on="0"/>
        <pt x="863" y="903" on="0"/>
        <pt x="920" y="903" on="1"/>
        <pt x="979" y="903" on="0"/>
        <pt x="1053" y="832" on="0"/>
        <pt x="1053" y="770" on="1"/>
        <pt x="1053" y="709" on="0"/>
        <pt x="978" y="639" on="0"/>
        <pt x="920" y="639" on="1"/>
        <pt x="858" y="639" on="0"/>
        <pt x="784" y="707" on="0"/>
      </contour>
    </TTGlyph>
    <TTGlyph name="uni2CB5" xMin="158" yMin="0" xMax="1026" yMax="1098">
      <contour>
        <pt x="662" y="1098" on="1"/>
        <pt x="928" y="1098" on="1"/>
        <pt x="322" y="592" on="1"/>
        <pt x="944" y="0" on="1"/>
        <pt x="688" y="0" on="1"/>
        <pt x="158" y="518" on="1"/>
        <pt x="158" y="666" on="1"/>
      </contour>
      <contour>
        <pt x="778" y="582" on="1"/>
        <pt x="778" y="647" on="0"/>
        <pt x="849" y="705" on="0"/>
        <pt x="903" y="705" on="1"/>
        <pt x="960" y="705" on="0"/>
        <pt x="1026" y="640" on="0"/>
        <pt x="1026" y="582" on="1"/>
        <pt x="1026" y="524" on="0"/>
        <pt x="958" y="459" on="0"/>
        <pt x="903" y="459" on="1"/>
        <pt x="849" y="459" on="0"/>
        <pt x="778" y="519" on="0"/>
      </contour>
    </TTGlyph>
    <TTGlyph name="uni2CB6" xMin="57" yMin="0" xMax="1231" yMax="1462">
      <contour>
        <pt x="57" y="819" on="1"/>
        <pt x="1231" y="819" on="1"/>
        <pt x="1231" y="655" on="1"/>
        <pt x="57" y="655" on="1"/>
      </contour>
      <contour>
        <pt x="57" y="1462" on="1"/>
        <pt x="1231" y="1462" on="1"/>
        <pt x="1231" y="1300" on="1"/>
        <pt x="57" y="1300" on="1"/>
      </contour>
      <contour>
        <pt x="1231" y="162" on="1"/>
        <pt x="1231" y="0" on="1"/>
        <pt x="57" y="0" on="1"/>
        <pt x="57" y="162" on="1"/>
      </contour>
    </TTGlyph>
    <TTGlyph name="uni2CB7" xMin="70" yMin="0" xMax="1051" yMax="1098">
      <contour>
        <pt x="70" y="633" on="1"/>
        <pt x="1051" y="633" on="1"/>
        <pt x="1051" y="477" on="1"/>
        <pt x="70" y="477" on="1"/>
      </contour>
      <contour>
        <pt x="70" y="1098" on="1"/>
        <pt x="1051" y="1098" on="1"/>
        <pt x="1051" y="940" on="1"/>
        <pt x="70" y="940" on="1"/>
      </contour>
      <contour>
        <pt x="1051" y="158" on="1"/>
        <pt x="1051" y="0" on="1"/>
        <pt x="70" y="0" on="1"/>
        <pt x="70" y="158" on="1"/>
      </contour>
    </TTGlyph>
    <TTGlyph name="uni2CB8" xMin="78" yMin="0" xMax="1092" yMax="1462">
      <contour>
        <pt x="1092" y="0" on="1"/>
        <pt x="78" y="0" on="1"/>
        <pt x="78" y="188" on="1"/>
        <pt x="874" y="801" on="1"/>
        <pt x="150" y="1253" on="1"/>
        <pt x="150" y="1462" on="1"/>
        <pt x="1077" y="877" on="1"/>
        <pt x="1077" y="737" on="1"/>
        <pt x="309" y="164" on="1"/>
        <pt x="1092" y="164" on="1"/>
      </contour>
    </TTGlyph>
    <TTGlyph name="uni2CB9" xMin="66" yMin="0" xMax="895" yMax="1098">
      <contour>
        <pt x="895" y="0" on="1"/>
        <pt x="66" y="0" on="1"/>
        <pt x="66" y="139" on="1"/>
        <pt x="694" y="600" on="1"/>
        <pt x="127" y="913" on="1"/>
        <pt x="127" y="1098" on="1"/>
        <pt x="858" y="688" on="1"/>
        <pt x="858" y="532" on="1"/>
        <pt x="297" y="139" on="1"/>
        <pt x="895" y="139" on="1"/>
      </contour>
    </TTGlyph>
    <TTGlyph name="uni2CBA" xMin="20" yMin="1120" xMax="1305" yMax="1298">
      <contour>
        <pt x="1305" y="1120" on="1"/>
        <pt x="20" y="1120" on="1"/>
        <pt x="20" y="1298" on="1"/>
        <pt x="1305" y="1298" on="1"/>
      </contour>
    </TTGlyph>
    <TTGlyph name="uni2CBB" xMin="20" yMin="778" xMax="1016" yMax="952">
      <contour>
        <pt x="1016" y="778" on="1"/>
        <pt x="20" y="778" on="1"/>
        <pt x="20" y="952" on="1"/>
        <pt x="1016" y="952" on="1"/>
      </contour>
    </TTGlyph>
    <TTGlyph name="uni2CBC" xMin="199" yMin="0" xMax="1415" yMax="1462">
      <contour>
        <pt x="723" y="0" on="1"/>
        <pt x="723" y="1462" on="1"/>
        <pt x="887" y="1462" on="1"/>
        <pt x="887" y="0" on="1"/>
      </contour>
      <contour>
        <pt x="199" y="0" on="1"/>
        <pt x="199" y="1462" on="1"/>
        <pt x="360" y="1462" on="1"/>
        <pt x="360" y="0" on="1"/>
      </contour>
      <contour>
        <pt x="1253" y="1462" on="1"/>
        <pt x="1415" y="1462" on="1"/>
        <pt x="1415" y="0" on="1"/>
        <pt x="1253" y="0" on="1"/>
      </contour>
    </TTGlyph>
    <TTGlyph name="uni2CBD" xMin="174" yMin="0" xMax="1272" yMax="1098">
      <contour>
        <pt x="645" y="0" on="1"/>
        <pt x="645" y="1098" on="1"/>
        <pt x="801" y="1098" on="1"/>
        <pt x="801" y="0" on="1"/>
      </contour>
      <contour>
        <pt x="174" y="0" on="1"/>
        <pt x="174" y="1098" on="1"/>
        <pt x="332" y="1098" on="1"/>
        <pt x="332" y="0" on="1"/>
      </contour>
      <contour>
        <pt x="1114" y="1098" on="1"/>
        <pt x="1272" y="1098" on="1"/>
        <pt x="1272" y="0" on="1"/>
        <pt x="1114" y="0" on="1"/>
      </contour>
    </TTGlyph>
    <TTGlyph name="uni2CBE" xMin="199" yMin="0" xMax="1651" yMax="1462">
      <contour>
        <pt x="199" y="0" on="1"/>
        <pt x="199" y="1462" on="1"/>
        <pt x="360" y="1462" on="1"/>
        <pt x="360" y="815" on="1"/>
        <pt x="723" y="815" on="1"/>
        <pt x="723" y="1462" on="1"/>
        <pt x="887" y="1462" on="1"/>
        <pt x="887" y="815" on="1"/>
        <pt x="1253" y="815" on="1"/>
        <pt x="1253" y="1462" on="1"/>
        <pt x="1415" y="1462" on="1"/>
        <pt x="1415" y="815" on="1"/>
        <pt x="1651" y="815" on="1"/>
        <pt x="1651" y="668" on="1"/>
        <pt x="1415" y="668" on="1"/>
        <pt x="1415" y="0" on="1"/>
        <pt x="1253" y="0" on="1"/>
        <pt x="1253" y="668" on="1"/>
        <pt x="887" y="668" on="1"/>
        <pt x="887" y="0" on="1"/>
        <pt x="723" y="0" on="1"/>
        <pt x="723" y="668" on="1"/>
        <pt x="360" y="668" on="1"/>
        <pt x="360" y="0" on="1"/>
      </contour>
    </TTGlyph>
    <TTGlyph name="uni2CBF" xMin="174" yMin="0" xMax="1501" yMax="1098">
      <contour>
        <pt x="174" y="0" on="1"/>
        <pt x="174" y="1098" on="1"/>
        <pt x="332" y="1098" on="1"/>
        <pt x="332" y="637" on="1"/>
        <pt x="645" y="637" on="1"/>
        <pt x="645" y="1098" on="1"/>
        <pt x="801" y="1098" on="1"/>
        <pt x="801" y="637" on="1"/>
        <pt x="1114" y="637" on="1"/>
        <pt x="1114" y="1098" on="1"/>
        <pt x="1272" y="1098" on="1"/>
        <pt x="1272" y="637" on="1"/>
        <pt x="1501" y="637" on="1"/>
        <pt x="1501" y="489" on="1"/>
        <pt x="1272" y="489" on="1"/>
        <pt x="1272" y="0" on="1"/>
        <pt x="1114" y="0" on="1"/>
        <pt x="1114" y="489" on="1"/>
        <pt x="801" y="489" on="1"/>
        <pt x="801" y="0" on="1"/>
        <pt x="645" y="0" on="1"/>
        <pt x="645" y="489" on="1"/>
        <pt x="332" y="489" on="1"/>
        <pt x="332" y="0" on="1"/>
      </contour>
    </TTGlyph>
    <TTGlyph name="uni2CC0" xMin="4" yMin="-334" xMax="1225" yMax="1462">
      <contour>
        <pt x="1051" y="133" on="1"/>
        <pt x="473" y="133" on="1"/>
        <pt x="473" y="-334" on="1"/>
        <pt x="289" y="-334" on="1"/>
        <pt x="289" y="133" on="1"/>
        <pt x="4" y="133" on="1"/>
        <pt x="4" y="293" on="1"/>
        <pt x="289" y="293" on="1"/>
        <pt x="289" y="1462" on="1"/>
        <pt x="676" y="1462" on="1"/>
        <pt x="1225" y="1462" on="0"/>
        <pt x="1225" y="1032" on="1"/>
        <pt x="1225" y="808" on="0"/>
        <pt x="919" y="569" on="0"/>
        <pt x="641" y="569" on="1"/>
        <pt x="473" y="569" on="1"/>
        <pt x="473" y="293" on="1"/>
        <pt x="1051" y="293" on="1"/>
      </contour>
      <contour>
        <pt x="473" y="727" on="1"/>
        <pt x="621" y="727" on="1"/>
        <pt x="839" y="727" on="0"/>
        <pt x="1034" y="869" on="0"/>
        <pt x="1034" y="1024" on="1"/>
        <pt x="1034" y="1165" on="0"/>
        <pt x="853" y="1305" on="0"/>
        <pt x="659" y="1305" on="1"/>
        <pt x="473" y="1305" on="1"/>
      </contour>
    </TTGlyph>
    <TTGlyph name="uni2CC1" xMin="-4" yMin="-492" xMax="1020" yMax="1098">
      <contour>
        <pt x="1020" y="686" on="1"/>
        <pt x="1020" y="482" on="0"/>
        <pt x="760" y="252" on="0"/>
        <pt x="532" y="252" on="1"/>
        <pt x="375" y="252" on="1"/>
        <pt x="375" y="31" on="1"/>
        <pt x="741" y="31" on="1"/>
        <pt x="741" y="-115" on="1"/>
        <pt x="375" y="-115" on="1"/>
        <pt x="375" y="-492" on="1"/>
        <pt x="193" y="-492" on="1"/>
        <pt x="193" y="-115" on="1"/>
        <pt x="-4" y="-115" on="1"/>
        <pt x="-4" y="31" on="1"/>
        <pt x="193" y="31" on="1"/>
        <pt x="193" y="1098" on="1"/>
        <pt x="565" y="1098" on="1"/>
        <pt x="781" y="1098" on="0"/>
        <pt x="1020" y="879" on="0"/>
      </contour>
      <contour>
        <pt x="375" y="397" on="1"/>
        <pt x="522" y="397" on="1"/>
        <pt x="674" y="397" on="0"/>
        <pt x="834" y="540" on="0"/>
        <pt x="834" y="680" on="1"/>
        <pt x="834" y="811" on="0"/>
        <pt x="681" y="952" on="0"/>
        <pt x="539" y="952" on="1"/>
        <pt x="375" y="952" on="1"/>
      </contour>
    </TTGlyph>
    <TTGlyph name="uni2CC2" xMin="125" yMin="-399" xMax="1989" yMax="2138">
      <contour>
        <pt x="645" y="1849" on="1"/>
        <pt x="979" y="1849" on="1"/>
        <pt x="979" y="2130" on="1"/>
        <pt x="1124" y="2130" on="1"/>
        <pt x="1124" y="1849" on="1"/>
        <pt x="1458" y="1849" on="1"/>
        <pt x="1458" y="1712" on="1"/>
        <pt x="1124" y="1712" on="1"/>
        <pt x="1124" y="1569" on="1"/>
        <pt x="979" y="1569" on="1"/>
        <pt x="979" y="1712" on="1"/>
        <pt x="645" y="1712" on="1"/>
      </contour>
      <contour>
        <pt x="659" y="2038" on="1"/>
        <pt x="659" y="2091" on="0"/>
        <pt x="715" y="2138" on="0"/>
        <pt x="756" y="2138" on="1"/>
        <pt x="802" y="2138" on="0"/>
        <pt x="852" y="2084" on="0"/>
        <pt x="852" y="2038" on="1"/>
        <pt x="852" y="1985" on="0"/>
        <pt x="794" y="1935" on="0"/>
        <pt x="756" y="1935" on="1"/>
        <pt x="715" y="1935" on="0"/>
        <pt x="659" y="1985" on="0"/>
      </contour>
      <contour>
        <pt x="1249" y="2038" on="1"/>
        <pt x="1249" y="2091" on="0"/>
        <pt x="1305" y="2138" on="0"/>
        <pt x="1343" y="2138" on="1"/>
        <pt x="1382" y="2138" on="0"/>
        <pt x="1440" y="2091" on="0"/>
        <pt x="1440" y="2038" on="1"/>
        <pt x="1440" y="1985" on="0"/>
        <pt x="1382" y="1935" on="0"/>
        <pt x="1343" y="1935" on="1"/>
        <pt x="1305" y="1935" on="0"/>
        <pt x="1249" y="1985" on="0"/>
      </contour>
      <contour>
        <pt x="668" y="-20" on="1"/>
        <pt x="505" y="-20" on="0"/>
        <pt x="259" y="157" on="0"/>
        <pt x="125" y="491" on="0"/>
        <pt x="125" y="719" on="1"/>
        <pt x="125" y="1253" on="0"/>
        <pt x="555" y="1493" on="1"/>
        <pt x="659" y="1370" on="1"/>
        <pt x="483" y="1264" on="0"/>
        <pt x="317" y="946" on="0"/>
        <pt x="317" y="719" on="1"/>
        <pt x="317" y="544" on="0"/>
        <pt x="406" y="284" on="0"/>
        <pt x="569" y="147" on="0"/>
        <pt x="674" y="147" on="1"/>
        <pt x="830" y="147" on="0"/>
        <pt x="963" y="392" on="0"/>
        <pt x="963" y="653" on="1"/>
        <pt x="963" y="1421" on="1"/>
        <pt x="1147" y="1421" on="1"/>
        <pt x="1147" y="653" on="1"/>
        <pt x="1147" y="388" on="0"/>
        <pt x="1286" y="147" on="0"/>
        <pt x="1438" y="147" on="1"/>
        <pt x="1547" y="147" on="0"/>
        <pt x="1707" y="280" on="0"/>
        <pt x="1794" y="537" on="0"/>
        <pt x="1794" y="719" on="1"/>
        <pt x="1794" y="943" on="0"/>
        <pt x="1612" y="1284" on="0"/>
        <pt x="1444" y="1380" on="1"/>
        <pt x="1579" y="1497" on="1"/>
        <pt x="1778" y="1379" on="0"/>
        <pt x="1989" y="982" on="0"/>
        <pt x="1989" y="731" on="1"/>
        <pt x="1989" y="384" on="0"/>
        <pt x="1794" y="-127" on="0"/>
        <pt x="1422" y="-399" on="0"/>
        <pt x="1165" y="-399" on="1"/>
        <pt x="1041" y="-399" on="0"/>
        <pt x="965" y="-373" on="1"/>
        <pt x="965" y="-209" on="1"/>
        <pt x="1051" y="-236" on="0"/>
        <pt x="1163" y="-236" on="1"/>
        <pt x="1350" y="-236" on="0"/>
        <pt x="1623" y="-64" on="0"/>
        <pt x="1712" y="115" on="1"/>
        <pt x="1706" y="121" on="1"/>
        <pt x="1636" y="43" on="0"/>
        <pt x="1493" y="-20" on="0"/>
        <pt x="1399" y="-20" on="1"/>
        <pt x="1272" y="-20" on="0"/>
        <pt x="1097" y="134" on="0"/>
        <pt x="1057" y="289" on="1"/>
        <pt x="1051" y="289" on="1"/>
        <pt x="949" y="-20" on="0"/>
      </contour>
    </TTGlyph>
    <TTGlyph name="uni2CC3" xMin="113" yMin="-389" xMax="1559" yMax="1798">
      <contour>
        <pt x="428" y="1509" on="1"/>
        <pt x="762" y="1509" on="1"/>
        <pt x="762" y="1790" on="1"/>
        <pt x="907" y="1790" on="1"/>
        <pt x="907" y="1509" on="1"/>
        <pt x="1241" y="1509" on="1"/>
        <pt x="1241" y="1372" on="1"/>
        <pt x="907" y="1372" on="1"/>
        <pt x="907" y="1229" on="1"/>
        <pt x="762" y="1229" on="1"/>
        <pt x="762" y="1372" on="1"/>
        <pt x="428" y="1372" on="1"/>
      </contour>
      <contour>
        <pt x="442" y="1698" on="1"/>
        <pt x="442" y="1751" on="0"/>
        <pt x="498" y="1798" on="0"/>
        <pt x="539" y="1798" on="1"/>
        <pt x="585" y="1798" on="0"/>
        <pt x="635" y="1744" on="0"/>
        <pt x="635" y="1698" on="1"/>
        <pt x="635" y="1645" on="0"/>
        <pt x="577" y="1595" on="0"/>
        <pt x="539" y="1595" on="1"/>
        <pt x="498" y="1595" on="0"/>
        <pt x="442" y="1645" on="0"/>
      </contour>
      <contour>
        <pt x="1032" y="1698" on="1"/>
        <pt x="1032" y="1751" on="0"/>
        <pt x="1088" y="1798" on="0"/>
        <pt x="1126" y="1798" on="1"/>
        <pt x="1165" y="1798" on="0"/>
        <pt x="1223" y="1751" on="0"/>
        <pt x="1223" y="1698" on="1"/>
        <pt x="1223" y="1645" on="0"/>
        <pt x="1165" y="1595" on="0"/>
        <pt x="1126" y="1595" on="1"/>
        <pt x="1088" y="1595" on="0"/>
        <pt x="1032" y="1645" on="0"/>
      </contour>
      <contour>
        <pt x="1559" y="545" on="1"/>
        <pt x="1559" y="269" on="0"/>
        <pt x="1402" y="-152" on="0"/>
        <pt x="1101" y="-389" on="0"/>
        <pt x="915" y="-389" on="1"/>
        <pt x="827" y="-389" on="0"/>
        <pt x="764" y="-369" on="1"/>
        <pt x="764" y="-205" on="1"/>
        <pt x="823" y="-223" on="0"/>
        <pt x="913" y="-223" on="1"/>
        <pt x="1062" y="-223" on="0"/>
        <pt x="1263" y="-75" on="0"/>
        <pt x="1339" y="96" on="1"/>
        <pt x="1333" y="100" on="1"/>
        <pt x="1285" y="42" on="0"/>
        <pt x="1173" y="-20" on="0"/>
        <pt x="1098" y="-20" on="1"/>
        <pt x="901" y="-20" on="0"/>
        <pt x="838" y="213" on="1"/>
        <pt x="831" y="213" on="1"/>
        <pt x="796" y="105" on="0"/>
        <pt x="635" y="-20" on="0"/>
        <pt x="510" y="-20" on="1"/>
        <pt x="395" y="-20" on="0"/>
        <pt x="214" y="117" on="0"/>
        <pt x="113" y="374" on="0"/>
        <pt x="113" y="547" on="1"/>
        <pt x="113" y="736" on="0"/>
        <pt x="255" y="1040" on="0"/>
        <pt x="397" y="1147" on="1"/>
        <pt x="526" y="1047" on="1"/>
        <pt x="403" y="950" on="0"/>
        <pt x="293" y="708" on="0"/>
        <pt x="293" y="547" on="1"/>
        <pt x="293" y="357" on="0"/>
        <pt x="417" y="139" on="0"/>
        <pt x="526" y="139" on="1"/>
        <pt x="633" y="139" on="0"/>
        <pt x="750" y="309" on="0"/>
        <pt x="750" y="457" on="1"/>
        <pt x="750" y="1098" on="1"/>
        <pt x="922" y="1098" on="1"/>
        <pt x="922" y="457" on="1"/>
        <pt x="922" y="305" on="0"/>
        <pt x="1031" y="139" on="0"/>
        <pt x="1128" y="139" on="1"/>
        <pt x="1198" y="139" on="0"/>
        <pt x="1313" y="239" on="0"/>
        <pt x="1378" y="426" on="0"/>
        <pt x="1378" y="553" on="1"/>
        <pt x="1378" y="845" on="0"/>
        <pt x="1151" y="1047" on="1"/>
        <pt x="1284" y="1147" on="1"/>
        <pt x="1559" y="918" on="0"/>
      </contour>
    </TTGlyph>
    <TTGlyph name="uni2CC4" xMin="72" yMin="-20" xMax="1083" yMax="1462">
      <contour>
        <pt x="596" y="901" on="1"/>
        <pt x="735" y="897" on="0"/>
        <pt x="959" y="783" on="0"/>
        <pt x="1083" y="584" on="0"/>
        <pt x="1083" y="453" on="1"/>
        <pt x="1083" y="229" on="0"/>
        <pt x="773" y="-20" on="0"/>
        <pt x="494" y="-20" on="1"/>
        <pt x="235" y="-20" on="0"/>
        <pt x="72" y="59" on="1"/>
        <pt x="72" y="227" on="1"/>
        <pt x="172" y="179" on="0"/>
        <pt x="398" y="131" on="0"/>
        <pt x="496" y="131" on="1"/>
        <pt x="695" y="131" on="0"/>
        <pt x="891" y="299" on="0"/>
        <pt x="891" y="455" on="1"/>
        <pt x="891" y="597" on="0"/>
        <pt x="689" y="752" on="0"/>
        <pt x="496" y="752" on="1"/>
        <pt x="369" y="752" on="1"/>
        <pt x="369" y="885" on="1"/>
        <pt x="791" y="1298" on="1"/>
        <pt x="113" y="1298" on="1"/>
        <pt x="113" y="1462" on="1"/>
        <pt x="1022" y="1462" on="1"/>
        <pt x="1022" y="1317" on="1"/>
      </contour>
    </TTGlyph>
    <TTGlyph name="uni2CC5" xMin="29" yMin="-389" xMax="950" yMax="1098">
      <contour>
        <pt x="446" y="528" on="1"/>
        <pt x="689" y="524" on="0"/>
        <pt x="950" y="293" on="0"/>
        <pt x="950" y="88" on="1"/>
        <pt x="950" y="-126" on="0"/>
        <pt x="642" y="-389" on="0"/>
        <pt x="391" y="-389" on="1"/>
        <pt x="184" y="-389" on="0"/>
        <pt x="29" y="-322" on="1"/>
        <pt x="29" y="-158" on="1"/>
        <pt x="216" y="-240" on="0"/>
        <pt x="399" y="-240" on="1"/>
        <pt x="569" y="-240" on="0"/>
        <pt x="770" y="-64" on="0"/>
        <pt x="770" y="84" on="1"/>
        <pt x="770" y="385" on="0"/>
        <pt x="336" y="385" on="1"/>
        <pt x="236" y="385" on="1"/>
        <pt x="236" y="510" on="1"/>
        <pt x="684" y="946" on="1"/>
        <pt x="57" y="946" on="1"/>
        <pt x="57" y="1098" on="1"/>
        <pt x="895" y="1098" on="1"/>
        <pt x="895" y="967" on="1"/>
      </contour>
    </TTGlyph>
    <TTGlyph name="uni2CC6" xMin="29" yMin="0" xMax="872" yMax="1462">
      <contour>
        <pt x="872" y="1462" on="1"/>
        <pt x="205" y="0" on="1"/>
        <pt x="29" y="0" on="1"/>
        <pt x="696" y="1462" on="1"/>
      </contour>
    </TTGlyph>
    <TTGlyph name="uni2CC7" xMin="20" yMin="0" xMax="758" yMax="1098">
      <contour>
        <pt x="758" y="1098" on="1"/>
        <pt x="197" y="0" on="1"/>
        <pt x="20" y="0" on="1"/>
        <pt x="582" y="1098" on="1"/>
      </contour>
    </TTGlyph>
    <TTGlyph name="uni2CC8" xMin="80" yMin="-203" xMax="1110" yMax="1483">
      <contour>
        <pt x="430" y="705" on="1"/>
        <pt x="807" y="705" on="1"/>
        <pt x="889" y="821" on="0"/>
        <pt x="889" y="983" on="1"/>
        <pt x="889" y="1143" on="0"/>
        <pt x="718" y="1321" on="0"/>
        <pt x="571" y="1321" on="1"/>
        <pt x="430" y="1321" on="0"/>
        <pt x="270" y="1178" on="0"/>
        <pt x="270" y="1053" on="1"/>
        <pt x="270" y="1018" on="0"/>
        <pt x="294" y="933" on="0"/>
        <pt x="311" y="903" on="1"/>
        <pt x="141" y="838" on="1"/>
        <pt x="112" y="886" on="0"/>
        <pt x="80" y="1006" on="0"/>
        <pt x="80" y="1059" on="1"/>
        <pt x="80" y="1186" on="0"/>
        <pt x="206" y="1378" on="0"/>
        <pt x="436" y="1483" on="0"/>
        <pt x="584" y="1483" on="1"/>
        <pt x="739" y="1483" on="0"/>
        <pt x="965" y="1367" on="0"/>
        <pt x="1085" y="1154" on="0"/>
        <pt x="1085" y="1016" on="1"/>
        <pt x="1085" y="845" on="0"/>
        <pt x="1016" y="705" on="1"/>
        <pt x="1110" y="705" on="1"/>
        <pt x="1110" y="578" on="1"/>
        <pt x="930" y="578" on="1"/>
        <pt x="745" y="360" on="0"/>
        <pt x="322" y="252" on="1"/>
        <pt x="359" y="107" on="0"/>
        <pt x="600" y="-27" on="0"/>
        <pt x="805" y="-27" on="1"/>
        <pt x="950" y="-27" on="0"/>
        <pt x="1047" y="4" on="1"/>
        <pt x="1047" y="-168" on="1"/>
        <pt x="998" y="-183" on="0"/>
        <pt x="850" y="-203" on="0"/>
        <pt x="801" y="-203" on="1"/>
        <pt x="500" y="-203" on="0"/>
        <pt x="143" y="81" on="0"/>
        <pt x="100" y="354" on="1"/>
        <pt x="491" y="435" on="0"/>
        <pt x="682" y="578" on="1"/>
        <pt x="430" y="578" on="1"/>
      </contour>
    </TTGlyph>
    <TTGlyph name="uni2CC9" xMin="102" yMin="-274" xMax="997" yMax="1118">
      <contour>
        <pt x="358" y="510" on="1"/>
        <pt x="725" y="510" on="1"/>
        <pt x="786" y="598" on="0"/>
        <pt x="786" y="725" on="1"/>
        <pt x="786" y="839" on="0"/>
        <pt x="664" y="971" on="0"/>
        <pt x="551" y="971" on="1"/>
        <pt x="435" y="971" on="0"/>
        <pt x="307" y="859" on="0"/>
        <pt x="307" y="754" on="1"/>
        <pt x="307" y="695" on="0"/>
        <pt x="344" y="633" on="1"/>
        <pt x="184" y="571" on="1"/>
        <pt x="129" y="660" on="0"/>
        <pt x="129" y="758" on="1"/>
        <pt x="129" y="859" on="0"/>
        <pt x="235" y="1024" on="0"/>
        <pt x="430" y="1118" on="0"/>
        <pt x="563" y="1118" on="1"/>
        <pt x="753" y="1118" on="0"/>
        <pt x="969" y="913" on="0"/>
        <pt x="969" y="731" on="1"/>
        <pt x="969" y="608" on="0"/>
        <pt x="922" y="510" on="1"/>
        <pt x="997" y="510" on="1"/>
        <pt x="997" y="395" on="1"/>
        <pt x="844" y="395" on="1"/>
        <pt x="764" y="308" on="0"/>
        <pt x="502" y="179" on="0"/>
        <pt x="293" y="131" on="1"/>
        <pt x="358" y="-125" on="0"/>
        <pt x="725" y="-125" on="1"/>
        <pt x="786" y="-125" on="0"/>
        <pt x="939" y="-96" on="0"/>
        <pt x="987" y="-72" on="1"/>
        <pt x="987" y="-225" on="1"/>
        <pt x="931" y="-247" on="0"/>
        <pt x="772" y="-274" on="0"/>
        <pt x="700" y="-274" on="1"/>
        <pt x="437" y="-274" on="0"/>
        <pt x="144" y="-29" on="0"/>
        <pt x="102" y="231" on="1"/>
        <pt x="438" y="296" on="0"/>
        <pt x="600" y="395" on="1"/>
        <pt x="358" y="395" on="1"/>
      </contour>
    </TTGlyph>
    <TTGlyph name="uni2CCA" xMin="92" yMin="-20" xMax="1090" yMax="1483">
      <contour>
        <pt x="899" y="844" on="1"/>
        <pt x="899" y="1076" on="0"/>
        <pt x="734" y="1327" on="0"/>
        <pt x="578" y="1327" on="1"/>
        <pt x="438" y="1327" on="0"/>
        <pt x="279" y="1176" on="0"/>
        <pt x="279" y="1047" on="1"/>
        <pt x="279" y="913" on="0"/>
        <pt x="442" y="761" on="0"/>
        <pt x="614" y="733" on="1"/>
        <pt x="575" y="578" on="1"/>
        <pt x="351" y="605" on="0"/>
        <pt x="92" y="846" on="0"/>
        <pt x="92" y="1040" on="1"/>
        <pt x="92" y="1241" on="0"/>
        <pt x="358" y="1483" on="0"/>
        <pt x="578" y="1483" on="1"/>
        <pt x="823" y="1483" on="0"/>
        <pt x="1090" y="1159" on="0"/>
        <pt x="1090" y="866" on="1"/>
        <pt x="1090" y="599" on="0"/>
        <pt x="880" y="200" on="0"/>
        <pt x="471" y="-20" on="0"/>
        <pt x="203" y="-20" on="1"/>
        <pt x="203" y="147" on="1"/>
        <pt x="532" y="147" on="0"/>
        <pt x="899" y="502" on="0"/>
      </contour>
    </TTGlyph>
    <TTGlyph name="uni2CCB" xMin="104" yMin="-489" xMax="1090" yMax="1118">
      <contour>
        <pt x="899" y="479" on="1"/>
        <pt x="899" y="717" on="0"/>
        <pt x="734" y="967" on="0"/>
        <pt x="582" y="967" on="1"/>
        <pt x="450" y="967" on="0"/>
        <pt x="291" y="796" on="0"/>
        <pt x="291" y="655" on="1"/>
        <pt x="291" y="520" on="0"/>
        <pt x="451" y="353" on="0"/>
        <pt x="631" y="305" on="1"/>
        <pt x="567" y="150" on="1"/>
        <pt x="329" y="208" on="0"/>
        <pt x="104" y="449" on="0"/>
        <pt x="104" y="639" on="1"/>
        <pt x="104" y="773" on="0"/>
        <pt x="224" y="992" on="0"/>
        <pt x="447" y="1118" on="0"/>
        <pt x="588" y="1118" on="1"/>
        <pt x="828" y="1118" on="0"/>
        <pt x="1090" y="789" on="0"/>
        <pt x="1090" y="487" on="1"/>
        <pt x="1090" y="207" on="0"/>
        <pt x="863" y="-237" on="0"/>
        <pt x="455" y="-489" on="0"/>
        <pt x="213" y="-489" on="1"/>
        <pt x="213" y="-326" on="1"/>
        <pt x="409" y="-326" on="0"/>
        <pt x="724" y="-125" on="0"/>
        <pt x="899" y="241" on="0"/>
      </contour>
    </TTGlyph>
    <TTGlyph name="uni2CCC" xMin="78" yMin="-20" xMax="1094" yMax="1483">
      <contour>
        <pt x="1063" y="1120" on="1"/>
        <pt x="1063" y="978" on="0"/>
        <pt x="881" y="797" on="0"/>
        <pt x="717" y="772" on="1"/>
        <pt x="717" y="764" on="1"/>
        <pt x="903" y="739" on="0"/>
        <pt x="1094" y="559" on="0"/>
        <pt x="1094" y="414" on="1"/>
        <pt x="1094" y="209" on="0"/>
        <pt x="784" y="-20" on="0"/>
        <pt x="504" y="-20" on="1"/>
        <pt x="241" y="-20" on="0"/>
        <pt x="78" y="59" on="1"/>
        <pt x="78" y="227" on="1"/>
        <pt x="177" y="180" on="0"/>
        <pt x="404" y="131" on="0"/>
        <pt x="502" y="131" on="1"/>
        <pt x="700" y="131" on="0"/>
        <pt x="901" y="277" on="0"/>
        <pt x="901" y="414" on="1"/>
        <pt x="901" y="545" on="0"/>
        <pt x="675" y="680" on="0"/>
        <pt x="451" y="680" on="1"/>
        <pt x="242" y="680" on="1"/>
        <pt x="242" y="834" on="1"/>
        <pt x="440" y="834" on="1"/>
        <pt x="657" y="834" on="0"/>
        <pt x="872" y="979" on="0"/>
        <pt x="872" y="1102" on="1"/>
        <pt x="872" y="1208" on="0"/>
        <pt x="713" y="1331" on="0"/>
        <pt x="578" y="1331" on="1"/>
        <pt x="464" y="1331" on="0"/>
        <pt x="281" y="1277" on="0"/>
        <pt x="172" y="1206" on="1"/>
        <pt x="84" y="1331" on="1"/>
        <pt x="295" y="1483" on="0"/>
        <pt x="580" y="1483" on="1"/>
        <pt x="805" y="1483" on="0"/>
        <pt x="1063" y="1287" on="0"/>
      </contour>
    </TTGlyph>
    <TTGlyph name="uni2CCD" xMin="57" yMin="-389" xMax="954" yMax="1118">
      <contour>
        <pt x="901" y="754" on="1"/>
        <pt x="901" y="619" on="0"/>
        <pt x="746" y="445" on="0"/>
        <pt x="604" y="420" on="1"/>
        <pt x="604" y="412" on="1"/>
        <pt x="772" y="389" on="0"/>
        <pt x="954" y="209" on="0"/>
        <pt x="954" y="59" on="1"/>
        <pt x="954" y="-147" on="0"/>
        <pt x="666" y="-389" on="0"/>
        <pt x="412" y="-389" on="1"/>
        <pt x="212" y="-389" on="0"/>
        <pt x="57" y="-322" on="1"/>
        <pt x="57" y="-158" on="1"/>
        <pt x="244" y="-240" on="0"/>
        <pt x="414" y="-240" on="1"/>
        <pt x="589" y="-240" on="0"/>
        <pt x="772" y="-86" on="0"/>
        <pt x="772" y="57" on="1"/>
        <pt x="772" y="195" on="0"/>
        <pt x="572" y="328" on="0"/>
        <pt x="358" y="328" on="1"/>
        <pt x="266" y="328" on="1"/>
        <pt x="266" y="481" on="1"/>
        <pt x="360" y="481" on="1"/>
        <pt x="540" y="481" on="0"/>
        <pt x="727" y="612" on="0"/>
        <pt x="727" y="741" on="1"/>
        <pt x="727" y="847" on="0"/>
        <pt x="603" y="967" on="0"/>
        <pt x="487" y="967" on="1"/>
        <pt x="402" y="967" on="0"/>
        <pt x="252" y="917" on="0"/>
        <pt x="156" y="846" on="1"/>
        <pt x="76" y="969" on="1"/>
        <pt x="254" y="1118" on="0"/>
        <pt x="485" y="1118" on="1"/>
        <pt x="681" y="1118" on="0"/>
        <pt x="901" y="928" on="0"/>
      </contour>
    </TTGlyph>
    <TTGlyph name="uni2CCE" xMin="14" yMin="-334" xMax="1192" yMax="1462">
      <contour>
        <pt x="195" y="-334" on="1"/>
        <pt x="14" y="-334" on="1"/>
        <pt x="420" y="1462" on="1"/>
        <pt x="643" y="1462" on="1"/>
        <pt x="1192" y="1462" on="0"/>
        <pt x="1192" y="1032" on="1"/>
        <pt x="1192" y="809" on="0"/>
        <pt x="888" y="569" on="0"/>
        <pt x="608" y="569" on="1"/>
        <pt x="526" y="569" on="1"/>
        <pt x="526" y="727" on="1"/>
        <pt x="588" y="727" on="1"/>
        <pt x="806" y="727" on="0"/>
        <pt x="1001" y="869" on="0"/>
        <pt x="1001" y="1024" on="1"/>
        <pt x="1001" y="1165" on="0"/>
        <pt x="820" y="1305" on="0"/>
        <pt x="627" y="1305" on="1"/>
        <pt x="567" y="1305" on="1"/>
      </contour>
    </TTGlyph>
    <TTGlyph name="uni2CCF" xMin="-47" yMin="-489" xMax="1055" yMax="1100">
      <contour>
        <pt x="131" y="-489" on="1"/>
        <pt x="-47" y="-489" on="1"/>
        <pt x="317" y="1100" on="1"/>
        <pt x="545" y="1100" on="1"/>
        <pt x="1055" y="1100" on="0"/>
        <pt x="1055" y="686" on="1"/>
        <pt x="1055" y="475" on="0"/>
        <pt x="773" y="250" on="0"/>
        <pt x="512" y="250" on="1"/>
        <pt x="440" y="250" on="1"/>
        <pt x="440" y="393" on="1"/>
        <pt x="494" y="393" on="1"/>
        <pt x="692" y="393" on="0"/>
        <pt x="870" y="531" on="0"/>
        <pt x="870" y="676" on="1"/>
        <pt x="870" y="818" on="0"/>
        <pt x="700" y="950" on="0"/>
        <pt x="535" y="950" on="1"/>
        <pt x="465" y="950" on="1"/>
      </contour>
    </TTGlyph>
    <TTGlyph name="uni2CD0" xMin="199" yMin="0" xMax="1022" yMax="1462">
      <contour>
        <pt x="199" y="0" on="1"/>
        <pt x="199" y="1462" on="1"/>
        <pt x="383" y="1462" on="1"/>
        <pt x="383" y="164" on="1"/>
        <pt x="1022" y="164" on="1"/>
        <pt x="1022" y="0" on="1"/>
      </contour>
    </TTGlyph>
    <TTGlyph name="uni2CD1" xMin="174" yMin="0" xMax="854" yMax="1098">
      <contour>
        <pt x="174" y="1098" on="1"/>
        <pt x="354" y="1098" on="1"/>
        <pt x="354" y="150" on="1"/>
        <pt x="854" y="150" on="1"/>
        <pt x="854" y="0" on="1"/>
        <pt x="174" y="0" on="1"/>
      </contour>
    </TTGlyph>
    <TTGlyph name="uni2CD2" xMin="82" yMin="-20" xMax="1079" yMax="1483">
      <contour>
        <pt x="272" y="618" on="1"/>
        <pt x="272" y="386" on="0"/>
        <pt x="437" y="135" on="0"/>
        <pt x="594" y="135" on="1"/>
        <pt x="734" y="135" on="0"/>
        <pt x="893" y="286" on="0"/>
        <pt x="893" y="416" on="1"/>
        <pt x="893" y="550" on="0"/>
        <pt x="726" y="701" on="0"/>
        <pt x="553" y="729" on="1"/>
        <pt x="596" y="885" on="1"/>
        <pt x="822" y="856" on="0"/>
        <pt x="1079" y="613" on="0"/>
        <pt x="1079" y="422" on="1"/>
        <pt x="1079" y="218" on="0"/>
        <pt x="811" y="-20" on="0"/>
        <pt x="594" y="-20" on="1"/>
        <pt x="434" y="-20" on="0"/>
        <pt x="204" y="121" on="0"/>
        <pt x="82" y="395" on="0"/>
        <pt x="82" y="596" on="1"/>
        <pt x="82" y="865" on="0"/>
        <pt x="292" y="1264" on="0"/>
        <pt x="702" y="1483" on="0"/>
        <pt x="969" y="1483" on="1"/>
        <pt x="969" y="1315" on="1"/>
        <pt x="637" y="1315" on="0"/>
        <pt x="272" y="959" on="0"/>
      </contour>
    </TTGlyph>
    <TTGlyph name="uni2CD3" xMin="106" yMin="-20" xMax="1090" yMax="1511">
      <contour>
        <pt x="293" y="586" on="1"/>
        <pt x="293" y="361" on="0"/>
        <pt x="450" y="131" on="0"/>
        <pt x="612" y="131" on="1"/>
        <pt x="747" y="131" on="0"/>
        <pt x="909" y="297" on="0"/>
        <pt x="909" y="434" on="1"/>
        <pt x="909" y="518" on="0"/>
        <pt x="840" y="637" on="0"/>
        <pt x="702" y="720" on="0"/>
        <pt x="565" y="758" on="1"/>
        <pt x="621" y="907" on="1"/>
        <pt x="801" y="864" on="0"/>
        <pt x="998" y="743" on="0"/>
        <pt x="1090" y="565" on="0"/>
        <pt x="1090" y="446" on="1"/>
        <pt x="1090" y="315" on="0"/>
        <pt x="969" y="101" on="0"/>
        <pt x="748" y="-20" on="0"/>
        <pt x="606" y="-20" on="1"/>
        <pt x="357" y="-20" on="0"/>
        <pt x="106" y="285" on="0"/>
        <pt x="106" y="578" on="1"/>
        <pt x="106" y="850" on="0"/>
        <pt x="325" y="1274" on="0"/>
        <pt x="732" y="1511" on="0"/>
        <pt x="981" y="1511" on="1"/>
        <pt x="981" y="1346" on="1"/>
        <pt x="777" y="1346" on="0"/>
        <pt x="465" y="1164" on="0"/>
        <pt x="293" y="819" on="0"/>
      </contour>
    </TTGlyph>
    <TTGlyph name="uni2CD4" xMin="23" yMin="-334" xMax="631" yMax="1477">
      <contour>
        <pt x="23" y="997" on="1"/>
        <pt x="36" y="1224" on="0"/>
        <pt x="294" y="1477" on="0"/>
        <pt x="504" y="1477" on="1"/>
        <pt x="583" y="1477" on="0"/>
        <pt x="631" y="1466" on="1"/>
        <pt x="631" y="1317" on="1"/>
        <pt x="583" y="1329" on="0"/>
        <pt x="508" y="1329" on="1"/>
        <pt x="389" y="1329" on="0"/>
        <pt x="239" y="1230" on="0"/>
        <pt x="219" y="1137" on="1"/>
        <pt x="489" y="1137" on="1"/>
        <pt x="489" y="-334" on="1"/>
        <pt x="305" y="-334" on="1"/>
        <pt x="305" y="997" on="1"/>
      </contour>
    </TTGlyph>
    <TTGlyph name="uni2CD5" xMin="39" yMin="-492" xMax="596" yMax="1108">
      <contour>
        <pt x="39" y="659" on="1"/>
        <pt x="55" y="873" on="0"/>
        <pt x="289" y="1108" on="0"/>
        <pt x="477" y="1108" on="1"/>
        <pt x="545" y="1108" on="0"/>
        <pt x="596" y="1100" on="1"/>
        <pt x="596" y="952" on="1"/>
        <pt x="552" y="963" on="0"/>
        <pt x="481" y="963" on="1"/>
        <pt x="283" y="963" on="0"/>
        <pt x="240" y="799" on="1"/>
        <pt x="494" y="799" on="1"/>
        <pt x="494" y="-492" on="1"/>
        <pt x="313" y="-492" on="1"/>
        <pt x="313" y="659" on="1"/>
      </contour>
    </TTGlyph>
    <TTGlyph name="uni2CD6" xMin="-12" yMin="-342" xMax="1176" yMax="1462">
      <contour>
        <pt x="246" y="-184" on="1"/>
        <pt x="301" y="-184" on="0"/>
        <pt x="352" y="-106" on="0"/>
        <pt x="352" y="-29" on="1"/>
        <pt x="352" y="0" on="1"/>
        <pt x="315" y="0" on="1"/>
        <pt x="238" y="0" on="0"/>
        <pt x="164" y="-48" on="0"/>
        <pt x="164" y="-102" on="1"/>
        <pt x="164" y="-143" on="0"/>
        <pt x="212" y="-184" on="0"/>
      </contour>
      <contour>
        <pt x="537" y="0" on="1"/>
        <pt x="537" y="-166" on="0"/>
        <pt x="380" y="-342" on="0"/>
        <pt x="231" y="-342" on="1"/>
        <pt x="118" y="-342" on="0"/>
        <pt x="-12" y="-212" on="0"/>
        <pt x="-12" y="-100" on="1"/>
        <pt x="-12" y="23" on="0"/>
        <pt x="159" y="164" on="0"/>
        <pt x="322" y="164" on="1"/>
        <pt x="352" y="164" on="1"/>
        <pt x="352" y="1462" on="1"/>
        <pt x="537" y="1462" on="1"/>
        <pt x="537" y="164" on="1"/>
        <pt x="1176" y="164" on="1"/>
        <pt x="1176" y="0" on="1"/>
      </contour>
    </TTGlyph>
    <TTGlyph name="uni2CD7" xMin="-12" yMin="-332" xMax="1016" yMax="1098">
      <contour>
        <pt x="526" y="0" on="1"/>
        <pt x="526" y="-161" on="0"/>
        <pt x="371" y="-332" on="0"/>
        <pt x="225" y="-332" on="1"/>
        <pt x="112" y="-332" on="0"/>
        <pt x="-12" y="-210" on="0"/>
        <pt x="-12" y="-100" on="1"/>
        <pt x="-12" y="20" on="0"/>
        <pt x="168" y="152" on="0"/>
        <pt x="332" y="152" on="1"/>
        <pt x="346" y="152" on="1"/>
        <pt x="346" y="1098" on="1"/>
        <pt x="526" y="1098" on="1"/>
        <pt x="526" y="152" on="1"/>
        <pt x="1016" y="152" on="1"/>
        <pt x="1016" y="0" on="1"/>
      </contour>
      <contour>
        <pt x="240" y="-186" on="1"/>
        <pt x="346" y="-186" on="0"/>
        <pt x="346" y="-29" on="1"/>
        <pt x="346" y="0" on="1"/>
        <pt x="309" y="0" on="1"/>
        <pt x="232" y="0" on="0"/>
        <pt x="158" y="-48" on="0"/>
        <pt x="158" y="-102" on="1"/>
        <pt x="158" y="-143" on="0"/>
        <pt x="206" y="-186" on="0"/>
      </contour>
    </TTGlyph>
    <TTGlyph name="uni2CD8" xMin="199" yMin="0" xMax="1296" yMax="1462">
      <contour>
        <pt x="199" y="1462" on="1"/>
        <pt x="381" y="1462" on="1"/>
        <pt x="381" y="162" on="1"/>
        <pt x="1112" y="162" on="1"/>
        <pt x="1112" y="1462" on="1"/>
        <pt x="1296" y="1462" on="1"/>
        <pt x="1296" y="0" on="1"/>
        <pt x="199" y="0" on="1"/>
      </contour>
    </TTGlyph>
    <TTGlyph name="uni2CD9" xMin="174" yMin="0" xMax="1102" yMax="1098">
      <contour>
        <pt x="922" y="1098" on="1"/>
        <pt x="1102" y="1098" on="1"/>
        <pt x="1102" y="0" on="1"/>
        <pt x="174" y="0" on="1"/>
        <pt x="174" y="1098" on="1"/>
        <pt x="354" y="1098" on="1"/>
        <pt x="354" y="154" on="1"/>
        <pt x="922" y="154" on="1"/>
      </contour>
    </TTGlyph>
    <TTGlyph name="uni2CDA" xMin="33" yMin="0" xMax="1636" yMax="1462">
      <contour>
        <pt x="854" y="1137" on="1"/>
        <pt x="700" y="1462" on="1"/>
        <pt x="905" y="1462" on="1"/>
        <pt x="1401" y="346" on="1"/>
        <pt x="1436" y="268" on="0"/>
        <pt x="1491" y="194" on="0"/>
        <pt x="1559" y="162" on="0"/>
        <pt x="1636" y="162" on="1"/>
        <pt x="1636" y="0" on="1"/>
        <pt x="319" y="0" on="1"/>
        <pt x="174" y="0" on="0"/>
        <pt x="33" y="139" on="0"/>
        <pt x="33" y="291" on="1"/>
        <pt x="207" y="291" on="1"/>
        <pt x="207" y="219" on="0"/>
        <pt x="275" y="162" on="0"/>
        <pt x="377" y="162" on="1"/>
        <pt x="578" y="569" on="1"/>
        <pt x="297" y="735" on="1"/>
        <pt x="358" y="829" on="1"/>
        <pt x="627" y="670" on="1"/>
      </contour>
      <contour>
        <pt x="984" y="162" on="1"/>
        <pt x="1131" y="162" on="0"/>
        <pt x="1235" y="154" on="1"/>
        <pt x="1239" y="158" on="1"/>
        <pt x="1183" y="185" on="0"/>
        <pt x="1016" y="294" on="1"/>
        <pt x="962" y="329" on="0"/>
        <pt x="711" y="483" on="1"/>
        <pt x="559" y="162" on="1"/>
      </contour>
      <contour>
        <pt x="760" y="588" on="1"/>
        <pt x="1014" y="428" on="1"/>
        <pt x="1135" y="354" on="0"/>
        <pt x="1266" y="246" on="1"/>
        <pt x="1270" y="250" on="1"/>
        <pt x="1222" y="312" on="0"/>
        <pt x="1153" y="479" on="1"/>
        <pt x="938" y="971" on="1"/>
      </contour>
    </TTGlyph>
    <TTGlyph name="uni2CDB" xMin="20" yMin="0" xMax="1327" yMax="1098">
      <contour>
        <pt x="670" y="829" on="1"/>
        <pt x="537" y="1098" on="1"/>
        <pt x="731" y="1098" on="1"/>
        <pt x="1128" y="276" on="1"/>
        <pt x="1154" y="224" on="0"/>
        <pt x="1204" y="169" on="0"/>
        <pt x="1266" y="145" on="0"/>
        <pt x="1327" y="145" on="1"/>
        <pt x="1327" y="0" on="1"/>
        <pt x="236" y="0" on="1"/>
        <pt x="20" y="0" on="0"/>
        <pt x="20" y="244" on="1"/>
        <pt x="174" y="244" on="1"/>
        <pt x="174" y="193" on="0"/>
        <pt x="225" y="145" on="0"/>
        <pt x="299" y="145" on="1"/>
        <pt x="455" y="430" on="1"/>
        <pt x="283" y="526" on="1"/>
        <pt x="334" y="612" on="1"/>
        <pt x="502" y="516" on="1"/>
      </contour>
      <contour>
        <pt x="657" y="145" on="1"/>
        <pt x="965" y="141" on="1"/>
        <pt x="967" y="145" on="1"/>
        <pt x="885" y="183" on="0"/>
        <pt x="586" y="356" on="1"/>
        <pt x="477" y="145" on="1"/>
      </contour>
      <contour>
        <pt x="633" y="449" on="1"/>
        <pt x="714" y="401" on="0"/>
        <pt x="858" y="315" on="0"/>
        <pt x="965" y="242" on="1"/>
        <pt x="969" y="246" on="1"/>
        <pt x="917" y="343" on="1"/>
        <pt x="889" y="399" on="1"/>
        <pt x="754" y="682" on="1"/>
      </contour>
    </TTGlyph>
    <TTGlyph name="uni2CDC" xMin="106" yMin="-20" xMax="1143" yMax="1563">
      <contour>
        <pt x="518" y="911" on="1"/>
        <pt x="401" y="971" on="0"/>
        <pt x="291" y="1068" on="0"/>
        <pt x="236" y="1182" on="0"/>
        <pt x="236" y="1257" on="1"/>
        <pt x="236" y="1390" on="0"/>
        <pt x="469" y="1563" on="0"/>
        <pt x="653" y="1563" on="1"/>
        <pt x="862" y="1563" on="0"/>
        <pt x="1090" y="1446" on="1"/>
        <pt x="1020" y="1294" on="1"/>
        <pt x="835" y="1401" on="0"/>
        <pt x="647" y="1401" on="1"/>
        <pt x="545" y="1401" on="0"/>
        <pt x="422" y="1318" on="0"/>
        <pt x="422" y="1253" on="1"/>
        <pt x="422" y="1206" on="0"/>
        <pt x="460" y="1139" on="0"/>
        <pt x="534" y="1083" on="0"/>
        <pt x="642" y="1029" on="0"/>
        <pt x="711" y="995" on="1"/>
        <pt x="874" y="917" on="0"/>
        <pt x="1051" y="766" on="0"/>
        <pt x="1143" y="581" on="0"/>
        <pt x="1143" y="463" on="1"/>
        <pt x="1143" y="321" on="0"/>
        <pt x="1016" y="101" on="0"/>
        <pt x="775" y="-20" on="0"/>
        <pt x="614" y="-20" on="1"/>
        <pt x="386" y="-20" on="0"/>
        <pt x="106" y="232" on="0"/>
        <pt x="106" y="438" on="1"/>
        <pt x="106" y="604" on="0"/>
        <pt x="314" y="845" on="0"/>
      </contour>
      <contour>
        <pt x="956" y="461" on="1"/>
        <pt x="956" y="574" on="0"/>
        <pt x="830" y="747" on="0"/>
        <pt x="674" y="829" on="1"/>
        <pt x="531" y="789" on="0"/>
        <pt x="377" y="688" on="0"/>
        <pt x="295" y="542" on="0"/>
        <pt x="295" y="442" on="1"/>
        <pt x="295" y="305" on="0"/>
        <pt x="468" y="139" on="0"/>
        <pt x="612" y="139" on="1"/>
        <pt x="774" y="139" on="0"/>
        <pt x="956" y="314" on="0"/>
      </contour>
    </TTGlyph>
    <TTGlyph name="uni2CDD" xMin="111" yMin="-20" xMax="1126" yMax="1556">
      <contour>
        <pt x="539" y="934" on="1"/>
        <pt x="400" y="1013" on="0"/>
        <pt x="285" y="1172" on="0"/>
        <pt x="285" y="1270" on="1"/>
        <pt x="285" y="1402" on="0"/>
        <pt x="484" y="1556" on="0"/>
        <pt x="653" y="1556" on="1"/>
        <pt x="757" y="1556" on="0"/>
        <pt x="947" y="1510" on="0"/>
        <pt x="1075" y="1446" on="1"/>
        <pt x="997" y="1305" on="1"/>
        <pt x="896" y="1361" on="0"/>
        <pt x="732" y="1409" on="0"/>
        <pt x="645" y="1409" on="1"/>
        <pt x="563" y="1409" on="0"/>
        <pt x="467" y="1333" on="0"/>
        <pt x="467" y="1268" on="1"/>
        <pt x="467" y="1199" on="0"/>
        <pt x="576" y="1092" on="0"/>
        <pt x="741" y="1001" on="1"/>
        <pt x="954" y="884" on="0"/>
        <pt x="1126" y="640" on="0"/>
        <pt x="1126" y="483" on="1"/>
        <pt x="1126" y="247" on="0"/>
        <pt x="856" y="-20" on="0"/>
        <pt x="614" y="-20" on="1"/>
        <pt x="385" y="-20" on="0"/>
        <pt x="111" y="228" on="0"/>
        <pt x="111" y="438" on="1"/>
        <pt x="111" y="617" on="0"/>
        <pt x="335" y="874" on="0"/>
      </contour>
      <contour>
        <pt x="940" y="481" on="1"/>
        <pt x="940" y="605" on="0"/>
        <pt x="821" y="783" on="0"/>
        <pt x="682" y="856" on="1"/>
        <pt x="493" y="811" on="0"/>
        <pt x="299" y="597" on="0"/>
        <pt x="299" y="436" on="1"/>
        <pt x="299" y="298" on="0"/>
        <pt x="469" y="129" on="0"/>
        <pt x="614" y="129" on="1"/>
        <pt x="772" y="129" on="0"/>
        <pt x="940" y="310" on="0"/>
      </contour>
    </TTGlyph>
    <TTGlyph name="uni2CDE" xMin="199" yMin="0" xMax="1016" yMax="1462">
      <contour>
        <pt x="383" y="162" on="1"/>
        <pt x="1016" y="162" on="1"/>
        <pt x="1016" y="0" on="1"/>
        <pt x="199" y="0" on="1"/>
        <pt x="199" y="1462" on="1"/>
        <pt x="1016" y="1462" on="1"/>
        <pt x="1016" y="1300" on="1"/>
        <pt x="383" y="1300" on="1"/>
      </contour>
    </TTGlyph>
    <TTGlyph name="uni2CDF" xMin="174" yMin="0" xMax="895" yMax="1098">
      <contour>
        <pt x="344" y="150" on="1"/>
        <pt x="895" y="150" on="1"/>
        <pt x="895" y="0" on="1"/>
        <pt x="174" y="0" on="1"/>
        <pt x="174" y="1098" on="1"/>
        <pt x="895" y="1098" on="1"/>
        <pt x="895" y="948" on="1"/>
        <pt x="344" y="948" on="1"/>
      </contour>
    </TTGlyph>
    <TTGlyph name="uni2CE0" xMin="143" yMin="-334" xMax="1575" yMax="1483">
      <contour>
        <pt x="926" y="516" on="1"/>
        <pt x="1152" y="528" on="0"/>
        <pt x="1384" y="773" on="0"/>
        <pt x="1384" y="995" on="1"/>
        <pt x="1384" y="1165" on="0"/>
        <pt x="1273" y="1325" on="0"/>
        <pt x="1157" y="1325" on="1"/>
        <pt x="926" y="1325" on="0"/>
        <pt x="926" y="1014" on="1"/>
      </contour>
      <contour>
        <pt x="741" y="1026" on="1"/>
        <pt x="741" y="1236" on="0"/>
        <pt x="966" y="1483" on="0"/>
        <pt x="1161" y="1483" on="1"/>
        <pt x="1575" y="1483" on="0"/>
        <pt x="1575" y="1004" on="1"/>
        <pt x="1575" y="822" on="0"/>
        <pt x="1422" y="538" on="0"/>
        <pt x="1132" y="371" on="0"/>
        <pt x="926" y="358" on="1"/>
        <pt x="926" y="-334" on="1"/>
        <pt x="741" y="-334" on="1"/>
        <pt x="741" y="358" on="1"/>
        <pt x="451" y="374" on="0"/>
        <pt x="143" y="682" on="0"/>
        <pt x="143" y="958" on="1"/>
        <pt x="143" y="1462" on="1"/>
        <pt x="328" y="1462" on="1"/>
        <pt x="328" y="971" on="1"/>
        <pt x="328" y="765" on="0"/>
        <pt x="544" y="527" on="0"/>
        <pt x="741" y="516" on="1"/>
      </contour>
    </TTGlyph>
    <TTGlyph name="uni2CE1" xMin="135" yMin="-492" xMax="1405" yMax="1118">
      <contour>
        <pt x="829" y="262" on="1"/>
        <pt x="1015" y="279" on="0"/>
        <pt x="1225" y="499" on="0"/>
        <pt x="1225" y="680" on="1"/>
        <pt x="1225" y="814" on="0"/>
        <pt x="1121" y="969" on="0"/>
        <pt x="1028" y="969" on="1"/>
        <pt x="936" y="969" on="0"/>
        <pt x="829" y="833" on="0"/>
        <pt x="829" y="694" on="1"/>
      </contour>
      <contour>
        <pt x="655" y="696" on="1"/>
        <pt x="655" y="895" on="0"/>
        <pt x="853" y="1118" on="0"/>
        <pt x="1030" y="1118" on="1"/>
        <pt x="1214" y="1118" on="0"/>
        <pt x="1405" y="899" on="0"/>
        <pt x="1405" y="678" on="1"/>
        <pt x="1405" y="440" on="0"/>
        <pt x="1101" y="125" on="0"/>
        <pt x="829" y="104" on="1"/>
        <pt x="829" y="-492" on="1"/>
        <pt x="655" y="-492" on="1"/>
        <pt x="655" y="104" on="1"/>
        <pt x="413" y="120" on="0"/>
        <pt x="135" y="417" on="0"/>
        <pt x="135" y="664" on="1"/>
        <pt x="135" y="1098" on="1"/>
        <pt x="313" y="1098" on="1"/>
        <pt x="313" y="694" on="1"/>
        <pt x="313" y="490" on="0"/>
        <pt x="479" y="284" on="0"/>
        <pt x="655" y="264" on="1"/>
      </contour>
    </TTGlyph>
    <TTGlyph name="uni2CE2" xMin="92" yMin="-334" xMax="1255" yMax="1462">
      <contour>
        <pt x="449" y="-170" on="1"/>
        <pt x="1073" y="-96" on="0"/>
        <pt x="1073" y="442" on="1"/>
        <pt x="1073" y="593" on="0"/>
        <pt x="926" y="835" on="0"/>
        <pt x="807" y="883" on="1"/>
        <pt x="807" y="567" on="1"/>
        <pt x="807" y="377" on="0"/>
        <pt x="621" y="166" on="0"/>
        <pt x="455" y="166" on="1"/>
        <pt x="290" y="166" on="0"/>
        <pt x="100" y="382" on="0"/>
        <pt x="100" y="573" on="1"/>
        <pt x="100" y="791" on="0"/>
        <pt x="375" y="1048" on="0"/>
        <pt x="623" y="1057" on="1"/>
        <pt x="623" y="1300" on="1"/>
        <pt x="92" y="1300" on="1"/>
        <pt x="92" y="1462" on="1"/>
        <pt x="1249" y="1462" on="1"/>
        <pt x="1249" y="1300" on="1"/>
        <pt x="807" y="1300" on="1"/>
        <pt x="807" y="1051" on="1"/>
        <pt x="1019" y="996" on="0"/>
        <pt x="1255" y="671" on="0"/>
        <pt x="1255" y="432" on="1"/>
        <pt x="1255" y="100" on="0"/>
        <pt x="833" y="-297" on="0"/>
        <pt x="449" y="-334" on="1"/>
      </contour>
      <contour>
        <pt x="463" y="330" on="1"/>
        <pt x="548" y="330" on="0"/>
        <pt x="623" y="447" on="0"/>
        <pt x="623" y="569" on="1"/>
        <pt x="623" y="905" on="1"/>
        <pt x="460" y="897" on="0"/>
        <pt x="285" y="719" on="0"/>
        <pt x="285" y="569" on="1"/>
        <pt x="285" y="461" on="0"/>
        <pt x="380" y="330" on="0"/>
      </contour>
    </TTGlyph>
    <TTGlyph name="uni2CE3" xMin="82" yMin="-489" xMax="1116" yMax="1098">
      <contour>
        <pt x="385" y="-328" on="1"/>
        <pt x="934" y="-266" on="0"/>
        <pt x="934" y="195" on="1"/>
        <pt x="934" y="318" on="0"/>
        <pt x="813" y="517" on="0"/>
        <pt x="717" y="561" on="1"/>
        <pt x="717" y="313" on="1"/>
        <pt x="717" y="178" on="0"/>
        <pt x="529" y="-12" on="0"/>
        <pt x="391" y="-12" on="1"/>
        <pt x="249" y="-12" on="0"/>
        <pt x="82" y="171" on="0"/>
        <pt x="82" y="322" on="1"/>
        <pt x="82" y="495" on="0"/>
        <pt x="332" y="724" on="0"/>
        <pt x="539" y="739" on="1"/>
        <pt x="539" y="946" on="1"/>
        <pt x="125" y="946" on="1"/>
        <pt x="125" y="1098" on="1"/>
        <pt x="1110" y="1098" on="1"/>
        <pt x="1110" y="946" on="1"/>
        <pt x="717" y="946" on="1"/>
        <pt x="717" y="731" on="1"/>
        <pt x="906" y="674" on="0"/>
        <pt x="1116" y="409" on="0"/>
        <pt x="1116" y="205" on="1"/>
        <pt x="1116" y="14" on="0"/>
        <pt x="947" y="-281" on="0"/>
        <pt x="619" y="-465" on="0"/>
        <pt x="385" y="-489" on="1"/>
      </contour>
      <contour>
        <pt x="399" y="139" on="1"/>
        <pt x="468" y="139" on="0"/>
        <pt x="539" y="233" on="0"/>
        <pt x="539" y="317" on="1"/>
        <pt x="539" y="584" on="1"/>
        <pt x="410" y="576" on="0"/>
        <pt x="256" y="437" on="0"/>
        <pt x="256" y="322" on="1"/>
        <pt x="256" y="247" on="0"/>
        <pt x="336" y="139" on="0"/>
      </contour>
    </TTGlyph>
    <TTGlyph name="uni2CE4" xMin="174" yMin="-397" xMax="1071" yMax="1098">
      <contour>
        <pt x="477" y="512" on="1"/>
        <pt x="352" y="403" on="1"/>
        <pt x="352" y="0" on="1"/>
        <pt x="174" y="0" on="1"/>
        <pt x="174" y="1098" on="1"/>
        <pt x="352" y="1098" on="1"/>
        <pt x="352" y="743" on="1"/>
        <pt x="344" y="565" on="1"/>
        <pt x="352" y="565" on="1"/>
        <pt x="413" y="643" on="1"/>
        <pt x="483" y="727" on="1"/>
        <pt x="834" y="1098" on="1"/>
        <pt x="1044" y="1098" on="1"/>
        <pt x="600" y="629" on="1"/>
        <pt x="1071" y="35" on="1"/>
        <pt x="557" y="-397" on="1"/>
        <pt x="451" y="-266" on="1"/>
        <pt x="836" y="57" on="1"/>
      </contour>
    </TTGlyph>
    <TTGlyph name="uni2CE5" xMin="41" yMin="-334" xMax="1432" yMax="1462">
      <contour>
        <pt x="537" y="-334" on="1"/>
        <pt x="537" y="-164" on="1"/>
        <pt x="435" y="-141" on="0"/>
        <pt x="299" y="10" on="0"/>
        <pt x="272" y="131" on="1"/>
        <pt x="270" y="131" on="1"/>
        <pt x="259" y="42" on="0"/>
        <pt x="214" y="-88" on="1"/>
        <pt x="190" y="-160" on="1"/>
        <pt x="41" y="-160" on="1"/>
        <pt x="127" y="48" on="0"/>
        <pt x="193" y="301" on="1"/>
        <pt x="184" y="578" on="1"/>
        <pt x="369" y="578" on="1"/>
        <pt x="360" y="301" on="1"/>
        <pt x="415" y="44" on="0"/>
        <pt x="537" y="-6" on="1"/>
        <pt x="537" y="1462" on="1"/>
        <pt x="971" y="1462" on="1"/>
        <pt x="1432" y="1462" on="0"/>
        <pt x="1432" y="1108" on="1"/>
        <pt x="1432" y="920" on="0"/>
        <pt x="1175" y="719" on="0"/>
        <pt x="936" y="719" on="1"/>
        <pt x="721" y="719" on="1"/>
        <pt x="721" y="2" on="1"/>
        <pt x="838" y="66" on="0"/>
        <pt x="909" y="301" on="1"/>
        <pt x="905" y="578" on="1"/>
        <pt x="1087" y="578" on="1"/>
        <pt x="1075" y="301" on="1"/>
        <pt x="1099" y="171" on="0"/>
        <pt x="1167" y="-82" on="0"/>
        <pt x="1200" y="-160" on="1"/>
        <pt x="1049" y="-160" on="1"/>
        <pt x="1009" y="-27" on="0"/>
        <pt x="987" y="79" on="0"/>
        <pt x="983" y="131" on="1"/>
        <pt x="979" y="131" on="1"/>
        <pt x="899" y="-110" on="0"/>
        <pt x="721" y="-158" on="1"/>
        <pt x="721" y="-334" on="1"/>
      </contour>
      <contour>
        <pt x="721" y="877" on="1"/>
        <pt x="934" y="877" on="1"/>
        <pt x="1093" y="877" on="0"/>
        <pt x="1241" y="982" on="0"/>
        <pt x="1241" y="1096" on="1"/>
        <pt x="1241" y="1205" on="0"/>
        <pt x="1097" y="1305" on="0"/>
        <pt x="954" y="1305" on="1"/>
        <pt x="721" y="1305" on="1"/>
      </contour>
    </TTGlyph>
    <TTGlyph name="uni2CE6" xMin="102" yMin="-334" xMax="1389" yMax="1462">
      <contour>
        <pt x="283" y="-178" on="1"/>
        <pt x="102" y="-178" on="1"/>
        <pt x="102" y="596" on="1"/>
        <pt x="494" y="596" on="1"/>
        <pt x="494" y="1462" on="1"/>
        <pt x="928" y="1462" on="1"/>
        <pt x="1389" y="1462" on="0"/>
        <pt x="1389" y="1108" on="1"/>
        <pt x="1389" y="920" on="0"/>
        <pt x="1132" y="719" on="0"/>
        <pt x="893" y="719" on="1"/>
        <pt x="678" y="719" on="1"/>
        <pt x="678" y="596" on="1"/>
        <pt x="1071" y="596" on="1"/>
        <pt x="1071" y="-178" on="1"/>
        <pt x="891" y="-178" on="1"/>
        <pt x="891" y="442" on="1"/>
        <pt x="678" y="442" on="1"/>
        <pt x="678" y="-334" on="1"/>
        <pt x="494" y="-334" on="1"/>
        <pt x="494" y="442" on="1"/>
        <pt x="283" y="442" on="1"/>
      </contour>
      <contour>
        <pt x="678" y="877" on="1"/>
        <pt x="891" y="877" on="1"/>
        <pt x="1050" y="877" on="0"/>
        <pt x="1198" y="982" on="0"/>
        <pt x="1198" y="1096" on="1"/>
        <pt x="1198" y="1205" on="0"/>
        <pt x="1054" y="1305" on="0"/>
        <pt x="911" y="1305" on="1"/>
        <pt x="678" y="1305" on="1"/>
      </contour>
    </TTGlyph>
    <TTGlyph name="uni2CE7" xMin="98" yMin="-338" xMax="1681" yMax="1462">
      <contour>
        <pt x="109" y="612" on="1"/>
        <pt x="776" y="612" on="1"/>
        <pt x="776" y="1462" on="1"/>
        <pt x="1210" y="1462" on="1"/>
        <pt x="1671" y="1462" on="0"/>
        <pt x="1671" y="1108" on="1"/>
        <pt x="1671" y="921" on="0"/>
        <pt x="1415" y="719" on="0"/>
        <pt x="1176" y="719" on="1"/>
        <pt x="961" y="719" on="1"/>
        <pt x="961" y="612" on="1"/>
        <pt x="1681" y="612" on="1"/>
        <pt x="1681" y="465" on="1"/>
        <pt x="961" y="465" on="1"/>
        <pt x="961" y="-334" on="1"/>
        <pt x="776" y="-334" on="1"/>
        <pt x="776" y="465" on="1"/>
        <pt x="109" y="465" on="1"/>
      </contour>
      <contour>
        <pt x="961" y="877" on="1"/>
        <pt x="1174" y="877" on="1"/>
        <pt x="1333" y="877" on="0"/>
        <pt x="1481" y="982" on="0"/>
        <pt x="1481" y="1096" on="1"/>
        <pt x="1481" y="1205" on="0"/>
        <pt x="1336" y="1305" on="0"/>
        <pt x="1194" y="1305" on="1"/>
        <pt x="961" y="1305" on="1"/>
      </contour>
      <contour>
        <pt x="436" y="-338" on="1"/>
        <pt x="274" y="-338" on="0"/>
        <pt x="98" y="-150" on="0"/>
        <pt x="98" y="23" on="1"/>
        <pt x="98" y="202" on="0"/>
        <pt x="281" y="393" on="0"/>
        <pt x="444" y="393" on="1"/>
        <pt x="554" y="393" on="0"/>
        <pt x="649" y="348" on="1"/>
        <pt x="604" y="231" on="1"/>
        <pt x="509" y="268" on="0"/>
        <pt x="440" y="268" on="1"/>
        <pt x="252" y="268" on="0"/>
        <pt x="252" y="23" on="1"/>
        <pt x="252" y="-93" on="0"/>
        <pt x="344" y="-217" on="0"/>
        <pt x="434" y="-217" on="1"/>
        <pt x="525" y="-217" on="0"/>
        <pt x="635" y="-170" on="1"/>
        <pt x="635" y="-295" on="1"/>
        <pt x="556" y="-338" on="0"/>
      </contour>
      <contour>
        <pt x="1436" y="-338" on="1"/>
        <pt x="1274" y="-338" on="0"/>
        <pt x="1098" y="-150" on="0"/>
        <pt x="1098" y="23" on="1"/>
        <pt x="1098" y="202" on="0"/>
        <pt x="1281" y="393" on="0"/>
        <pt x="1444" y="393" on="1"/>
        <pt x="1557" y="393" on="0"/>
        <pt x="1649" y="348" on="1"/>
        <pt x="1604" y="231" on="1"/>
        <pt x="1504" y="268" on="0"/>
        <pt x="1440" y="268" on="1"/>
        <pt x="1251" y="268" on="0"/>
        <pt x="1251" y="23" on="1"/>
        <pt x="1251" y="-93" on="0"/>
        <pt x="1344" y="-217" on="0"/>
        <pt x="1434" y="-217" on="1"/>
        <pt x="1526" y="-217" on="0"/>
        <pt x="1634" y="-170" on="1"/>
        <pt x="1634" y="-295" on="1"/>
        <pt x="1592" y="-318" on="0"/>
        <pt x="1501" y="-338" on="0"/>
      </contour>
    </TTGlyph>
    <TTGlyph name="uni2CE8" xMin="25" yMin="-334" xMax="1317" yMax="1462">
      <contour>
        <pt x="25" y="530" on="1"/>
        <pt x="422" y="530" on="1"/>
        <pt x="422" y="1462" on="1"/>
        <pt x="856" y="1462" on="1"/>
        <pt x="1317" y="1462" on="0"/>
        <pt x="1317" y="1108" on="1"/>
        <pt x="1317" y="920" on="0"/>
        <pt x="1060" y="719" on="0"/>
        <pt x="821" y="719" on="1"/>
        <pt x="606" y="719" on="1"/>
        <pt x="606" y="530" on="1"/>
        <pt x="1018" y="530" on="1"/>
        <pt x="1018" y="383" on="1"/>
        <pt x="606" y="383" on="1"/>
        <pt x="606" y="-334" on="1"/>
        <pt x="422" y="-334" on="1"/>
        <pt x="422" y="383" on="1"/>
        <pt x="25" y="383" on="1"/>
      </contour>
      <contour>
        <pt x="606" y="877" on="1"/>
        <pt x="819" y="877" on="1"/>
        <pt x="978" y="877" on="0"/>
        <pt x="1126" y="982" on="0"/>
        <pt x="1126" y="1096" on="1"/>
        <pt x="1126" y="1205" on="0"/>
        <pt x="982" y="1305" on="0"/>
        <pt x="840" y="1305" on="1"/>
        <pt x="606" y="1305" on="1"/>
      </contour>
    </TTGlyph>
    <TTGlyph name="uni2CE9" xMin="16" yMin="-334" xMax="1317" yMax="1462">
      <contour>
        <pt x="414" y="217" on="1"/>
        <pt x="27" y="596" on="1"/>
        <pt x="240" y="596" on="1"/>
        <pt x="422" y="395" on="1"/>
        <pt x="422" y="1462" on="1"/>
        <pt x="856" y="1462" on="1"/>
        <pt x="1317" y="1462" on="0"/>
        <pt x="1317" y="1108" on="1"/>
        <pt x="1317" y="920" on="0"/>
        <pt x="1060" y="719" on="0"/>
        <pt x="821" y="719" on="1"/>
        <pt x="606" y="719" on="1"/>
        <pt x="606" y="395" on="1"/>
        <pt x="791" y="596" on="1"/>
        <pt x="1018" y="596" on="1"/>
        <pt x="610" y="217" on="1"/>
        <pt x="997" y="-178" on="1"/>
        <pt x="784" y="-178" on="1"/>
        <pt x="606" y="29" on="1"/>
        <pt x="606" y="-334" on="1"/>
        <pt x="422" y="-334" on="1"/>
        <pt x="422" y="35" on="1"/>
        <pt x="227" y="-178" on="1"/>
        <pt x="16" y="-178" on="1"/>
      </contour>
      <contour>
        <pt x="606" y="877" on="1"/>
        <pt x="819" y="877" on="1"/>
        <pt x="978" y="877" on="0"/>
        <pt x="1126" y="982" on="0"/>
        <pt x="1126" y="1096" on="1"/>
        <pt x="1126" y="1205" on="0"/>
        <pt x="982" y="1305" on="0"/>
        <pt x="840" y="1305" on="1"/>
        <pt x="606" y="1305" on="1"/>
      </contour>
    </TTGlyph>
    <TTGlyph name="uni2CEA" xMin="113" yMin="-20" xMax="2073" yMax="1098">
      <contour>
        <pt x="1772" y="-20" on="1"/>
        <pt x="1530" y="-20" on="0"/>
        <pt x="1270" y="264" on="0"/>
        <pt x="1270" y="532" on="1"/>
        <pt x="1270" y="819" on="0"/>
        <pt x="1417" y="946" on="1"/>
        <pt x="975" y="946" on="1"/>
        <pt x="1047" y="890" on="0"/>
        <pt x="1128" y="676" on="0"/>
        <pt x="1128" y="541" on="1"/>
        <pt x="1128" y="276" on="0"/>
        <pt x="859" y="-20" on="0"/>
        <pt x="616" y="-20" on="1"/>
        <pt x="386" y="-20" on="0"/>
        <pt x="113" y="281" on="0"/>
        <pt x="113" y="541" on="1"/>
        <pt x="113" y="808" on="0"/>
        <pt x="380" y="1098" on="0"/>
        <pt x="623" y="1098" on="1"/>
        <pt x="1784" y="1098" on="1"/>
        <pt x="1863" y="1098" on="0"/>
        <pt x="2015" y="1066" on="0"/>
        <pt x="2073" y="1038" on="1"/>
        <pt x="2017" y="889" on="1"/>
        <pt x="1881" y="940" on="0"/>
        <pt x="1780" y="940" on="1"/>
        <pt x="1616" y="940" on="0"/>
        <pt x="1456" y="740" on="0"/>
        <pt x="1456" y="535" on="1"/>
        <pt x="1456" y="135" on="0"/>
        <pt x="1769" y="135" on="1"/>
        <pt x="1914" y="135" on="0"/>
        <pt x="2054" y="199" on="1"/>
        <pt x="2054" y="39" on="1"/>
        <pt x="1940" y="-20" on="0"/>
      </contour>
      <contour>
        <pt x="299" y="541" on="1"/>
        <pt x="299" y="129" on="0"/>
        <pt x="621" y="129" on="1"/>
        <pt x="779" y="129" on="0"/>
        <pt x="942" y="336" on="0"/>
        <pt x="942" y="541" on="1"/>
        <pt x="942" y="946" on="0"/>
        <pt x="618" y="946" on="1"/>
        <pt x="451" y="946" on="0"/>
        <pt x="299" y="736" on="0"/>
      </contour>
    </TTGlyph>
    <TTGlyph name="uni2CEB" xMin="82" yMin="356" xMax="1593" yMax="1395">
      <contour>
        <pt x="1593" y="356" on="1"/>
        <pt x="82" y="356" on="1"/>
        <pt x="82" y="535" on="1"/>
        <pt x="1593" y="535" on="1"/>
      </contour>
      <contour>
        <pt x="1593" y="1010" on="1"/>
        <pt x="1593" y="828" on="0"/>
        <pt x="1402" y="623" on="0"/>
        <pt x="1231" y="623" on="1"/>
        <pt x="1060" y="623" on="0"/>
        <pt x="870" y="823" on="0"/>
        <pt x="870" y="1010" on="1"/>
        <pt x="870" y="1195" on="0"/>
        <pt x="1058" y="1395" on="0"/>
        <pt x="1233" y="1395" on="1"/>
        <pt x="1403" y="1395" on="0"/>
        <pt x="1593" y="1189" on="0"/>
      </contour>
      <contour>
        <pt x="1028" y="1010" on="1"/>
        <pt x="1028" y="758" on="0"/>
        <pt x="1231" y="758" on="1"/>
        <pt x="1434" y="758" on="0"/>
        <pt x="1434" y="1010" on="1"/>
        <pt x="1434" y="1126" on="0"/>
        <pt x="1337" y="1260" on="0"/>
        <pt x="1233" y="1260" on="1"/>
        <pt x="1127" y="1260" on="0"/>
        <pt x="1028" y="1127" on="0"/>
      </contour>
      <contour>
        <pt x="805" y="1010" on="1"/>
        <pt x="805" y="827" on="0"/>
        <pt x="612" y="623" on="0"/>
        <pt x="442" y="623" on="1"/>
        <pt x="272" y="623" on="0"/>
        <pt x="82" y="823" on="0"/>
        <pt x="82" y="1010" on="1"/>
        <pt x="82" y="1195" on="0"/>
        <pt x="270" y="1395" on="0"/>
        <pt x="444" y="1395" on="1"/>
        <pt x="613" y="1395" on="0"/>
        <pt x="805" y="1190" on="0"/>
      </contour>
      <contour>
        <pt x="240" y="1010" on="1"/>
        <pt x="240" y="758" on="0"/>
        <pt x="442" y="758" on="1"/>
        <pt x="645" y="758" on="0"/>
        <pt x="645" y="1010" on="1"/>
        <pt x="645" y="1260" on="0"/>
        <pt x="444" y="1260" on="1"/>
        <pt x="338" y="1260" on="0"/>
        <pt x="240" y="1126" on="0"/>
      </contour>
    </TTGlyph>
    <TTGlyph name="uni2CEC" xMin="70" yMin="205" xMax="1143" yMax="999">
      <contour>
        <pt x="1143" y="205" on="1"/>
        <pt x="70" y="205" on="1"/>
        <pt x="70" y="379" on="1"/>
        <pt x="1143" y="379" on="1"/>
      </contour>
      <contour>
        <pt x="1143" y="729" on="1"/>
        <pt x="1143" y="597" on="0"/>
        <pt x="1004" y="453" on="0"/>
        <pt x="885" y="453" on="1"/>
        <pt x="771" y="453" on="0"/>
        <pt x="631" y="602" on="0"/>
        <pt x="631" y="729" on="1"/>
        <pt x="631" y="859" on="0"/>
        <pt x="768" y="999" on="0"/>
        <pt x="889" y="999" on="1"/>
        <pt x="1004" y="999" on="0"/>
        <pt x="1143" y="852" on="0"/>
      </contour>
      <contour>
        <pt x="766" y="729" on="1"/>
        <pt x="766" y="565" on="0"/>
        <pt x="887" y="565" on="1"/>
        <pt x="1010" y="565" on="0"/>
        <pt x="1010" y="729" on="1"/>
        <pt x="1010" y="887" on="0"/>
        <pt x="887" y="887" on="1"/>
        <pt x="766" y="887" on="0"/>
      </contour>
      <contour>
        <pt x="582" y="729" on="1"/>
        <pt x="582" y="597" on="0"/>
        <pt x="443" y="453" on="0"/>
        <pt x="324" y="453" on="1"/>
        <pt x="210" y="453" on="0"/>
        <pt x="70" y="602" on="0"/>
        <pt x="70" y="729" on="1"/>
        <pt x="70" y="859" on="0"/>
        <pt x="207" y="999" on="0"/>
        <pt x="328" y="999" on="1"/>
        <pt x="443" y="999" on="0"/>
        <pt x="582" y="852" on="0"/>
      </contour>
      <contour>
        <pt x="205" y="729" on="1"/>
        <pt x="205" y="565" on="0"/>
        <pt x="326" y="565" on="1"/>
        <pt x="449" y="565" on="0"/>
        <pt x="449" y="729" on="1"/>
        <pt x="449" y="887" on="0"/>
        <pt x="326" y="887" on="1"/>
        <pt x="205" y="887" on="0"/>
      </contour>
    </TTGlyph>
    <TTGlyph name="uni2CED" xMin="199" yMin="0" xMax="1358" yMax="1462">
      <contour>
        <pt x="199" y="1462" on="1"/>
        <pt x="412" y="1462" on="1"/>
        <pt x="784" y="874" on="1"/>
        <pt x="1174" y="1462" on="1"/>
        <pt x="1358" y="1462" on="1"/>
        <pt x="1358" y="0" on="1"/>
        <pt x="1143" y="0" on="1"/>
        <pt x="772" y="584" on="1"/>
        <pt x="379" y="0" on="1"/>
        <pt x="199" y="0" on="1"/>
      </contour>
      <contour>
        <pt x="369" y="246" on="1"/>
        <pt x="684" y="723" on="1"/>
        <pt x="369" y="1221" on="1"/>
      </contour>
      <contour>
        <pt x="1186" y="242" on="1"/>
        <pt x="1186" y="1198" on="1"/>
        <pt x="872" y="735" on="1"/>
      </contour>
    </TTGlyph>
    <TTGlyph name="uni2CEE" xMin="174" yMin="0" xMax="1180" yMax="1098">
      <contour>
        <pt x="174" y="1098" on="1"/>
        <pt x="383" y="1098" on="1"/>
        <pt x="682" y="668" on="1"/>
        <pt x="995" y="1098" on="1"/>
        <pt x="1180" y="1098" on="1"/>
        <pt x="1180" y="0" on="1"/>
        <pt x="971" y="0" on="1"/>
        <pt x="672" y="424" on="1"/>
        <pt x="354" y="0" on="1"/>
        <pt x="174" y="0" on="1"/>
      </contour>
      <contour>
        <pt x="336" y="205" on="1"/>
        <pt x="582" y="541" on="1"/>
        <pt x="336" y="895" on="1"/>
      </contour>
      <contour>
        <pt x="1016" y="203" on="1"/>
        <pt x="1016" y="879" on="1"/>
        <pt x="772" y="551" on="1"/>
      </contour>
    </TTGlyph>
    <TTGlyph name="uni2CEF" xMin="-967" yMin="1163" xMax="-125" yMax="1466">
      <contour>
        <pt x="-319" y="1368" on="1"/>
        <pt x="-216" y="1368" on="0"/>
        <pt x="-125" y="1276" on="0"/>
        <pt x="-125" y="1163" on="1"/>
        <pt x="-236" y="1163" on="1"/>
        <pt x="-236" y="1219" on="0"/>
        <pt x="-282" y="1262" on="0"/>
        <pt x="-338" y="1262" on="1"/>
        <pt x="-772" y="1262" on="1"/>
        <pt x="-876" y="1262" on="0"/>
        <pt x="-967" y="1353" on="0"/>
        <pt x="-967" y="1466" on="1"/>
        <pt x="-856" y="1466" on="1"/>
        <pt x="-856" y="1411" on="0"/>
        <pt x="-809" y="1368" on="0"/>
        <pt x="-754" y="1368" on="1"/>
      </contour>
    </TTGlyph>
    <TTGlyph name="uni2CF0" xMin="-940" yMin="1147" xMax="-383" yMax="1483">
      <contour>
        <pt x="-940" y="1483" on="1"/>
        <pt x="-834" y="1483" on="1"/>
        <pt x="-834" y="1368" on="1"/>
        <pt x="-383" y="1368" on="1"/>
        <pt x="-383" y="1262" on="1"/>
        <pt x="-834" y="1262" on="1"/>
        <pt x="-834" y="1147" on="1"/>
        <pt x="-940" y="1147" on="1"/>
      </contour>
    </TTGlyph>
    <TTGlyph name="uni2CF1" xMin="-940" yMin="1147" xMax="-383" yMax="1483">
      <contour>
        <pt x="-383" y="1147" on="1"/>
        <pt x="-489" y="1147" on="1"/>
        <pt x="-489" y="1262" on="1"/>
        <pt x="-940" y="1262" on="1"/>
        <pt x="-940" y="1368" on="1"/>
        <pt x="-489" y="1368" on="1"/>
        <pt x="-489" y="1483" on="1"/>
        <pt x="-383" y="1483" on="1"/>
      </contour>
    </TTGlyph>
    <TTGlyph name="uni2CF2" xMin="199" yMin="-20" xMax="1370" yMax="1718">
      <contour>
        <pt x="465" y="1714" on="1"/>
        <pt x="487" y="1718" on="0"/>
        <pt x="539" y="1718" on="1"/>
        <pt x="642" y="1718" on="0"/>
        <pt x="735" y="1623" on="0"/>
        <pt x="735" y="1544" on="1"/>
        <pt x="735" y="1435" on="0"/>
        <pt x="641" y="1298" on="1"/>
        <pt x="680" y="1298" on="1"/>
        <pt x="1011" y="1298" on="0"/>
        <pt x="1370" y="965" on="0"/>
        <pt x="1370" y="659" on="1"/>
        <pt x="1370" y="461" on="0"/>
        <pt x="1181" y="143" on="0"/>
        <pt x="850" y="-20" on="0"/>
        <pt x="631" y="-20" on="1"/>
        <pt x="413" y="-20" on="0"/>
        <pt x="199" y="145" on="0"/>
        <pt x="199" y="330" on="1"/>
        <pt x="199" y="1141" on="1"/>
        <pt x="383" y="1141" on="1"/>
        <pt x="383" y="369" on="1"/>
        <pt x="383" y="237" on="0"/>
        <pt x="496" y="137" on="0"/>
        <pt x="649" y="137" on="1"/>
        <pt x="890" y="137" on="0"/>
        <pt x="1176" y="414" on="0"/>
        <pt x="1176" y="647" on="1"/>
        <pt x="1176" y="897" on="0"/>
        <pt x="909" y="1141" on="0"/>
        <pt x="635" y="1141" on="1"/>
        <pt x="473" y="1141" on="1"/>
        <pt x="473" y="1294" on="1"/>
        <pt x="502" y="1337" on="1"/>
        <pt x="571" y="1436" on="0"/>
        <pt x="571" y="1503" on="1"/>
        <pt x="571" y="1581" on="0"/>
        <pt x="496" y="1581" on="1"/>
        <pt x="480" y="1581" on="1"/>
        <pt x="465" y="1579" on="1"/>
      </contour>
    </TTGlyph>
    <TTGlyph name="uni2CF3" xMin="174" yMin="-20" xMax="1147" yMax="1561">
      <contour>
        <pt x="428" y="1556" on="1"/>
        <pt x="448" y="1561" on="0"/>
        <pt x="522" y="1561" on="1"/>
        <pt x="607" y="1561" on="0"/>
        <pt x="702" y="1462" on="0"/>
        <pt x="702" y="1380" on="1"/>
        <pt x="702" y="1325" on="0"/>
        <pt x="658" y="1188" on="0"/>
        <pt x="606" y="1098" on="1"/>
        <pt x="618" y="1098" on="1"/>
        <pt x="868" y="1098" on="0"/>
        <pt x="1147" y="819" on="0"/>
        <pt x="1147" y="569" on="1"/>
        <pt x="1147" y="393" on="0"/>
        <pt x="994" y="119" on="0"/>
        <pt x="724" y="-20" on="0"/>
        <pt x="543" y="-20" on="1"/>
        <pt x="174" y="-20" on="0"/>
        <pt x="174" y="295" on="1"/>
        <pt x="174" y="956" on="1"/>
        <pt x="354" y="956" on="1"/>
        <pt x="354" y="330" on="1"/>
        <pt x="354" y="228" on="0"/>
        <pt x="453" y="129" on="0"/>
        <pt x="571" y="129" on="1"/>
        <pt x="691" y="129" on="0"/>
        <pt x="867" y="235" on="0"/>
        <pt x="961" y="429" on="0"/>
        <pt x="961" y="551" on="1"/>
        <pt x="961" y="758" on="0"/>
        <pt x="743" y="956" on="0"/>
        <pt x="524" y="956" on="1"/>
        <pt x="428" y="956" on="1"/>
        <pt x="428" y="1098" on="1"/>
        <pt x="460" y="1146" on="1"/>
        <pt x="535" y="1256" on="0"/>
        <pt x="535" y="1339" on="1"/>
        <pt x="535" y="1380" on="0"/>
        <pt x="493" y="1425" on="0"/>
        <pt x="455" y="1425" on="1"/>
        <pt x="428" y="1425" on="1"/>
      </contour>
    </TTGlyph>
    <TTGlyph name="uni2CF9" xMin="49" yMin="82" xMax="1661" yMax="1151">
      <contour>
        <pt x="864" y="901" on="1"/>
        <pt x="824" y="870" on="0"/>
        <pt x="768" y="870" on="1"/>
        <pt x="705" y="870" on="0"/>
        <pt x="627" y="948" on="0"/>
        <pt x="627" y="1012" on="1"/>
        <pt x="627" y="1077" on="0"/>
        <pt x="707" y="1151" on="0"/>
        <pt x="770" y="1151" on="1"/>
        <pt x="821" y="1151" on="0"/>
        <pt x="901" y="1110" on="0"/>
        <pt x="938" y="1065" on="1"/>
        <pt x="1661" y="184" on="1"/>
        <pt x="1536" y="82" on="1"/>
      </contour>
      <contour>
        <pt x="287" y="901" on="1"/>
        <pt x="245" y="870" on="0"/>
        <pt x="190" y="870" on="1"/>
        <pt x="127" y="870" on="0"/>
        <pt x="49" y="948" on="0"/>
        <pt x="49" y="1012" on="1"/>
        <pt x="49" y="1077" on="0"/>
        <pt x="130" y="1151" on="0"/>
        <pt x="193" y="1151" on="1"/>
        <pt x="244" y="1151" on="0"/>
        <pt x="323" y="1110" on="0"/>
        <pt x="360" y="1065" on="1"/>
        <pt x="1083" y="184" on="1"/>
        <pt x="958" y="82" on="1"/>
      </contour>
    </TTGlyph>
    <TTGlyph name="uni2CFA" xMin="51" yMin="82" xMax="1085" yMax="1151">
      <contour>
        <pt x="176" y="82" on="1"/>
        <pt x="51" y="184" on="1"/>
        <pt x="774" y="1065" on="1"/>
        <pt x="811" y="1110" on="0"/>
        <pt x="891" y="1151" on="0"/>
        <pt x="942" y="1151" on="1"/>
        <pt x="1005" y="1151" on="0"/>
        <pt x="1085" y="1077" on="0"/>
        <pt x="1085" y="1012" on="1"/>
        <pt x="1085" y="949" on="0"/>
        <pt x="1007" y="870" on="0"/>
        <pt x="944" y="870" on="1"/>
        <pt x="888" y="870" on="0"/>
        <pt x="848" y="901" on="1"/>
      </contour>
      <contour>
        <pt x="514" y="231" on="1"/>
        <pt x="514" y="299" on="0"/>
        <pt x="579" y="369" on="0"/>
        <pt x="639" y="369" on="1"/>
        <pt x="700" y="369" on="0"/>
        <pt x="768" y="297" on="0"/>
        <pt x="768" y="231" on="1"/>
        <pt x="768" y="167" on="0"/>
        <pt x="700" y="92" on="0"/>
        <pt x="639" y="92" on="1"/>
        <pt x="580" y="92" on="0"/>
        <pt x="514" y="164" on="0"/>
      </contour>
    </TTGlyph>
    <TTGlyph name="uni2CFB" xMin="49" yMin="82" xMax="1083" yMax="1151">
      <contour>
        <pt x="287" y="901" on="1"/>
        <pt x="245" y="870" on="0"/>
        <pt x="190" y="870" on="1"/>
        <pt x="127" y="870" on="0"/>
        <pt x="49" y="948" on="0"/>
        <pt x="49" y="1012" on="1"/>
        <pt x="49" y="1077" on="0"/>
        <pt x="130" y="1151" on="0"/>
        <pt x="193" y="1151" on="1"/>
        <pt x="244" y="1151" on="0"/>
        <pt x="323" y="1110" on="0"/>
        <pt x="360" y="1065" on="1"/>
        <pt x="1083" y="184" on="1"/>
        <pt x="958" y="82" on="1"/>
      </contour>
      <contour>
        <pt x="621" y="231" on="1"/>
        <pt x="621" y="166" on="0"/>
        <pt x="554" y="92" on="0"/>
        <pt x="496" y="92" on="1"/>
        <pt x="436" y="92" on="0"/>
        <pt x="367" y="167" on="0"/>
        <pt x="367" y="231" on="1"/>
        <pt x="367" y="296" on="0"/>
        <pt x="434" y="369" on="0"/>
        <pt x="496" y="369" on="1"/>
        <pt x="556" y="369" on="0"/>
        <pt x="621" y="297" on="0"/>
      </contour>
    </TTGlyph>
    <TTGlyph name="uni2CFC" xMin="51" yMin="82" xMax="1663" yMax="1151">
      <contour>
        <pt x="176" y="82" on="1"/>
        <pt x="51" y="184" on="1"/>
        <pt x="774" y="1065" on="1"/>
        <pt x="811" y="1110" on="0"/>
        <pt x="891" y="1151" on="0"/>
        <pt x="942" y="1151" on="1"/>
        <pt x="1005" y="1151" on="0"/>
        <pt x="1085" y="1077" on="0"/>
        <pt x="1085" y="1012" on="1"/>
        <pt x="1085" y="949" on="0"/>
        <pt x="1007" y="870" on="0"/>
        <pt x="944" y="870" on="1"/>
        <pt x="888" y="870" on="0"/>
        <pt x="848" y="901" on="1"/>
      </contour>
      <contour>
        <pt x="754" y="82" on="1"/>
        <pt x="629" y="184" on="1"/>
        <pt x="1352" y="1065" on="1"/>
        <pt x="1389" y="1110" on="0"/>
        <pt x="1469" y="1151" on="0"/>
        <pt x="1520" y="1151" on="1"/>
        <pt x="1583" y="1151" on="0"/>
        <pt x="1663" y="1077" on="0"/>
        <pt x="1663" y="1012" on="1"/>
        <pt x="1663" y="949" on="0"/>
        <pt x="1585" y="870" on="0"/>
        <pt x="1522" y="870" on="1"/>
        <pt x="1467" y="870" on="0"/>
        <pt x="1425" y="901" on="1"/>
      </contour>
    </TTGlyph>
    <TTGlyph name="uni2CFD" xMin="61" yMin="33" xMax="647" yMax="1067">
      <contour>
        <pt x="647" y="918" on="1"/>
        <pt x="511" y="918" on="0"/>
        <pt x="379" y="838" on="0"/>
        <pt x="379" y="750" on="1"/>
        <pt x="379" y="711" on="0"/>
        <pt x="409" y="637" on="0"/>
        <pt x="451" y="573" on="1"/>
        <pt x="522" y="465" on="0"/>
        <pt x="522" y="352" on="1"/>
        <pt x="522" y="196" on="0"/>
        <pt x="286" y="33" on="0"/>
        <pt x="61" y="33" on="1"/>
        <pt x="61" y="186" on="1"/>
        <pt x="207" y="186" on="0"/>
        <pt x="346" y="261" on="0"/>
        <pt x="346" y="344" on="1"/>
        <pt x="346" y="391" on="0"/>
        <pt x="312" y="479" on="0"/>
        <pt x="275" y="536" on="1"/>
        <pt x="203" y="642" on="0"/>
        <pt x="203" y="743" on="1"/>
        <pt x="203" y="895" on="0"/>
        <pt x="436" y="1067" on="0"/>
        <pt x="647" y="1067" on="1"/>
      </contour>
    </TTGlyph>
    <TTGlyph name="uni2CFE" xMin="72" yMin="0" xMax="801" yMax="549">
      <contour>
        <pt x="596" y="0" on="1"/>
        <pt x="457" y="0" on="1"/>
        <pt x="457" y="141" on="0"/>
        <pt x="357" y="265" on="1"/>
        <pt x="304" y="329" on="0"/>
        <pt x="256" y="438" on="0"/>
        <pt x="256" y="496" on="1"/>
        <pt x="256" y="549" on="1"/>
        <pt x="403" y="549" on="1"/>
        <pt x="403" y="489" on="0"/>
        <pt x="451" y="379" on="0"/>
        <pt x="500" y="320" on="1"/>
        <pt x="596" y="200" on="0"/>
        <pt x="596" y="63" on="1"/>
      </contour>
      <contour>
        <pt x="72" y="260" on="1"/>
        <pt x="72" y="365" on="0"/>
        <pt x="168" y="365" on="1"/>
        <pt x="208" y="365" on="0"/>
        <pt x="266" y="317" on="0"/>
        <pt x="266" y="260" on="1"/>
        <pt x="266" y="204" on="0"/>
        <pt x="208" y="154" on="0"/>
        <pt x="168" y="154" on="1"/>
        <pt x="126" y="154" on="0"/>
        <pt x="72" y="204" on="0"/>
      </contour>
      <contour>
        <pt x="606" y="270" on="1"/>
        <pt x="606" y="375" on="0"/>
        <pt x="702" y="375" on="1"/>
        <pt x="741" y="375" on="0"/>
        <pt x="801" y="325" on="0"/>
        <pt x="801" y="270" on="1"/>
        <pt x="801" y="216" on="0"/>
        <pt x="741" y="162" on="0"/>
        <pt x="702" y="162" on="1"/>
        <pt x="660" y="162" on="0"/>
        <pt x="606" y="216" on="0"/>
      </contour>
    </TTGlyph>
    <TTGlyph name="uni2CFF" xMin="100" yMin="1014" xMax="530" yMax="1395">
      <contour>
        <pt x="483" y="1014" on="1"/>
        <pt x="297" y="1200" on="0"/>
        <pt x="100" y="1219" on="1"/>
        <pt x="100" y="1395" on="1"/>
        <pt x="131" y="1395" on="1"/>
        <pt x="253" y="1372" on="0"/>
        <pt x="463" y="1245" on="0"/>
        <pt x="530" y="1149" on="1"/>
        <pt x="530" y="1014" on="1"/>
      </contour>
    </TTGlyph>
    <TTGlyph name="uniFE24" xMin="-820" yMin="1241" xMax="0" yMax="1386">
      <contour>
        <pt x="-820" y="1386" on="1"/>
        <pt x="0" y="1386" on="1"/>
        <pt x="0" y="1241" on="1"/>
        <pt x="-820" y="1241" on="1"/>
      </contour>
    </TTGlyph>
    <TTGlyph name="uniFE25" xMin="0" yMin="1241" xMax="820" yMax="1386">
      <contour>
        <pt x="0" y="1386" on="1"/>
        <pt x="820" y="1386" on="1"/>
        <pt x="820" y="1241" on="1"/>
        <pt x="0" y="1241" on="1"/>
      </contour>
    </TTGlyph>
    <TTGlyph name="uniFE26" xMin="-640" yMin="1241" xMax="640" yMax="1386">
      <contour>
        <pt x="-640" y="1386" on="1"/>
        <pt x="640" y="1386" on="1"/>
        <pt x="640" y="1241" on="1"/>
        <pt x="-640" y="1241" on="1"/>
      </contour>
    </TTGlyph>
</ttFont>
